<?xml version="1.0" encoding="utf-8" standalone="no"?>
<!DOCTYPE svg PUBLIC "-//W3C//DTD SVG 1.1//EN"
  "http://www.w3.org/Graphics/SVG/1.1/DTD/svg11.dtd">
<svg xmlns:xlink="http://www.w3.org/1999/xlink" width="432pt" height="216pt" viewBox="0 0 432 216" xmlns="http://www.w3.org/2000/svg" version="1.1">
 <metadata>
  <rdf:RDF xmlns:dc="http://purl.org/dc/elements/1.1/" xmlns:cc="http://creativecommons.org/ns#" xmlns:rdf="http://www.w3.org/1999/02/22-rdf-syntax-ns#">
   <cc:Work>
    <dc:type rdf:resource="http://purl.org/dc/dcmitype/StillImage"/>
    <dc:date>2025-09-16T18:14:17.165549</dc:date>
    <dc:format>image/svg+xml</dc:format>
    <dc:creator>
     <cc:Agent>
      <dc:title>Matplotlib v3.9.1, https://matplotlib.org/</dc:title>
     </cc:Agent>
    </dc:creator>
   </cc:Work>
  </rdf:RDF>
 </metadata>
 <defs>
  <style type="text/css">*{stroke-linejoin: round; stroke-linecap: butt}</style>
 </defs>
 <g id="figure_1">
  <g id="patch_1">
   <path d="M 0 216 
L 432 216 
L 432 0 
L 0 0 
z
" style="fill: #ffffff"/>
  </g>
  <g id="axes_1">
   <g id="patch_2">
    <path d="M 57.53 174.04 
L 209.412 174.04 
L 209.412 10.8 
L 57.53 10.8 
z
" style="fill: #ffffff"/>
   </g>
   <g id="matplotlib.axis_1">
    <g id="xtick_1">
     <g id="line2d_1">
      <path d="M 64.433727 174.04 
L 64.433727 10.8 
" clip-path="url(#p2d64c83f11)" style="fill: none; stroke: #b0b0b0; stroke-width: 0.8; stroke-linecap: square"/>
     </g>
     <g id="line2d_2">
      <defs>
       <path id="m6e9498b0af" d="M 0 0 
L 0 3.5 
" style="stroke: #000000; stroke-width: 0.8"/>
      </defs>
      <g>
       <use xlink:href="#m6e9498b0af" x="64.433727" y="174.04" style="stroke: #000000; stroke-width: 0.8"/>
      </g>
     </g>
     <g id="text_1">
      <!-- 0 -->
      <g transform="translate(61.252477 188.638438) scale(0.1 -0.1)">
       <defs>
        <path id="DejaVuSans-30" d="M 2034 4250 
Q 1547 4250 1301 3770 
Q 1056 3291 1056 2328 
Q 1056 1369 1301 889 
Q 1547 409 2034 409 
Q 2525 409 2770 889 
Q 3016 1369 3016 2328 
Q 3016 3291 2770 3770 
Q 2525 4250 2034 4250 
z
M 2034 4750 
Q 2819 4750 3233 4129 
Q 3647 3509 3647 2328 
Q 3647 1150 3233 529 
Q 2819 -91 2034 -91 
Q 1250 -91 836 529 
Q 422 1150 422 2328 
Q 422 3509 836 4129 
Q 1250 4750 2034 4750 
z
" transform="scale(0.015625)"/>
       </defs>
       <use xlink:href="#DejaVuSans-30"/>
      </g>
     </g>
    </g>
    <g id="xtick_2">
     <g id="line2d_3">
      <path d="M 121.583787 174.04 
L 121.583787 10.8 
" clip-path="url(#p2d64c83f11)" style="fill: none; stroke: #b0b0b0; stroke-width: 0.8; stroke-linecap: square"/>
     </g>
     <g id="line2d_4">
      <g>
       <use xlink:href="#m6e9498b0af" x="121.583787" y="174.04" style="stroke: #000000; stroke-width: 0.8"/>
      </g>
     </g>
     <g id="text_2">
      <!-- 5 -->
      <g transform="translate(118.402537 188.638438) scale(0.1 -0.1)">
       <defs>
        <path id="DejaVuSans-35" d="M 691 4666 
L 3169 4666 
L 3169 4134 
L 1269 4134 
L 1269 2991 
Q 1406 3038 1543 3061 
Q 1681 3084 1819 3084 
Q 2600 3084 3056 2656 
Q 3513 2228 3513 1497 
Q 3513 744 3044 326 
Q 2575 -91 1722 -91 
Q 1428 -91 1123 -41 
Q 819 9 494 109 
L 494 744 
Q 775 591 1075 516 
Q 1375 441 1709 441 
Q 2250 441 2565 725 
Q 2881 1009 2881 1497 
Q 2881 1984 2565 2268 
Q 2250 2553 1709 2553 
Q 1456 2553 1204 2497 
Q 953 2441 691 2322 
L 691 4666 
z
" transform="scale(0.015625)"/>
       </defs>
       <use xlink:href="#DejaVuSans-35"/>
      </g>
     </g>
    </g>
    <g id="xtick_3">
     <g id="line2d_5">
      <path d="M 178.733848 174.04 
L 178.733848 10.8 
" clip-path="url(#p2d64c83f11)" style="fill: none; stroke: #b0b0b0; stroke-width: 0.8; stroke-linecap: square"/>
     </g>
     <g id="line2d_6">
      <g>
       <use xlink:href="#m6e9498b0af" x="178.733848" y="174.04" style="stroke: #000000; stroke-width: 0.8"/>
      </g>
     </g>
     <g id="text_3">
      <!-- 10 -->
      <g transform="translate(172.371348 188.638438) scale(0.1 -0.1)">
       <defs>
        <path id="DejaVuSans-31" d="M 794 531 
L 1825 531 
L 1825 4091 
L 703 3866 
L 703 4441 
L 1819 4666 
L 2450 4666 
L 2450 531 
L 3481 531 
L 3481 0 
L 794 0 
L 794 531 
z
" transform="scale(0.015625)"/>
       </defs>
       <use xlink:href="#DejaVuSans-31"/>
       <use xlink:href="#DejaVuSans-30" x="63.623047"/>
      </g>
     </g>
    </g>
    <g id="text_4">
     <!-- Time (s) -->
     <g transform="translate(113.142094 202.316563) scale(0.1 -0.1)">
      <defs>
       <path id="DejaVuSans-54" d="M -19 4666 
L 3928 4666 
L 3928 4134 
L 2272 4134 
L 2272 0 
L 1638 0 
L 1638 4134 
L -19 4134 
L -19 4666 
z
" transform="scale(0.015625)"/>
       <path id="DejaVuSans-69" d="M 603 3500 
L 1178 3500 
L 1178 0 
L 603 0 
L 603 3500 
z
M 603 4863 
L 1178 4863 
L 1178 4134 
L 603 4134 
L 603 4863 
z
" transform="scale(0.015625)"/>
       <path id="DejaVuSans-6d" d="M 3328 2828 
Q 3544 3216 3844 3400 
Q 4144 3584 4550 3584 
Q 5097 3584 5394 3201 
Q 5691 2819 5691 2113 
L 5691 0 
L 5113 0 
L 5113 2094 
Q 5113 2597 4934 2840 
Q 4756 3084 4391 3084 
Q 3944 3084 3684 2787 
Q 3425 2491 3425 1978 
L 3425 0 
L 2847 0 
L 2847 2094 
Q 2847 2600 2669 2842 
Q 2491 3084 2119 3084 
Q 1678 3084 1418 2786 
Q 1159 2488 1159 1978 
L 1159 0 
L 581 0 
L 581 3500 
L 1159 3500 
L 1159 2956 
Q 1356 3278 1631 3431 
Q 1906 3584 2284 3584 
Q 2666 3584 2933 3390 
Q 3200 3197 3328 2828 
z
" transform="scale(0.015625)"/>
       <path id="DejaVuSans-65" d="M 3597 1894 
L 3597 1613 
L 953 1613 
Q 991 1019 1311 708 
Q 1631 397 2203 397 
Q 2534 397 2845 478 
Q 3156 559 3463 722 
L 3463 178 
Q 3153 47 2828 -22 
Q 2503 -91 2169 -91 
Q 1331 -91 842 396 
Q 353 884 353 1716 
Q 353 2575 817 3079 
Q 1281 3584 2069 3584 
Q 2775 3584 3186 3129 
Q 3597 2675 3597 1894 
z
M 3022 2063 
Q 3016 2534 2758 2815 
Q 2500 3097 2075 3097 
Q 1594 3097 1305 2825 
Q 1016 2553 972 2059 
L 3022 2063 
z
" transform="scale(0.015625)"/>
       <path id="DejaVuSans-20" transform="scale(0.015625)"/>
       <path id="DejaVuSans-28" d="M 1984 4856 
Q 1566 4138 1362 3434 
Q 1159 2731 1159 2009 
Q 1159 1288 1364 580 
Q 1569 -128 1984 -844 
L 1484 -844 
Q 1016 -109 783 600 
Q 550 1309 550 2009 
Q 550 2706 781 3412 
Q 1013 4119 1484 4856 
L 1984 4856 
z
" transform="scale(0.015625)"/>
       <path id="DejaVuSans-73" d="M 2834 3397 
L 2834 2853 
Q 2591 2978 2328 3040 
Q 2066 3103 1784 3103 
Q 1356 3103 1142 2972 
Q 928 2841 928 2578 
Q 928 2378 1081 2264 
Q 1234 2150 1697 2047 
L 1894 2003 
Q 2506 1872 2764 1633 
Q 3022 1394 3022 966 
Q 3022 478 2636 193 
Q 2250 -91 1575 -91 
Q 1294 -91 989 -36 
Q 684 19 347 128 
L 347 722 
Q 666 556 975 473 
Q 1284 391 1588 391 
Q 1994 391 2212 530 
Q 2431 669 2431 922 
Q 2431 1156 2273 1281 
Q 2116 1406 1581 1522 
L 1381 1569 
Q 847 1681 609 1914 
Q 372 2147 372 2553 
Q 372 3047 722 3315 
Q 1072 3584 1716 3584 
Q 2034 3584 2315 3537 
Q 2597 3491 2834 3397 
z
" transform="scale(0.015625)"/>
       <path id="DejaVuSans-29" d="M 513 4856 
L 1013 4856 
Q 1481 4119 1714 3412 
Q 1947 2706 1947 2009 
Q 1947 1309 1714 600 
Q 1481 -109 1013 -844 
L 513 -844 
Q 928 -128 1133 580 
Q 1338 1288 1338 2009 
Q 1338 2731 1133 3434 
Q 928 4138 513 4856 
z
" transform="scale(0.015625)"/>
      </defs>
      <use xlink:href="#DejaVuSans-54"/>
      <use xlink:href="#DejaVuSans-69" x="57.958984"/>
      <use xlink:href="#DejaVuSans-6d" x="85.742188"/>
      <use xlink:href="#DejaVuSans-65" x="183.154297"/>
      <use xlink:href="#DejaVuSans-20" x="244.677734"/>
      <use xlink:href="#DejaVuSans-28" x="276.464844"/>
      <use xlink:href="#DejaVuSans-73" x="315.478516"/>
      <use xlink:href="#DejaVuSans-29" x="367.578125"/>
     </g>
    </g>
   </g>
   <g id="matplotlib.axis_2">
    <g id="ytick_1">
     <g id="line2d_7">
      <path d="M 57.53 155.064364 
L 209.412 155.064364 
" clip-path="url(#p2d64c83f11)" style="fill: none; stroke: #b0b0b0; stroke-width: 0.8; stroke-linecap: square"/>
     </g>
     <g id="line2d_8">
      <defs>
       <path id="m9cb052a061" d="M 0 0 
L -3.5 0 
" style="stroke: #000000; stroke-width: 0.8"/>
      </defs>
      <g>
       <use xlink:href="#m9cb052a061" x="57.53" y="155.064364" style="stroke: #000000; stroke-width: 0.8"/>
      </g>
     </g>
     <g id="text_5">
      <!-- −1.0 -->
      <g transform="translate(26.247188 158.863583) scale(0.1 -0.1)">
       <defs>
        <path id="DejaVuSans-2212" d="M 678 2272 
L 4684 2272 
L 4684 1741 
L 678 1741 
L 678 2272 
z
" transform="scale(0.015625)"/>
        <path id="DejaVuSans-2e" d="M 684 794 
L 1344 794 
L 1344 0 
L 684 0 
L 684 794 
z
" transform="scale(0.015625)"/>
       </defs>
       <use xlink:href="#DejaVuSans-2212"/>
       <use xlink:href="#DejaVuSans-31" x="83.789062"/>
       <use xlink:href="#DejaVuSans-2e" x="147.412109"/>
       <use xlink:href="#DejaVuSans-30" x="179.199219"/>
      </g>
     </g>
    </g>
    <g id="ytick_2">
     <g id="line2d_9">
      <path d="M 57.53 121.267655 
L 209.412 121.267655 
" clip-path="url(#p2d64c83f11)" style="fill: none; stroke: #b0b0b0; stroke-width: 0.8; stroke-linecap: square"/>
     </g>
     <g id="line2d_10">
      <g>
       <use xlink:href="#m9cb052a061" x="57.53" y="121.267655" style="stroke: #000000; stroke-width: 0.8"/>
      </g>
     </g>
     <g id="text_6">
      <!-- −0.5 -->
      <g transform="translate(26.247188 125.066873) scale(0.1 -0.1)">
       <use xlink:href="#DejaVuSans-2212"/>
       <use xlink:href="#DejaVuSans-30" x="83.789062"/>
       <use xlink:href="#DejaVuSans-2e" x="147.412109"/>
       <use xlink:href="#DejaVuSans-35" x="179.199219"/>
      </g>
     </g>
    </g>
    <g id="ytick_3">
     <g id="line2d_11">
      <path d="M 57.53 87.470945 
L 209.412 87.470945 
" clip-path="url(#p2d64c83f11)" style="fill: none; stroke: #b0b0b0; stroke-width: 0.8; stroke-linecap: square"/>
     </g>
     <g id="line2d_12">
      <g>
       <use xlink:href="#m9cb052a061" x="57.53" y="87.470945" style="stroke: #000000; stroke-width: 0.8"/>
      </g>
     </g>
     <g id="text_7">
      <!-- 0.0 -->
      <g transform="translate(34.626875 91.270164) scale(0.1 -0.1)">
       <use xlink:href="#DejaVuSans-30"/>
       <use xlink:href="#DejaVuSans-2e" x="63.623047"/>
       <use xlink:href="#DejaVuSans-30" x="95.410156"/>
      </g>
     </g>
    </g>
    <g id="ytick_4">
     <g id="line2d_13">
      <path d="M 57.53 53.674235 
L 209.412 53.674235 
" clip-path="url(#p2d64c83f11)" style="fill: none; stroke: #b0b0b0; stroke-width: 0.8; stroke-linecap: square"/>
     </g>
     <g id="line2d_14">
      <g>
       <use xlink:href="#m9cb052a061" x="57.53" y="53.674235" style="stroke: #000000; stroke-width: 0.8"/>
      </g>
     </g>
     <g id="text_8">
      <!-- 0.5 -->
      <g transform="translate(34.626875 57.473454) scale(0.1 -0.1)">
       <use xlink:href="#DejaVuSans-30"/>
       <use xlink:href="#DejaVuSans-2e" x="63.623047"/>
       <use xlink:href="#DejaVuSans-35" x="95.410156"/>
      </g>
     </g>
    </g>
    <g id="ytick_5">
     <g id="line2d_15">
      <path d="M 57.53 19.877526 
L 209.412 19.877526 
" clip-path="url(#p2d64c83f11)" style="fill: none; stroke: #b0b0b0; stroke-width: 0.8; stroke-linecap: square"/>
     </g>
     <g id="line2d_16">
      <g>
       <use xlink:href="#m9cb052a061" x="57.53" y="19.877526" style="stroke: #000000; stroke-width: 0.8"/>
      </g>
     </g>
     <g id="text_9">
      <!-- 1.0 -->
      <g transform="translate(34.626875 23.676745) scale(0.1 -0.1)">
       <use xlink:href="#DejaVuSans-31"/>
       <use xlink:href="#DejaVuSans-2e" x="63.623047"/>
       <use xlink:href="#DejaVuSans-30" x="95.410156"/>
      </g>
     </g>
    </g>
    <g id="text_10">
     <!-- $V$ (V) -->
     <g transform="translate(20.1675 104.77) rotate(-90) scale(0.1 -0.1)">
      <defs>
       <path id="DejaVuSans-Oblique-56" d="M 1319 0 
L 500 4666 
L 1119 4666 
L 1797 653 
L 4063 4666 
L 4750 4666 
L 2053 0 
L 1319 0 
z
" transform="scale(0.015625)"/>
       <path id="DejaVuSans-56" d="M 1831 0 
L 50 4666 
L 709 4666 
L 2188 738 
L 3669 4666 
L 4325 4666 
L 2547 0 
L 1831 0 
z
" transform="scale(0.015625)"/>
      </defs>
      <use xlink:href="#DejaVuSans-Oblique-56" transform="translate(0 0.125)"/>
      <use xlink:href="#DejaVuSans-20" transform="translate(68.408203 0.125)"/>
      <use xlink:href="#DejaVuSans-28" transform="translate(100.195312 0.125)"/>
      <use xlink:href="#DejaVuSans-56" transform="translate(139.208984 0.125)"/>
      <use xlink:href="#DejaVuSans-29" transform="translate(207.617188 0.125)"/>
     </g>
    </g>
   </g>
   <g id="line2d_17">
    <path d="M 64.433727 87.470945 
L 64.433728 90.759107 
L 64.525167 88.386074 
L 64.548027 88.556311 
L 64.593747 88.164368 
L 64.822348 88.074032 
L 64.890928 87.386139 
L 64.959508 87.39937 
L 65.142388 87.407768 
L 65.302408 87.389635 
L 65.645309 87.414826 
L 65.759609 87.382387 
L 65.782469 87.413618 
L 66.422549 87.400121 
L 66.65115 87.415709 
L 66.85689 87.387069 
L 67.06263 87.402204 
L 67.29123 87.407006 
L 67.702711 87.407554 
L 67.839871 87.405187 
L 86.585091 87.281606 
L 86.950851 86.701435 
L 87.088011 85.89915 
L 87.225171 83.513446 
L 87.339471 75.995664 
L 87.568072 53.17032 
L 87.590932 53.174794 
L 87.842392 53.067023 
L 88.116712 53.033707 
L 88.231012 53.044332 
L 88.551053 52.847074 
L 88.733933 52.748219 
L 88.985393 52.581987 
L 89.168273 52.497556 
L 89.739774 52.477589 
L 90.082674 52.520531 
L 90.288415 52.555591 
L 90.837055 52.664653 
L 92.368677 52.880608 
L 92.597277 52.859404 
L 93.054477 52.861343 
L 95.47764 53.465318 
L 95.52336 53.645015 
L 95.68338 56.945547 
L 95.82054 68.539955 
L 96.049141 85.133115 
L 96.254881 87.033221 
L 96.506341 87.33278 
L 96.986402 87.375706 
L 97.146422 87.368606 
L 97.512182 87.371352 
L 98.243703 87.376065 
L 98.403723 87.376149 
L 98.952364 87.373203 
L 99.135244 87.374267 
L 99.432424 87.388505 
L 99.752464 87.369316 
L 99.981065 87.371557 
L 100.735446 87.375023 
L 101.489826 87.369119 
L 102.244207 87.365712 
L 102.472807 87.350719 
L 102.701408 87.367804 
L 103.181468 87.355023 
L 103.341488 87.375949 
L 103.478648 87.367443 
L 103.958709 87.358957 
L 105.17029 87.346724 
L 105.810371 87.040963 
L 105.993251 86.606685 
L 106.153271 85.728733 
L 106.290431 83.830664 
L 106.404731 79.541507 
L 106.541892 58.738213 
L 106.679052 53.423734 
L 106.816212 53.365644 
L 107.204832 53.310792 
L 107.364852 53.316545 
L 107.936353 52.958232 
L 108.302113 52.794629 
L 108.507854 52.808884 
L 108.965054 52.780934 
L 109.125074 52.695131 
L 109.673715 52.552401 
L 110.450956 52.392272 
L 110.610976 52.378294 
L 112.805538 52.117478 
L 113.056998 52.074029 
L 114.06284 52.16332 
L 114.13142 52.411178 
L 114.22286 53.676256 
L 114.3143 60.550987 
L 114.58862 85.929892 
L 114.79436 87.193057 
L 115.068681 87.316607 
L 115.960222 87.315112 
L 116.143102 87.341962 
L 116.531722 87.325157 
L 117.994764 87.336658 
L 118.383384 87.342864 
L 118.954885 87.34202 
L 120.143606 87.350054 
L 120.280766 87.109406 
L 120.395066 86.40471 
L 120.509366 83.757707 
L 120.577946 79.138265 
L 120.669387 67.949107 
L 120.760827 68.007995 
L 121.446627 68.107316 
L 121.652368 68.039128 
L 121.789528 68.017971 
L 121.972408 67.939157 
L 122.223868 67.871003 
L 122.521048 67.722392 
L 122.635349 67.688683 
L 123.68691 67.507756 
L 123.89265 67.53165 
L 124.09839 67.49709 
L 124.23555 67.500375 
L 127.367374 67.603732 
L 127.641694 67.629201 
L 128.121754 67.690894 
L 128.441795 67.697261 
L 128.624675 67.705325 
L 129.104735 67.846811 
L 129.173315 68.375818 
L 129.264756 72.021753 
L 129.539076 86.926849 
L 129.721956 87.37989 
L 130.864957 87.312476 
L 131.367878 87.321422 
L 135.757002 87.297483 
L 136.031323 87.047937 
L 136.214203 86.454422 
L 136.397083 84.614542 
L 136.534243 80.238355 
L 136.762843 69.740069 
L 136.808564 69.741948 
L 137.425784 69.637935 
L 138.088725 69.586585 
L 138.248745 69.570207 
L 138.523065 69.557506 
L 138.934546 69.538364 
L 139.163146 69.557384 
L 140.580467 69.558148 
L 143.803731 69.784343 
L 143.895171 69.862602 
L 144.009471 70.576842 
L 144.123771 72.924395 
L 144.535252 87.217242 
L 144.695272 87.364563 
L 145.289632 87.322682 
L 145.609673 87.340167 
L 145.838273 87.317648 
L 146.021245 87.332453 
L 146.226893 87.315358 
L 146.386914 87.31958 
L 146.889834 87.333013 
L 147.438475 87.336426 
L 149.335857 87.831879 
L 149.450157 87.804448 
L 149.541597 87.501951 
L 149.633037 86.37491 
L 149.724477 82.511759 
L 149.884497 71.148466 
L 149.930217 71.171968 
L 150.410278 71.068996 
L 150.638878 71.081832 
L 150.958918 70.999139 
L 152.44482 70.997584 
L 153.290641 71.0158 
L 153.519241 70.940332 
L 153.953582 70.860241 
L 154.296482 70.833102 
L 155.165163 70.831345 
L 155.462343 70.858402 
L 156.079564 70.924259 
L 156.308164 70.945152 
L 156.673924 70.948511 
L 157.382585 71.201087 
L 157.474025 71.778606 
L 157.588325 74.983034 
L 157.862646 87.738493 
L 157.908366 87.816384 
L 157.976946 87.716824 
L 158.228406 87.422833 
L 158.777047 87.31932 
L 159.188527 87.32668 
L 159.348547 87.306824 
L 159.965768 87.320457 
L 160.743009 87.317905 
L 160.948749 87.324074 
L 162.526091 87.598843 
L 162.777551 87.86435 
L 163.006151 88.264509 
L 163.029011 88.240175 
L 163.051871 88.202137 
L 163.143311 86.927967 
L 163.211891 83.454829 
L 163.326191 76.965907 
L 163.371911 76.973532 
L 163.646232 76.931245 
L 163.829112 76.906972 
L 164.057712 76.911873 
L 166.823775 76.661547 
L 167.052375 76.646981 
L 167.418136 76.615888 
L 167.578156 76.625439 
L 167.852476 76.616104 
L 170.321359 76.827172 
L 170.458519 77.233807 
L 170.504239 77.875093 
L 170.618539 82.86888 
L 170.733125 88.219488 
L 170.757082 88.046043 
L 170.9843 87.357009 
L 171.4415 87.311122 
L 172.538781 87.31505 
L 172.675941 87.319067 
L 174.047543 87.325585 
L 174.687623 87.319523 
L 175.053384 87.317247 
L 175.602024 87.315951 
L 175.762045 87.328671 
L 176.059225 87.319512 
L 176.424985 87.327763 
L 177.019346 87.318786 
L 177.430826 87.331159 
L 177.819447 87.336554 
L 179.236768 87.344039 
L 179.396788 87.330096 
L 182.185711 87.33449 
L 182.391452 87.341912 
L 183.854493 87.336814 
L 184.151673 87.333849 
L 184.837474 87.339665 
L 185.294675 87.331194 
L 195.238785 87.341891 
L 195.398805 87.355621 
L 195.650266 87.351087 
L 202.508273 87.364552 
L 202.508273 87.364552 
" clip-path="url(#p2d64c83f11)" style="fill: none; stroke: #1f77b4; stroke-width: 1.5; stroke-linecap: square"/>
   </g>
   <g id="line2d_18">
    <path d="M 64.433727 87.470945 
L 64.479447 91.953374 
L 64.525167 90.840469 
L 64.708048 90.47244 
L 64.822348 90.435678 
L 64.868068 87.297054 
L 64.959508 87.340007 
L 65.279548 87.341066 
L 65.873909 87.342253 
L 66.102509 87.359425 
L 66.262529 87.343573 
L 66.74259 87.35646 
L 67.999891 87.3559 
L 68.137051 87.369317 
L 68.388511 87.361676 
L 70.080153 87.378269 
L 70.354474 87.37532 
L 70.605934 87.372147 
L 86.950851 87.525776 
L 87.065151 87.240717 
L 87.179451 86.12741 
L 87.248031 83.879914 
L 87.339471 73.140653 
L 87.636652 20.285357 
L 87.819532 20.083017 
L 88.299592 19.852584 
L 88.642493 19.282771 
L 89.465454 18.22 
L 89.627257 18.243725 
L 90.791335 18.653679 
L 91.134235 18.903234 
L 91.911476 19.263169 
L 92.162936 19.264386 
L 92.368677 19.249245 
L 92.871597 19.265129 
L 93.100197 19.319745 
L 93.214498 19.380173 
L 93.900298 19.593566 
L 93.991738 19.621212 
L 95.24904 20.534203 
L 95.40906 20.70593 
L 95.52336 21.471419 
L 95.68338 29.694057 
L 95.82054 57.405081 
L 96.026281 85.8985 
L 96.209161 87.344616 
L 96.437761 87.318124 
L 96.666361 87.265574 
L 96.894961 87.265599 
L 97.123562 87.2804 
L 97.283582 87.28239 
L 97.283582 87.28239 
L 105.604631 87.555626 
L 105.833231 87.680566 
L 106.061831 87.654735 
L 106.176131 87.362772 
L 106.290431 86.285874 
L 106.404731 81.83854 
L 106.519032 55.252914 
L 106.679052 35.451158 
L 106.793352 35.398496 
L 106.976232 35.160019 
L 107.364852 35.118733 
L 107.570593 34.894715 
L 108.096373 34.03298 
L 108.507854 33.788691 
L 109.056494 33.6211 
L 109.353675 33.403233 
L 109.605135 33.27154 
L 109.810875 33.104875 
L 109.902315 33.05585 
L 110.085195 32.965281 
L 110.519536 32.86869 
L 110.633836 32.846986 
L 112.805538 32.48791 
L 113.971399 32.578012 
L 114.0857 32.932722 
L 114.17714 34.164889 
L 114.24572 37.646484 
L 114.33716 55.990331 
L 114.5429 86.707509 
L 114.6572 87.459589 
L 114.68006 87.448778 
L 114.90866 87.243477 
L 115.297281 87.172626 
L 115.640181 87.200654 
L 115.937362 87.2122 
L 116.280262 87.22352 
L 116.988923 87.252062 
L 117.286103 87.272694 
L 117.674723 87.272891 
L 119.457805 87.459239 
L 119.983586 88.099861 
L 120.143606 88.834318 
L 120.326486 90.968702 
L 120.486506 96.67358 
L 120.623666 111.944609 
L 120.760827 117.474873 
L 120.897987 117.455859 
L 121.515207 117.373003 
L 121.835248 117.417506 
L 122.223868 117.408949 
L 122.452468 117.458427 
L 124.02981 117.36917 
L 124.30413 117.355875 
L 127.298793 117.230935 
L 127.527394 117.26459 
L 128.007454 117.26584 
L 128.213194 117.299698 
L 128.830415 117.420562 
L 129.104735 117.404069 
L 129.173315 116.876489 
L 129.264756 113.121938 
L 129.607656 89.168231 
L 129.836256 87.568599 
L 130.110576 87.274508 
L 130.430617 87.232287 
L 134.774021 87.614697 
L 135.551262 88.188144 
L 135.802722 88.694613 
L 136.008463 89.54865 
L 136.191343 91.087524 
L 136.397083 94.795956 
L 136.557103 101.901295 
L 136.739983 110.226317 
L 136.762843 110.219537 
L 136.922864 110.218077 
L 137.425784 110.12855 
L 137.722964 110.045227 
L 138.431625 109.884024 
L 140.511887 109.852971 
L 140.649048 109.828084 
L 141.014808 109.813504 
L 141.380568 109.817397 
L 141.540589 109.830355 
L 142.59215 109.92018 
L 142.84361 109.955443 
L 143.20937 109.999027 
L 143.826591 110.030979 
L 143.940891 109.839818 
L 144.078051 108.661009 
L 144.169491 105.23674 
L 144.512392 89.035086 
L 144.718132 87.665139 
L 144.923872 87.371419 
L 145.312492 87.275949 
L 146.912694 87.2969 
L 147.209874 87.321302 
L 147.712795 87.388073 
L 147.918535 87.465494 
L 148.215716 87.594213 
L 148.741496 88.060648 
L 148.992956 88.681363 
L 149.175837 89.672035 
L 149.381577 92.280902 
L 149.541597 97.773439 
L 149.678757 111.848897 
L 149.907357 154.195951 
L 149.998797 154.132021 
L 150.524578 154.363393 
L 150.890338 154.413541 
L 151.073219 154.456666 
L 151.850459 154.205137 
L 152.07906 154.047624 
L 152.35338 153.899621 
L 152.65056 153.704452 
L 153.199201 153.694489 
L 153.496381 153.820388 
L 153.793561 153.984884 
L 154.045022 154.13071 
L 155.142303 154.229863 
L 155.622363 154.148669 
L 155.919544 154.111216 
L 156.125284 154.050652 
L 156.308164 154.114562 
L 156.331024 154.085321 
L 156.651064 154.145898 
L 156.788225 154.097785 
L 157.062545 154.108472 
L 157.382585 153.66975 
L 157.474025 152.223028 
L 157.588325 143.779589 
L 157.999806 89.300131 
L 158.228406 87.639779 
L 158.434146 87.351853 
L 159.051367 87.247295 
L 159.691448 87.28981 
L 159.874328 87.270354 
L 162.00031 87.518659 
L 162.434651 88.027802 
L 162.640391 88.825917 
L 162.846131 91.252985 
L 162.983291 95.694158 
L 163.120451 110.251942 
L 163.394772 166.026124 
L 163.463352 166.020717 
L 163.691952 166.1897 
L 165.223573 166.606752 
L 165.360734 166.556935 
L 165.726494 166.467509 
L 166.092254 166.347193 
L 166.526595 166.229378 
L 167.440996 166.313937 
L 167.532436 166.326442 
L 168.675437 166.412353 
L 168.812597 166.377813 
L 168.949757 166.40485 
L 169.132638 166.426615 
L 169.909878 166.464603 
L 170.092759 166.354763 
L 170.321359 165.8566 
L 170.458519 164.366097 
L 170.504239 161.688857 
L 170.618539 139.119739 
L 170.824279 88.856226 
L 170.9843 87.308659 
L 171.19004 87.149883 
L 171.41864 87.16196 
L 171.5558 87.160954 
L 173.270302 87.251533 
L 173.476042 87.247688 
L 174.299003 87.290277 
L 174.504743 87.283762 
L 174.756203 87.302458 
L 174.984804 87.275883 
L 175.144824 87.305506 
L 175.373424 87.308511 
L 178.185207 87.357743 
L 178.345227 87.344232 
L 179.579669 87.362971 
L 179.808269 87.36685 
L 180.059729 87.369456 
L 180.402629 87.360946 
L 181.01985 87.376575 
L 182.597192 87.370389 
L 182.848652 87.3852 
L 183.214412 87.385292 
L 184.037373 87.400858 
L 184.311694 87.392695 
L 202.508273 87.43834 
L 202.508273 87.43834 
" clip-path="url(#p2d64c83f11)" style="fill: none; stroke: #ff7f0e; stroke-width: 1.5; stroke-linecap: square"/>
   </g>
   <g id="patch_3">
    <path d="M 57.53 174.04 
L 57.53 10.8 
" style="fill: none; stroke: #000000; stroke-width: 0.8; stroke-linejoin: miter; stroke-linecap: square"/>
   </g>
   <g id="patch_4">
    <path d="M 209.412 174.04 
L 209.412 10.8 
" style="fill: none; stroke: #000000; stroke-width: 0.8; stroke-linejoin: miter; stroke-linecap: square"/>
   </g>
   <g id="patch_5">
    <path d="M 57.53 174.04 
L 209.412 174.04 
" style="fill: none; stroke: #000000; stroke-width: 0.8; stroke-linejoin: miter; stroke-linecap: square"/>
   </g>
   <g id="patch_6">
    <path d="M 57.53 10.8 
L 209.412 10.8 
" style="fill: none; stroke: #000000; stroke-width: 0.8; stroke-linejoin: miter; stroke-linecap: square"/>
   </g>
   <g id="legend_1">
    <g id="patch_7">
     <path d="M 159.112 49.176562 
L 202.412 49.176562 
Q 204.412 49.176562 204.412 47.176562 
L 204.412 17.8 
Q 204.412 15.8 202.412 15.8 
L 159.112 15.8 
Q 157.112 15.8 157.112 17.8 
L 157.112 47.176562 
Q 157.112 49.176562 159.112 49.176562 
z
" style="fill: #ffffff; opacity: 0.8; stroke: #cccccc; stroke-linejoin: miter"/>
    </g>
    <g id="line2d_19">
     <path d="M 161.112 23.898438 
L 171.112 23.898438 
L 181.112 23.898438 
" style="fill: none; stroke: #1f77b4; stroke-width: 1.5; stroke-linecap: square"/>
    </g>
    <g id="text_11">
     <!-- $V_x$ -->
     <g transform="translate(189.112 27.398438) scale(0.1 -0.1)">
      <defs>
       <path id="DejaVuSans-Oblique-78" d="M 3841 3500 
L 2234 1784 
L 3219 0 
L 2559 0 
L 1819 1388 
L 531 0 
L -166 0 
L 1556 1844 
L 641 3500 
L 1300 3500 
L 1972 2234 
L 3144 3500 
L 3841 3500 
z
" transform="scale(0.015625)"/>
      </defs>
      <use xlink:href="#DejaVuSans-Oblique-56" transform="translate(0 0.09375)"/>
      <use xlink:href="#DejaVuSans-Oblique-78" transform="translate(68.408203 -16.3125) scale(0.7)"/>
     </g>
    </g>
    <g id="line2d_20">
     <path d="M 161.112 38.576562 
L 171.112 38.576562 
L 181.112 38.576562 
" style="fill: none; stroke: #ff7f0e; stroke-width: 1.5; stroke-linecap: square"/>
    </g>
    <g id="text_12">
     <!-- $V_y$ -->
     <g transform="translate(189.112 42.076562) scale(0.1 -0.1)">
      <defs>
       <path id="DejaVuSans-Oblique-79" d="M 1588 -325 
Q 1188 -997 936 -1164 
Q 684 -1331 294 -1331 
L -159 -1331 
L -63 -850 
L 269 -850 
Q 509 -850 678 -719 
Q 847 -588 1056 -206 
L 1234 128 
L 459 3500 
L 1069 3500 
L 1650 819 
L 3256 3500 
L 3859 3500 
L 1588 -325 
z
" transform="scale(0.015625)"/>
      </defs>
      <use xlink:href="#DejaVuSans-Oblique-56" transform="translate(0 0.09375)"/>
      <use xlink:href="#DejaVuSans-Oblique-79" transform="translate(68.408203 -16.3125) scale(0.7)"/>
     </g>
    </g>
   </g>
  </g>
  <g id="axes_2">
   <g id="patch_8">
    <path d="M 269.318 168.361 
L 421.2 168.361 
L 421.2 16.479 
L 269.318 16.479 
z
" style="fill: #ffffff"/>
   </g>
   <g id="matplotlib.axis_3">
    <g id="xtick_4">
     <g id="line2d_21">
      <path d="M 286.842846 168.361 
L 286.842846 16.479 
" clip-path="url(#p0612de50e6)" style="fill: none; stroke: #b0b0b0; stroke-width: 0.8; stroke-linecap: square"/>
     </g>
     <g id="line2d_22">
      <g>
       <use xlink:href="#m6e9498b0af" x="286.842846" y="168.361" style="stroke: #000000; stroke-width: 0.8"/>
      </g>
     </g>
     <g id="text_13">
      <!-- −1 -->
      <g transform="translate(279.471752 182.959437) scale(0.1 -0.1)">
       <use xlink:href="#DejaVuSans-2212"/>
       <use xlink:href="#DejaVuSans-31" x="83.789062"/>
      </g>
     </g>
    </g>
    <g id="xtick_5">
     <g id="line2d_23">
      <path d="M 345.259 168.361 
L 345.259 16.479 
" clip-path="url(#p0612de50e6)" style="fill: none; stroke: #b0b0b0; stroke-width: 0.8; stroke-linecap: square"/>
     </g>
     <g id="line2d_24">
      <g>
       <use xlink:href="#m6e9498b0af" x="345.259" y="168.361" style="stroke: #000000; stroke-width: 0.8"/>
      </g>
     </g>
     <g id="text_14">
      <!-- 0 -->
      <g transform="translate(342.07775 182.959437) scale(0.1 -0.1)">
       <use xlink:href="#DejaVuSans-30"/>
      </g>
     </g>
    </g>
    <g id="xtick_6">
     <g id="line2d_25">
      <path d="M 403.675154 168.361 
L 403.675154 16.479 
" clip-path="url(#p0612de50e6)" style="fill: none; stroke: #b0b0b0; stroke-width: 0.8; stroke-linecap: square"/>
     </g>
     <g id="line2d_26">
      <g>
       <use xlink:href="#m6e9498b0af" x="403.675154" y="168.361" style="stroke: #000000; stroke-width: 0.8"/>
      </g>
     </g>
     <g id="text_15">
      <!-- 1 -->
      <g transform="translate(400.493904 182.959437) scale(0.1 -0.1)">
       <use xlink:href="#DejaVuSans-31"/>
      </g>
     </g>
    </g>
    <g id="text_16">
     <!-- $V_x$ (V) -->
     <g transform="translate(330.709 196.637563) scale(0.1 -0.1)">
      <use xlink:href="#DejaVuSans-Oblique-56" transform="translate(0 0.125)"/>
      <use xlink:href="#DejaVuSans-Oblique-78" transform="translate(68.408203 -16.28125) scale(0.7)"/>
      <use xlink:href="#DejaVuSans-20" transform="translate(112.568359 0.125)"/>
      <use xlink:href="#DejaVuSans-28" transform="translate(144.355469 0.125)"/>
      <use xlink:href="#DejaVuSans-56" transform="translate(183.369141 0.125)"/>
      <use xlink:href="#DejaVuSans-29" transform="translate(251.777344 0.125)"/>
     </g>
    </g>
   </g>
   <g id="matplotlib.axis_4">
    <g id="ytick_6">
     <g id="line2d_27">
      <path d="M 269.318 150.836154 
L 421.2 150.836154 
" clip-path="url(#p0612de50e6)" style="fill: none; stroke: #b0b0b0; stroke-width: 0.8; stroke-linecap: square"/>
     </g>
     <g id="line2d_28">
      <g>
       <use xlink:href="#m9cb052a061" x="269.318" y="150.836154" style="stroke: #000000; stroke-width: 0.8"/>
      </g>
     </g>
     <g id="text_17">
      <!-- −1.0 -->
      <g transform="translate(238.035187 154.635373) scale(0.1 -0.1)">
       <use xlink:href="#DejaVuSans-2212"/>
       <use xlink:href="#DejaVuSans-31" x="83.789062"/>
       <use xlink:href="#DejaVuSans-2e" x="147.412109"/>
       <use xlink:href="#DejaVuSans-30" x="179.199219"/>
      </g>
     </g>
    </g>
    <g id="ytick_7">
     <g id="line2d_29">
      <path d="M 269.318 121.628077 
L 421.2 121.628077 
" clip-path="url(#p0612de50e6)" style="fill: none; stroke: #b0b0b0; stroke-width: 0.8; stroke-linecap: square"/>
     </g>
     <g id="line2d_30">
      <g>
       <use xlink:href="#m9cb052a061" x="269.318" y="121.628077" style="stroke: #000000; stroke-width: 0.8"/>
      </g>
     </g>
     <g id="text_18">
      <!-- −0.5 -->
      <g transform="translate(238.035187 125.427296) scale(0.1 -0.1)">
       <use xlink:href="#DejaVuSans-2212"/>
       <use xlink:href="#DejaVuSans-30" x="83.789062"/>
       <use xlink:href="#DejaVuSans-2e" x="147.412109"/>
       <use xlink:href="#DejaVuSans-35" x="179.199219"/>
      </g>
     </g>
    </g>
    <g id="ytick_8">
     <g id="line2d_31">
      <path d="M 269.318 92.42 
L 421.2 92.42 
" clip-path="url(#p0612de50e6)" style="fill: none; stroke: #b0b0b0; stroke-width: 0.8; stroke-linecap: square"/>
     </g>
     <g id="line2d_32">
      <g>
       <use xlink:href="#m9cb052a061" x="269.318" y="92.42" style="stroke: #000000; stroke-width: 0.8"/>
      </g>
     </g>
     <g id="text_19">
      <!-- 0.0 -->
      <g transform="translate(246.414875 96.219219) scale(0.1 -0.1)">
       <use xlink:href="#DejaVuSans-30"/>
       <use xlink:href="#DejaVuSans-2e" x="63.623047"/>
       <use xlink:href="#DejaVuSans-30" x="95.410156"/>
      </g>
     </g>
    </g>
    <g id="ytick_9">
     <g id="line2d_33">
      <path d="M 269.318 63.211923 
L 421.2 63.211923 
" clip-path="url(#p0612de50e6)" style="fill: none; stroke: #b0b0b0; stroke-width: 0.8; stroke-linecap: square"/>
     </g>
     <g id="line2d_34">
      <g>
       <use xlink:href="#m9cb052a061" x="269.318" y="63.211923" style="stroke: #000000; stroke-width: 0.8"/>
      </g>
     </g>
     <g id="text_20">
      <!-- 0.5 -->
      <g transform="translate(246.414875 67.011142) scale(0.1 -0.1)">
       <use xlink:href="#DejaVuSans-30"/>
       <use xlink:href="#DejaVuSans-2e" x="63.623047"/>
       <use xlink:href="#DejaVuSans-35" x="95.410156"/>
      </g>
     </g>
    </g>
    <g id="ytick_10">
     <g id="line2d_35">
      <path d="M 269.318 34.003846 
L 421.2 34.003846 
" clip-path="url(#p0612de50e6)" style="fill: none; stroke: #b0b0b0; stroke-width: 0.8; stroke-linecap: square"/>
     </g>
     <g id="line2d_36">
      <g>
       <use xlink:href="#m9cb052a061" x="269.318" y="34.003846" style="stroke: #000000; stroke-width: 0.8"/>
      </g>
     </g>
     <g id="text_21">
      <!-- 1.0 -->
      <g transform="translate(246.414875 37.803065) scale(0.1 -0.1)">
       <use xlink:href="#DejaVuSans-31"/>
       <use xlink:href="#DejaVuSans-2e" x="63.623047"/>
       <use xlink:href="#DejaVuSans-30" x="95.410156"/>
      </g>
     </g>
    </g>
    <g id="text_22">
     <!-- $V_y$ (V) -->
     <g transform="translate(230.935187 106.97) rotate(-90) scale(0.1 -0.1)">
      <use xlink:href="#DejaVuSans-Oblique-56" transform="translate(0 0.125)"/>
      <use xlink:href="#DejaVuSans-Oblique-79" transform="translate(68.408203 -16.28125) scale(0.7)"/>
      <use xlink:href="#DejaVuSans-20" transform="translate(112.568359 0.125)"/>
      <use xlink:href="#DejaVuSans-28" transform="translate(144.355469 0.125)"/>
      <use xlink:href="#DejaVuSans-56" transform="translate(183.369141 0.125)"/>
      <use xlink:href="#DejaVuSans-29" transform="translate(251.777344 0.125)"/>
     </g>
    </g>
   </g>
   <g id="line2d_37">
    <path d="M 345.259 92.42 
L 342.417758 96.293842 
L 344.468119 95.332038 
L 344.320995 95.236161 
L 344.694512 95.192309 
L 344.736126 94.976075 
L 344.737795 94.982207 
L 345.301316 92.269719 
L 345.358156 92.477753 
L 345.633356 92.534784 
L 346.32302 92.300306 
L 347.332556 91.568665 
L 348.117788 90.831914 
L 349.410165 89.316529 
L 351.419433 86.506025 
L 352.858352 84.185262 
L 355.176264 80.035355 
L 357.766588 74.934374 
L 368.032619 51.467682 
L 375.455321 32.830499 
L 375.529112 32.571365 
L 375.355925 32.946163 
L 374.207119 36.066924 
L 369.704624 47.244674 
L 363.685359 61.720354 
L 358.972852 72.234812 
L 354.654567 80.877955 
L 351.421378 86.351549 
L 349.148537 89.497595 
L 347.279419 91.449759 
L 346.139722 92.203034 
L 345.475178 92.309889 
L 345.337745 92.241699 
L 345.357144 92.374716 
L 345.353482 92.372567 
L 345.468199 92.493183 
L 345.660221 92.60116 
L 346.074894 92.605593 
L 346.764669 92.406354 
L 347.687024 91.909089 
L 348.405035 91.395828 
L 350.198759 89.733381 
L 352.111846 87.552315 
L 355.517753 82.869999 
L 357.818789 79.313244 
L 361.234346 73.529758 
L 366.106399 64.576262 
L 374.062603 48.782946 
L 375.196333 46.13656 
L 375.239093 45.899858 
L 375.336864 45.742239 
L 375.802312 44.887255 
L 375.788725 44.916375 
L 375.790232 44.93404 
L 375.877144 44.822477 
L 375.891946 44.835258 
L 375.91252 44.8386 
L 375.875099 44.932311 
L 374.46533 47.836651 
L 370.962861 54.901793 
L 365.692784 65.213558 
L 359.355157 76.618232 
L 356.680643 80.945969 
L 354.293444 84.496129 
L 352.212643 87.255748 
L 350.646066 89.081773 
L 348.336658 91.259157 
L 347.001554 92.095118 
L 346.108408 92.400363 
L 345.588031 92.32377 
L 345.370326 92.170255 
L 345.368656 92.31317 
L 345.343833 92.460299 
L 345.396367 93.889693 
L 345.987211 96.406374 
L 346.79406 98.448115 
L 348.468086 101.674591 
L 349.335464 103.126606 
L 350.622133 105.060864 
L 352.460339 107.583157 
L 357.472679 113.570836 
L 359.928955 116.199084 
L 362.290171 118.336035 
L 362.529087 118.23338 
L 362.340146 118.191122 
L 362.353506 118.262962 
L 362.218734 118.289056 
L 360.768378 116.82749 
L 356.982228 112.826176 
L 353.554707 108.77709 
L 350.454936 104.615979 
L 348.113985 100.821072 
L 346.688618 97.961252 
L 345.729223 95.255529 
L 345.363605 93.349973 
L 345.356271 92.504395 
L 345.39021 92.208353 
L 345.433235 93.529827 
L 345.545868 93.994172 
L 345.888311 95.134726 
L 346.534905 96.664794 
L 347.727585 98.750483 
L 349.180938 100.86548 
L 350.600625 102.62824 
L 352.627421 104.891119 
L 355.719143 107.959123 
L 359.779807 111.511935 
L 360.650038 112.073724 
L 360.650009 112.069097 
L 360.687325 111.708798 
L 360.575394 111.92912 
L 360.47663 111.872912 
L 359.389488 110.999859 
L 355.688153 107.773705 
L 352.981411 105.109163 
L 349.360287 100.93853 
L 347.744016 98.623486 
L 346.32648 96.062158 
L 345.536086 93.771776 
L 345.361455 92.490898 
L 345.382639 92.227823 
L 345.103147 93.810516 
L 345.019054 95.049279 
L 344.93987 96.576902 
L 345.137241 100.363288 
L 345.378575 102.586087 
L 346.206224 107.932567 
L 347.381099 113.488119 
L 348.341765 117.393934 
L 349.544869 121.801193 
L 353.401879 133.941034 
L 355.579177 140.118092 
L 359.508114 150.322226 
L 359.513032 150.307044 
L 359.562575 150.335895 
L 359.581852 150.222913 
L 359.488439 149.729799 
L 359.445182 149.582707 
L 359.591351 149.905257 
L 359.572465 149.903236 
L 359.68057 150.191806 
L 359.4982 149.976928 
L 359.500852 150.010044 
L 359.366303 149.70347 
L 359.194623 149.318847 
L 353.41476 133.693647 
L 350.215179 123.805761 
L 347.718713 114.676648 
L 346.715266 110.225886 
L 345.634212 104.282393 
L 345.140123 100.097986 
L 344.960462 96.182851 
L 345.316338 92.436843 
L 345.384299 92.255464 
L 345.376017 92.226736 
L 345.408345 92.271436 
L 345.359535 92.350443 
L 345.313988 92.517538 
L 345.184836 93.009171 
L 344.973848 94.232327 
L 344.685417 96.607221 
L 344.573179 100.76629 
L 344.627083 103.897647 
L 345.233205 112.107985 
L 345.728257 116.60038 
L 346.391654 121.35997 
L 347.351026 127.340359 
L 348.729842 134.897762 
L 354.364793 160.427327 
L 354.48034 160.74254 
L 354.47756 160.724256 
L 354.547782 160.822863 
L 354.586734 160.730565 
L 354.594415 160.739795 
L 354.598867 160.59539 
L 354.591845 160.458171 
L 354.602827 160.783198 
L 354.537705 160.454257 
L 354.457652 160.163111 
L 351.577683 148.104755 
L 349.236235 137.056356 
L 345.834552 116.847305 
L 344.997059 108.930543 
L 344.649039 103.33181 
L 344.612088 99.448842 
L 344.761984 96.002253 
L 345.275013 92.506504 
L 345.396212 92.132123 
L 345.350948 92.391822 
" clip-path="url(#p0612de50e6)" style="fill: none; stroke: #1f77b4; stroke-width: 1.5; stroke-linecap: square"/>
   </g>
   <g id="patch_9">
    <path d="M 269.318 168.361 
L 269.318 16.479 
" style="fill: none; stroke: #000000; stroke-width: 0.8; stroke-linejoin: miter; stroke-linecap: square"/>
   </g>
   <g id="patch_10">
    <path d="M 421.2 168.361 
L 421.2 16.479 
" style="fill: none; stroke: #000000; stroke-width: 0.8; stroke-linejoin: miter; stroke-linecap: square"/>
   </g>
   <g id="patch_11">
    <path d="M 269.318 168.361 
L 421.2 168.361 
" style="fill: none; stroke: #000000; stroke-width: 0.8; stroke-linejoin: miter; stroke-linecap: square"/>
   </g>
   <g id="patch_12">
    <path d="M 269.318 16.479 
L 421.2 16.479 
" style="fill: none; stroke: #000000; stroke-width: 0.8; stroke-linejoin: miter; stroke-linecap: square"/>
   </g>
  </g>
 </g>
 <defs>
  <clipPath id="p2d64c83f11">
   <rect x="57.53" y="10.8" width="151.882" height="163.24"/>
  </clipPath>
  <clipPath id="p0612de50e6">
   <rect x="269.318" y="16.479" width="151.882" height="151.882"/>
  </clipPath>
 </defs>
</svg>
