<?xml version="1.0" encoding="utf-8" standalone="no"?>
<!DOCTYPE svg PUBLIC "-//W3C//DTD SVG 1.1//EN"
  "http://www.w3.org/Graphics/SVG/1.1/DTD/svg11.dtd">
<svg xmlns:xlink="http://www.w3.org/1999/xlink" width="432pt" height="216pt" viewBox="0 0 432 216" xmlns="http://www.w3.org/2000/svg" version="1.1">
 <metadata>
  <rdf:RDF xmlns:dc="http://purl.org/dc/elements/1.1/" xmlns:cc="http://creativecommons.org/ns#" xmlns:rdf="http://www.w3.org/1999/02/22-rdf-syntax-ns#">
   <cc:Work>
    <dc:type rdf:resource="http://purl.org/dc/dcmitype/StillImage"/>
    <dc:date>2025-10-06T12:26:32.814215</dc:date>
    <dc:format>image/svg+xml</dc:format>
    <dc:creator>
     <cc:Agent>
      <dc:title>Matplotlib v3.9.1, https://matplotlib.org/</dc:title>
     </cc:Agent>
    </dc:creator>
   </cc:Work>
  </rdf:RDF>
 </metadata>
 <defs>
  <style type="text/css">*{stroke-linejoin: round; stroke-linecap: butt}</style>
 </defs>
 <g id="figure_1">
  <g id="patch_1">
   <path d="M 0 216 
L 432 216 
L 432 0 
L 0 0 
z
" style="fill: #ffffff"/>
  </g>
  <g id="axes_1">
   <g id="patch_2">
    <path d="M 48.08 174.04 
L 207.32184 174.04 
L 207.32184 10.8 
L 48.08 10.8 
z
" style="fill: #ffffff"/>
   </g>
   <g id="matplotlib.axis_1">
    <g id="xtick_1">
     <g id="line2d_1">
      <path d="M 55.318263 174.04 
L 55.318263 10.8 
" clip-path="url(#p2de55cfed1)" style="fill: none; stroke: #b0b0b0; stroke-width: 0.8; stroke-linecap: square"/>
     </g>
     <g id="line2d_2">
      <defs>
       <path id="m271f05e551" d="M 0 0 
L 0 3.5 
" style="stroke: #000000; stroke-width: 0.8"/>
      </defs>
      <g>
       <use xlink:href="#m271f05e551" x="55.318263" y="174.04" style="stroke: #000000; stroke-width: 0.8"/>
      </g>
     </g>
     <g id="text_1">
      <!-- 0.0 -->
      <g transform="translate(47.3667 188.638438) scale(0.1 -0.1)">
       <defs>
        <path id="DejaVuSans-30" d="M 2034 4250 
Q 1547 4250 1301 3770 
Q 1056 3291 1056 2328 
Q 1056 1369 1301 889 
Q 1547 409 2034 409 
Q 2525 409 2770 889 
Q 3016 1369 3016 2328 
Q 3016 3291 2770 3770 
Q 2525 4250 2034 4250 
z
M 2034 4750 
Q 2819 4750 3233 4129 
Q 3647 3509 3647 2328 
Q 3647 1150 3233 529 
Q 2819 -91 2034 -91 
Q 1250 -91 836 529 
Q 422 1150 422 2328 
Q 422 3509 836 4129 
Q 1250 4750 2034 4750 
z
" transform="scale(0.015625)"/>
        <path id="DejaVuSans-2e" d="M 684 794 
L 1344 794 
L 1344 0 
L 684 0 
L 684 794 
z
" transform="scale(0.015625)"/>
       </defs>
       <use xlink:href="#DejaVuSans-30"/>
       <use xlink:href="#DejaVuSans-2e" x="63.623047"/>
       <use xlink:href="#DejaVuSans-30" x="95.410156"/>
      </g>
     </g>
    </g>
    <g id="xtick_2">
     <g id="line2d_3">
      <path d="M 91.51683 174.04 
L 91.51683 10.8 
" clip-path="url(#p2de55cfed1)" style="fill: none; stroke: #b0b0b0; stroke-width: 0.8; stroke-linecap: square"/>
     </g>
     <g id="line2d_4">
      <g>
       <use xlink:href="#m271f05e551" x="91.51683" y="174.04" style="stroke: #000000; stroke-width: 0.8"/>
      </g>
     </g>
     <g id="text_2">
      <!-- 2.5 -->
      <g transform="translate(83.565268 188.638438) scale(0.1 -0.1)">
       <defs>
        <path id="DejaVuSans-32" d="M 1228 531 
L 3431 531 
L 3431 0 
L 469 0 
L 469 531 
Q 828 903 1448 1529 
Q 2069 2156 2228 2338 
Q 2531 2678 2651 2914 
Q 2772 3150 2772 3378 
Q 2772 3750 2511 3984 
Q 2250 4219 1831 4219 
Q 1534 4219 1204 4116 
Q 875 4013 500 3803 
L 500 4441 
Q 881 4594 1212 4672 
Q 1544 4750 1819 4750 
Q 2544 4750 2975 4387 
Q 3406 4025 3406 3419 
Q 3406 3131 3298 2873 
Q 3191 2616 2906 2266 
Q 2828 2175 2409 1742 
Q 1991 1309 1228 531 
z
" transform="scale(0.015625)"/>
        <path id="DejaVuSans-35" d="M 691 4666 
L 3169 4666 
L 3169 4134 
L 1269 4134 
L 1269 2991 
Q 1406 3038 1543 3061 
Q 1681 3084 1819 3084 
Q 2600 3084 3056 2656 
Q 3513 2228 3513 1497 
Q 3513 744 3044 326 
Q 2575 -91 1722 -91 
Q 1428 -91 1123 -41 
Q 819 9 494 109 
L 494 744 
Q 775 591 1075 516 
Q 1375 441 1709 441 
Q 2250 441 2565 725 
Q 2881 1009 2881 1497 
Q 2881 1984 2565 2268 
Q 2250 2553 1709 2553 
Q 1456 2553 1204 2497 
Q 953 2441 691 2322 
L 691 4666 
z
" transform="scale(0.015625)"/>
       </defs>
       <use xlink:href="#DejaVuSans-32"/>
       <use xlink:href="#DejaVuSans-2e" x="63.623047"/>
       <use xlink:href="#DejaVuSans-35" x="95.410156"/>
      </g>
     </g>
    </g>
    <g id="xtick_3">
     <g id="line2d_5">
      <path d="M 127.715398 174.04 
L 127.715398 10.8 
" clip-path="url(#p2de55cfed1)" style="fill: none; stroke: #b0b0b0; stroke-width: 0.8; stroke-linecap: square"/>
     </g>
     <g id="line2d_6">
      <g>
       <use xlink:href="#m271f05e551" x="127.715398" y="174.04" style="stroke: #000000; stroke-width: 0.8"/>
      </g>
     </g>
     <g id="text_3">
      <!-- 5.0 -->
      <g transform="translate(119.763836 188.638438) scale(0.1 -0.1)">
       <use xlink:href="#DejaVuSans-35"/>
       <use xlink:href="#DejaVuSans-2e" x="63.623047"/>
       <use xlink:href="#DejaVuSans-30" x="95.410156"/>
      </g>
     </g>
    </g>
    <g id="xtick_4">
     <g id="line2d_7">
      <path d="M 163.913966 174.04 
L 163.913966 10.8 
" clip-path="url(#p2de55cfed1)" style="fill: none; stroke: #b0b0b0; stroke-width: 0.8; stroke-linecap: square"/>
     </g>
     <g id="line2d_8">
      <g>
       <use xlink:href="#m271f05e551" x="163.913966" y="174.04" style="stroke: #000000; stroke-width: 0.8"/>
      </g>
     </g>
     <g id="text_4">
      <!-- 7.5 -->
      <g transform="translate(155.962403 188.638438) scale(0.1 -0.1)">
       <defs>
        <path id="DejaVuSans-37" d="M 525 4666 
L 3525 4666 
L 3525 4397 
L 1831 0 
L 1172 0 
L 2766 4134 
L 525 4134 
L 525 4666 
z
" transform="scale(0.015625)"/>
       </defs>
       <use xlink:href="#DejaVuSans-37"/>
       <use xlink:href="#DejaVuSans-2e" x="63.623047"/>
       <use xlink:href="#DejaVuSans-35" x="95.410156"/>
      </g>
     </g>
    </g>
    <g id="xtick_5">
     <g id="line2d_9">
      <path d="M 200.112534 174.04 
L 200.112534 10.8 
" clip-path="url(#p2de55cfed1)" style="fill: none; stroke: #b0b0b0; stroke-width: 0.8; stroke-linecap: square"/>
     </g>
     <g id="line2d_10">
      <g>
       <use xlink:href="#m271f05e551" x="200.112534" y="174.04" style="stroke: #000000; stroke-width: 0.8"/>
      </g>
     </g>
     <g id="text_5">
      <!-- 10.0 -->
      <g transform="translate(188.979721 188.638438) scale(0.1 -0.1)">
       <defs>
        <path id="DejaVuSans-31" d="M 794 531 
L 1825 531 
L 1825 4091 
L 703 3866 
L 703 4441 
L 1819 4666 
L 2450 4666 
L 2450 531 
L 3481 531 
L 3481 0 
L 794 0 
L 794 531 
z
" transform="scale(0.015625)"/>
       </defs>
       <use xlink:href="#DejaVuSans-31"/>
       <use xlink:href="#DejaVuSans-30" x="63.623047"/>
       <use xlink:href="#DejaVuSans-2e" x="127.246094"/>
       <use xlink:href="#DejaVuSans-30" x="159.033203"/>
      </g>
     </g>
    </g>
    <g id="text_6">
     <!-- Time (s) -->
     <g transform="translate(107.372014 202.316563) scale(0.1 -0.1)">
      <defs>
       <path id="DejaVuSans-54" d="M -19 4666 
L 3928 4666 
L 3928 4134 
L 2272 4134 
L 2272 0 
L 1638 0 
L 1638 4134 
L -19 4134 
L -19 4666 
z
" transform="scale(0.015625)"/>
       <path id="DejaVuSans-69" d="M 603 3500 
L 1178 3500 
L 1178 0 
L 603 0 
L 603 3500 
z
M 603 4863 
L 1178 4863 
L 1178 4134 
L 603 4134 
L 603 4863 
z
" transform="scale(0.015625)"/>
       <path id="DejaVuSans-6d" d="M 3328 2828 
Q 3544 3216 3844 3400 
Q 4144 3584 4550 3584 
Q 5097 3584 5394 3201 
Q 5691 2819 5691 2113 
L 5691 0 
L 5113 0 
L 5113 2094 
Q 5113 2597 4934 2840 
Q 4756 3084 4391 3084 
Q 3944 3084 3684 2787 
Q 3425 2491 3425 1978 
L 3425 0 
L 2847 0 
L 2847 2094 
Q 2847 2600 2669 2842 
Q 2491 3084 2119 3084 
Q 1678 3084 1418 2786 
Q 1159 2488 1159 1978 
L 1159 0 
L 581 0 
L 581 3500 
L 1159 3500 
L 1159 2956 
Q 1356 3278 1631 3431 
Q 1906 3584 2284 3584 
Q 2666 3584 2933 3390 
Q 3200 3197 3328 2828 
z
" transform="scale(0.015625)"/>
       <path id="DejaVuSans-65" d="M 3597 1894 
L 3597 1613 
L 953 1613 
Q 991 1019 1311 708 
Q 1631 397 2203 397 
Q 2534 397 2845 478 
Q 3156 559 3463 722 
L 3463 178 
Q 3153 47 2828 -22 
Q 2503 -91 2169 -91 
Q 1331 -91 842 396 
Q 353 884 353 1716 
Q 353 2575 817 3079 
Q 1281 3584 2069 3584 
Q 2775 3584 3186 3129 
Q 3597 2675 3597 1894 
z
M 3022 2063 
Q 3016 2534 2758 2815 
Q 2500 3097 2075 3097 
Q 1594 3097 1305 2825 
Q 1016 2553 972 2059 
L 3022 2063 
z
" transform="scale(0.015625)"/>
       <path id="DejaVuSans-20" transform="scale(0.015625)"/>
       <path id="DejaVuSans-28" d="M 1984 4856 
Q 1566 4138 1362 3434 
Q 1159 2731 1159 2009 
Q 1159 1288 1364 580 
Q 1569 -128 1984 -844 
L 1484 -844 
Q 1016 -109 783 600 
Q 550 1309 550 2009 
Q 550 2706 781 3412 
Q 1013 4119 1484 4856 
L 1984 4856 
z
" transform="scale(0.015625)"/>
       <path id="DejaVuSans-73" d="M 2834 3397 
L 2834 2853 
Q 2591 2978 2328 3040 
Q 2066 3103 1784 3103 
Q 1356 3103 1142 2972 
Q 928 2841 928 2578 
Q 928 2378 1081 2264 
Q 1234 2150 1697 2047 
L 1894 2003 
Q 2506 1872 2764 1633 
Q 3022 1394 3022 966 
Q 3022 478 2636 193 
Q 2250 -91 1575 -91 
Q 1294 -91 989 -36 
Q 684 19 347 128 
L 347 722 
Q 666 556 975 473 
Q 1284 391 1588 391 
Q 1994 391 2212 530 
Q 2431 669 2431 922 
Q 2431 1156 2273 1281 
Q 2116 1406 1581 1522 
L 1381 1569 
Q 847 1681 609 1914 
Q 372 2147 372 2553 
Q 372 3047 722 3315 
Q 1072 3584 1716 3584 
Q 2034 3584 2315 3537 
Q 2597 3491 2834 3397 
z
" transform="scale(0.015625)"/>
       <path id="DejaVuSans-29" d="M 513 4856 
L 1013 4856 
Q 1481 4119 1714 3412 
Q 1947 2706 1947 2009 
Q 1947 1309 1714 600 
Q 1481 -109 1013 -844 
L 513 -844 
Q 928 -128 1133 580 
Q 1338 1288 1338 2009 
Q 1338 2731 1133 3434 
Q 928 4138 513 4856 
z
" transform="scale(0.015625)"/>
      </defs>
      <use xlink:href="#DejaVuSans-54"/>
      <use xlink:href="#DejaVuSans-69" x="57.958984"/>
      <use xlink:href="#DejaVuSans-6d" x="85.742188"/>
      <use xlink:href="#DejaVuSans-65" x="183.154297"/>
      <use xlink:href="#DejaVuSans-20" x="244.677734"/>
      <use xlink:href="#DejaVuSans-28" x="276.464844"/>
      <use xlink:href="#DejaVuSans-73" x="315.478516"/>
      <use xlink:href="#DejaVuSans-29" x="367.578125"/>
     </g>
    </g>
   </g>
   <g id="matplotlib.axis_2">
    <g id="ytick_1">
     <g id="line2d_11">
      <path d="M 48.08 153.610031 
L 207.32184 153.610031 
" clip-path="url(#p2de55cfed1)" style="fill: none; stroke: #b0b0b0; stroke-width: 0.8; stroke-linecap: square"/>
     </g>
     <g id="line2d_12">
      <defs>
       <path id="m7fbe30e28d" d="M 0 0 
L -3.5 0 
" style="stroke: #000000; stroke-width: 0.8"/>
      </defs>
      <g>
       <use xlink:href="#m7fbe30e28d" x="48.08" y="153.610031" style="stroke: #000000; stroke-width: 0.8"/>
      </g>
     </g>
     <g id="text_7">
      <!-- −2 -->
      <g transform="translate(26.337813 157.40925) scale(0.1 -0.1)">
       <defs>
        <path id="DejaVuSans-2212" d="M 678 2272 
L 4684 2272 
L 4684 1741 
L 678 1741 
L 678 2272 
z
" transform="scale(0.015625)"/>
       </defs>
       <use xlink:href="#DejaVuSans-2212"/>
       <use xlink:href="#DejaVuSans-32" x="83.789062"/>
      </g>
     </g>
    </g>
    <g id="ytick_2">
     <g id="line2d_13">
      <path d="M 48.08 119.27143 
L 207.32184 119.27143 
" clip-path="url(#p2de55cfed1)" style="fill: none; stroke: #b0b0b0; stroke-width: 0.8; stroke-linecap: square"/>
     </g>
     <g id="line2d_14">
      <g>
       <use xlink:href="#m7fbe30e28d" x="48.08" y="119.27143" style="stroke: #000000; stroke-width: 0.8"/>
      </g>
     </g>
     <g id="text_8">
      <!-- −1 -->
      <g transform="translate(26.337813 123.070649) scale(0.1 -0.1)">
       <use xlink:href="#DejaVuSans-2212"/>
       <use xlink:href="#DejaVuSans-31" x="83.789062"/>
      </g>
     </g>
    </g>
    <g id="ytick_3">
     <g id="line2d_15">
      <path d="M 48.08 84.932829 
L 207.32184 84.932829 
" clip-path="url(#p2de55cfed1)" style="fill: none; stroke: #b0b0b0; stroke-width: 0.8; stroke-linecap: square"/>
     </g>
     <g id="line2d_16">
      <g>
       <use xlink:href="#m7fbe30e28d" x="48.08" y="84.932829" style="stroke: #000000; stroke-width: 0.8"/>
      </g>
     </g>
     <g id="text_9">
      <!-- 0 -->
      <g transform="translate(34.7175 88.732047) scale(0.1 -0.1)">
       <use xlink:href="#DejaVuSans-30"/>
      </g>
     </g>
    </g>
    <g id="ytick_4">
     <g id="line2d_17">
      <path d="M 48.08 50.594227 
L 207.32184 50.594227 
" clip-path="url(#p2de55cfed1)" style="fill: none; stroke: #b0b0b0; stroke-width: 0.8; stroke-linecap: square"/>
     </g>
     <g id="line2d_18">
      <g>
       <use xlink:href="#m7fbe30e28d" x="48.08" y="50.594227" style="stroke: #000000; stroke-width: 0.8"/>
      </g>
     </g>
     <g id="text_10">
      <!-- 1 -->
      <g transform="translate(34.7175 54.393446) scale(0.1 -0.1)">
       <use xlink:href="#DejaVuSans-31"/>
      </g>
     </g>
    </g>
    <g id="ytick_5">
     <g id="line2d_19">
      <path d="M 48.08 16.255626 
L 207.32184 16.255626 
" clip-path="url(#p2de55cfed1)" style="fill: none; stroke: #b0b0b0; stroke-width: 0.8; stroke-linecap: square"/>
     </g>
     <g id="line2d_20">
      <g>
       <use xlink:href="#m7fbe30e28d" x="48.08" y="16.255626" style="stroke: #000000; stroke-width: 0.8"/>
      </g>
     </g>
     <g id="text_11">
      <!-- 2 -->
      <g transform="translate(34.7175 20.054845) scale(0.1 -0.1)">
       <use xlink:href="#DejaVuSans-32"/>
      </g>
     </g>
    </g>
    <g id="text_12">
     <!-- $V$ (V) -->
     <g transform="translate(20.258125 104.77) rotate(-90) scale(0.1 -0.1)">
      <defs>
       <path id="DejaVuSans-Oblique-56" d="M 1319 0 
L 500 4666 
L 1119 4666 
L 1797 653 
L 4063 4666 
L 4750 4666 
L 2053 0 
L 1319 0 
z
" transform="scale(0.015625)"/>
       <path id="DejaVuSans-56" d="M 1831 0 
L 50 4666 
L 709 4666 
L 2188 738 
L 3669 4666 
L 4325 4666 
L 2547 0 
L 1831 0 
z
" transform="scale(0.015625)"/>
      </defs>
      <use xlink:href="#DejaVuSans-Oblique-56" transform="translate(0 0.125)"/>
      <use xlink:href="#DejaVuSans-20" transform="translate(68.408203 0.125)"/>
      <use xlink:href="#DejaVuSans-28" transform="translate(100.195312 0.125)"/>
      <use xlink:href="#DejaVuSans-56" transform="translate(139.208984 0.125)"/>
      <use xlink:href="#DejaVuSans-29" transform="translate(207.617188 0.125)"/>
     </g>
    </g>
   </g>
   <g id="line2d_21">
    <path d="M 55.318265 84.862802 
L 56.766205 84.853593 
L 56.968917 84.866715 
L 59.777926 84.848717 
L 59.806885 84.908179 
L 59.893762 84.861387 
L 60.067515 84.870185 
L 60.241268 84.852731 
L 60.357103 84.852779 
L 60.559815 84.854747 
L 61.167951 84.866474 
L 61.573375 84.860228 
L 61.805046 84.89668 
L 61.978799 84.837311 
L 62.181511 84.869159 
L 62.500058 84.867229 
L 63.542577 84.849524 
L 63.687371 84.855826 
L 64.266549 84.869389 
L 64.411343 84.850723 
L 64.816767 84.860626 
L 64.99052 84.872598 
L 65.164273 84.874926 
L 65.309067 84.851999 
L 65.569697 84.901311 
L 65.772409 84.848467 
L 65.946162 84.874593 
L 66.583257 84.880112 
L 66.785969 84.885295 
L 66.988681 84.861719 
L 67.712652 84.879315 
L 67.944323 84.873043 
L 68.118076 84.85883 
L 71.04292 84.867975 
L 71.274591 84.866739 
L 71.448344 84.880826 
L 71.882727 84.881643 
L 71.998563 84.853684 
L 72.027521 84.886892 
L 72.375028 84.887176 
L 72.548781 84.865436 
L 72.722534 84.881789 
L 73.649217 84.865099 
L 73.765053 84.895527 
L 73.880888 84.87005 
L 74.112559 84.919009 
L 74.257353 84.90324 
L 74.633818 84.893361 
L 75.126119 84.930893 
L 75.299872 84.914036 
L 75.647378 84.912937 
L 75.792172 84.938269 
L 76.023843 84.911193 
L 76.11072 84.431045 
L 76.197596 81.443821 
L 76.37135 77.503751 
L 76.545103 77.083557 
L 76.979486 76.920489 
L 77.182197 76.886583 
L 77.529704 76.849934 
L 77.761375 76.813377 
L 77.964159 76.801619 
L 78.311593 76.792176 
L 78.745976 76.791778 
L 78.919729 76.795232 
L 79.412029 76.766714 
L 79.585782 76.759575 
L 79.701618 76.791459 
L 79.730577 76.761835 
L 80.049124 76.762412 
L 80.222877 76.772572 
L 80.570383 76.80563 
L 81.526026 76.910758 
L 81.641861 76.883946 
L 81.728738 76.913059 
L 81.757696 76.858316 
L 81.960408 76.904357 
L 82.307915 76.928222 
L 82.510627 76.920895 
L 82.887092 76.90684 
L 83.205639 76.868837 
L 83.350433 76.892922 
L 84.798376 77.109784 
L 85.059006 77.524928 
L 85.087965 77.525512 
L 85.2038 78.620243 
L 85.551306 84.864858 
L 85.725059 84.997015 
L 86.47799 84.901371 
L 86.709661 84.9299 
L 86.854455 84.887001 
L 87.144043 84.899752 
L 87.462591 84.903295 
L 87.549467 84.860207 
L 87.578426 84.903872 
L 87.868015 84.884196 
L 88.041768 84.899978 
L 88.157603 84.893214 
L 88.505109 84.899775 
L 88.707821 84.882682 
L 90.7639 84.887034 
L 90.792859 84.850755 
L 90.850777 84.921029 
L 91.02453 84.882773 
L 91.400995 84.913702 
L 91.748501 84.897956 
L 91.893295 84.900129 
L 92.009131 84.900992 
L 92.675184 84.876663 
L 92.704143 84.931411 
L 92.79102 84.881398 
L 93.05165 84.713081 
L 93.225403 83.64397 
L 93.341238 80.374482 
L 93.630827 69.174243 
L 93.920415 68.568219 
L 94.036251 68.49949 
L 94.267921 68.425868 
L 94.55751 68.399468 
L 94.702304 68.362699 
L 94.847099 68.366727 
L 95.078769 68.290543 
L 95.31044 68.293537 
L 95.600029 68.21814 
L 95.744823 68.244649 
L 95.947535 68.20845 
L 97.192766 68.156059 
L 97.453395 68.144319 
L 97.714025 68.138148 
L 97.887778 68.152574 
L 98.553832 68.293451 
L 98.814462 68.470862 
L 99.075091 68.665503 
L 99.219886 68.816215 
L 99.393639 69.357529 
L 99.480515 71.488809 
L 99.828021 83.990633 
L 100.030733 84.77038 
L 101.478676 84.900261 
L 101.652429 84.865896 
L 101.8841 84.89989 
L 102.14473 84.876396 
L 102.318483 84.876613 
L 102.550154 84.874691 
L 104.142891 84.878397 
L 104.287685 84.905361 
L 104.519356 84.873276 
L 104.837903 84.911807 
L 105.18541 84.881049 
L 105.388121 84.890555 
L 105.648751 84.875435 
L 105.851463 84.893214 
L 107.936501 84.715401 
L 108.19713 84.15823 
L 108.341925 82.971431 
L 108.486719 78.756372 
L 108.747349 67.560779 
L 108.892143 67.35792 
L 109.007978 67.324584 
L 109.268608 67.106455 
L 109.558196 67.027837 
L 109.674032 66.997763 
L 109.934662 66.972288 
L 110.166332 66.963126 
L 110.369044 66.958535 
L 110.542798 66.935652 
L 110.687592 66.92535 
L 111.759069 66.905877 
L 111.932823 66.869148 
L 112.425123 66.886997 
L 112.569917 66.879467 
L 113.120136 66.879378 
L 113.873066 66.881222 
L 114.046819 66.889047 
L 114.510161 66.876967 
L 114.683914 66.916195 
L 114.886626 66.919695 
L 115.118297 66.966862 
L 115.349967 66.963473 
L 115.465803 66.99925 
L 115.581638 67.026306 
L 115.813309 67.07042 
L 115.958103 67.10353 
L 116.073939 67.157462 
L 116.247692 67.543654 
L 116.334568 68.622652 
L 116.913745 84.249614 
L 117.116457 84.656185 
L 117.319169 84.827517 
L 117.492923 84.866538 
L 118.216894 84.903714 
L 118.361688 84.887472 
L 119.433166 84.890876 
L 119.896507 84.897486 
L 120.186096 84.882933 
L 120.33089 84.917741 
L 120.446726 84.901871 
L 120.649438 84.916197 
L 120.794232 84.924518 
L 120.967985 84.91186 
L 125.630361 84.706042 
L 125.833073 84.338455 
L 125.977867 83.361645 
L 126.093746 80.780904 
L 126.209538 71.383908 
L 126.354332 65.634332 
L 126.614962 65.245437 
L 127.42581 64.670695 
L 127.744357 64.68988 
L 127.91811 64.638866 
L 128.062904 64.697963 
L 128.17874 64.689931 
L 128.468328 64.719923 
L 128.613123 64.67624 
L 129.163341 64.644876 
L 129.829394 64.536805 
L 130.147942 64.529333 
L 130.408572 64.478254 
L 130.756078 64.460498 
L 130.929831 64.469 
L 131.132543 64.45443 
L 131.509008 64.49463 
L 131.653802 64.488539 
L 131.856514 64.542873 
L 132.956951 64.639694 
L 133.130704 64.71823 
L 133.246539 64.763766 
L 133.796757 65.425763 
L 133.883634 65.986976 
L 133.999469 70.203134 
L 134.346976 82.738915 
L 134.578647 84.40058 
L 134.868235 84.800071 
L 135.360536 84.894533 
L 135.50533 84.92291 
L 135.708042 84.890713 
L 136.171384 84.89715 
L 136.895355 84.91138 
L 137.040149 84.900304 
L 137.329738 84.871999 
L 137.503491 84.901845 
L 137.619326 84.905547 
L 137.937874 84.918104 
L 138.02475 84.893325 
L 138.053709 84.917486 
L 139.443734 84.877564 
L 139.472693 84.945148 
L 139.559569 84.871557 
L 139.878117 84.894925 
L 140.688965 84.885974 
L 142.455455 84.899815 
L 142.629208 84.881087 
L 142.860879 84.917193 
L 143.063591 84.900928 
L 143.585096 84.875295 
L 143.787562 84.890446 
L 144.308822 84.879861 
L 144.482575 84.840463 
L 144.627369 84.852649 
L 144.887999 84.766358 
L 144.974875 84.741442 
L 145.293423 83.797461 
L 145.409258 80.917472 
L 145.496135 67.702072 
L 145.640929 53.09233 
L 145.814682 52.535011 
L 145.959476 52.224981 
L 146.162188 51.989896 
L 146.306982 51.944799 
L 146.538653 51.87403 
L 150.534975 51.706671 
L 151.17207 51.824857 
L 151.461659 51.903036 
L 151.635412 51.912294 
L 152.504177 52.122824 
L 153.170231 53.26998 
L 153.343984 54.485282 
L 153.488778 58.367989 
L 153.720449 71.741171 
L 153.981079 82.095314 
L 154.21275 84.211805 
L 154.473379 84.72452 
L 155.110474 84.880731 
L 155.313186 84.895693 
L 155.486939 84.930591 
L 155.660692 84.888644 
L 155.776528 84.911369 
L 155.97924 84.906665 
L 156.268828 84.912184 
L 156.47154 84.917694 
L 156.703211 84.911097 
L 156.934882 84.899878 
L 157.253429 84.898223 
L 157.774689 84.903818 
L 158.035391 84.905521 
L 158.353866 84.907353 
L 158.730331 84.898994 
L 158.990961 84.925379 
L 159.193673 84.86556 
L 159.367426 84.906801 
L 160.062438 84.897993 
L 160.207233 84.892227 
L 160.699533 84.880455 
L 160.844327 84.908354 
L 160.960163 84.899216 
L 161.394546 84.916596 
L 162.060599 84.866588 
L 162.408105 84.91057 
L 162.523941 84.889649 
L 162.784571 84.88889 
L 163.103118 84.866566 
L 163.247912 84.88653 
L 163.276871 84.839979 
L 163.363748 84.903454 
L 163.595418 84.863092 
L 163.79813 84.869633 
L 164.81169 84.844906 
L 164.956485 84.81711 
L 164.985443 84.85026 
L 165.043361 84.77811 
L 165.217114 84.744939 
L 165.622538 84.471873 
L 165.82525 83.91995 
L 165.999003 82.625242 
L 166.143798 79.070735 
L 166.259633 68.061608 
L 166.404427 54.091775 
L 167.128399 53.731131 
L 167.331111 53.706475 
L 167.678617 53.629468 
L 167.85237 53.572668 
L 168.750094 53.467091 
L 168.923848 53.44361 
L 169.184477 53.455838 
L 170.37179 53.475294 
L 170.487626 53.439421 
L 170.63242 53.47287 
L 170.806173 53.462991 
L 171.935568 53.436159 
L 172.254116 53.439167 
L 172.717458 53.44806 
L 172.862252 53.450237 
L 174.599783 53.441464 
L 174.715618 53.473691 
L 174.860413 53.44669 
L 175.034166 53.457871 
L 176.540026 53.501138 
L 176.713779 53.528172 
L 176.800656 53.506948 
L 176.829615 53.546372 
L 177.756298 54.301052 
L 177.987969 54.804013 
L 178.422352 57.604401 
L 178.509228 60.255101 
L 179.001529 83.247938 
L 179.2332 84.547209 
L 179.464871 84.834702 
L 181.318237 84.964795 
L 181.49199 84.924047 
L 181.723661 84.922581 
L 181.839497 84.96228 
L 181.868455 84.934765 
L 183.084727 84.952273 
L 183.229522 84.95848 
L 183.461192 84.946347 
L 183.605987 84.902719 
L 183.634946 84.961811 
L 183.953493 84.972774 
L 184.098287 84.960244 
L 184.300999 84.910185 
L 184.503711 84.952376 
L 184.996012 84.879408 
L 185.140806 84.916373 
L 185.256641 84.926121 
L 185.54623 84.878993 
L 185.633106 84.93107 
L 185.662065 84.89482 
L 186.357078 84.9544 
L 186.501872 84.904859 
L 186.617708 84.931755 
L 186.762502 84.95881 
L 186.965214 84.960794 
L 187.167926 84.94111 
L 187.370638 84.936732 
L 187.920856 84.91981 
L 188.123568 84.901312 
L 188.268362 84.922093 
L 188.644827 84.905059 
L 188.789622 84.938931 
L 188.963375 84.918708 
L 189.224033 84.911375 
L 191.36696 84.9381 
L 191.511754 84.895908 
L 191.627589 84.923947 
L 191.85926 84.927442 
L 192.438437 84.91462 
L 192.641149 84.917019 
L 195.073693 84.914946 
L 195.218487 84.912637 
L 195.884541 84.894081 
L 196.116212 84.906942 
L 196.92706 84.896085 
L 197.100813 84.896024 
L 197.477278 84.873188 
L 197.622072 84.898893 
L 197.824784 84.903422 
L 197.998537 84.91428 
L 198.317085 84.881661 
L 198.519797 84.900603 
L 198.809385 84.901182 
L 199.012097 84.892539 
L 199.301686 84.880578 
L 199.475439 84.905721 
L 199.678151 84.896176 
L 199.851904 84.917964 
L 200.083575 84.891245 
L 200.083575 84.891245 
" clip-path="url(#p2de55cfed1)" style="fill: none; stroke: #1f77b4; stroke-width: 1.5; stroke-linecap: square"/>
   </g>
   <g id="line2d_22">
    <path d="M 55.318265 84.887199 
L 55.578892 84.894663 
L 55.665769 84.886221 
L 55.781604 84.916221 
L 56.071193 84.890663 
L 56.38974 84.89296 
L 56.505576 84.906329 
L 56.766205 84.91717 
L 56.911 84.885745 
L 57.113712 84.907139 
L 58.590613 84.918075 
L 58.764366 84.914405 
L 58.793325 84.855197 
L 58.880202 84.904709 
L 60.530856 84.922247 
L 60.733568 84.922625 
L 60.907321 84.907994 
L 61.167951 84.961855 
L 61.254828 84.872878 
L 61.283787 84.929133 
L 61.486499 84.902169 
L 61.631293 84.920298 
L 61.834005 84.897331 
L 62.007758 84.914447 
L 62.239429 84.9158 
L 62.384223 84.899349 
L 62.557976 84.9044 
L 62.789647 84.949504 
L 62.905482 84.897771 
L 62.934441 84.914865 
L 63.108194 84.902348 
L 63.252989 84.912815 
L 65.25115 84.893001 
L 65.395944 84.916169 
L 65.859285 84.89698 
L 66.033039 84.910644 
L 66.409504 84.889042 
L 66.583257 84.904533 
L 66.728051 84.926659 
L 67.220352 84.919834 
L 67.365146 84.901127 
L 68.26287 84.936257 
L 68.436624 84.898528 
L 68.552459 84.931226 
L 68.726212 84.907158 
L 68.871006 84.927088 
L 69.102677 84.941081 
L 70.203114 84.945743 
L 70.318949 84.942073 
L 70.608538 84.934458 
L 70.81125 84.962413 
L 70.956044 84.962002 
L 71.071879 84.997813 
L 71.216674 84.965834 
L 71.361468 84.964697 
L 71.390427 85.027113 
L 71.477303 84.96386 
L 71.680015 84.988109 
L 73.07004 85.122017 
L 73.301711 85.121617 
L 73.967765 85.202371 
L 74.112559 85.213212 
L 75.502584 85.736194 
L 75.734255 86.377795 
L 75.85009 87.339242 
L 75.994884 90.88378 
L 76.081761 96.984383 
L 76.168638 117.070614 
L 76.342391 159.309518 
L 76.516144 163.941726 
L 77.269074 165.722561 
L 77.529704 165.996789 
L 77.761375 166.06502 
L 78.514305 166.316721 
L 78.63014 166.402534 
L 78.659099 166.371389 
L 78.861811 166.444633 
L 79.006605 166.460463 
L 79.440988 166.544283 
L 79.556824 166.550121 
L 79.933289 166.62 
L 79.962247 166.526771 
L 80.049124 166.560354 
L 80.309754 166.494458 
L 80.454548 166.426674 
L 80.570383 166.442332 
L 80.715178 166.406757 
L 80.831013 166.382995 
L 81.062684 166.35185 
L 81.323314 166.299483 
L 81.468108 166.137199 
L 81.554984 166.131808 
L 81.728738 166.062513 
L 82.134162 165.934911 
L 82.221038 165.895215 
L 82.394791 165.807514 
L 82.539586 165.86019 
L 82.742298 165.782275 
L 82.887092 165.849751 
L 83.118763 165.870835 
L 83.147721 165.924884 
L 83.17668 165.836393 
L 83.234598 165.872208 
L 83.668981 165.902804 
L 83.842734 165.846042 
L 84.248158 165.610102 
L 84.624623 164.91526 
L 84.885253 163.626738 
L 85.059006 161.478481 
L 85.145882 159.1586 
L 85.261718 141.804592 
L 85.609224 91.057801 
L 85.840895 86.467787 
L 86.072566 85.4623 
L 86.275278 85.153375 
L 86.593825 84.999172 
L 87.201961 84.928417 
L 87.404673 84.930999 
L 87.607385 84.889886 
L 87.925932 84.90315 
L 88.041768 84.874001 
L 88.157603 84.900864 
L 88.331356 84.881515 
L 88.620945 84.914131 
L 88.73678 84.901496 
L 88.910533 84.928703 
L 89.084287 84.90224 
L 89.547628 84.918999 
L 89.837217 84.91867 
L 92.269761 85.171188 
L 92.53039 85.402754 
L 92.617267 85.534681 
L 92.762061 85.911956 
L 92.964773 87.486496 
L 93.109567 90.905293 
L 93.225403 96.818067 
L 93.370197 118.972581 
L 93.572909 148.979883 
L 93.775621 150.718618 
L 94.181045 151.950103 
L 94.383757 152.030352 
L 94.55751 152.105794 
L 96.58463 152.537877 
L 96.816301 152.56837 
L 96.903177 152.614555 
L 96.932136 152.568576 
L 97.192766 152.659951 
L 97.656107 152.642919 
L 97.771943 152.695663 
L 97.800902 152.667677 
L 98.553832 152.300563 
L 98.698626 152.088831 
L 99.219886 150.791931 
L 99.36468 149.713836 
L 99.451556 145.694709 
L 99.654268 111.662858 
L 99.885939 92.040995 
L 100.146569 87.224527 
L 100.494075 85.68701 
L 100.754705 85.308762 
L 101.015335 85.077381 
L 101.218046 84.998361 
L 101.3918 84.963933 
L 102.608071 84.901806 
L 102.810783 84.923216 
L 103.100372 84.887801 
L 103.274125 84.924245 
L 104.142891 84.952411 
L 104.287685 84.884766 
L 104.548315 84.923479 
L 104.751027 84.895769 
L 104.866862 84.933535 
L 105.706669 84.918364 
L 105.851463 84.952065 
L 106.604393 84.9572 
L 106.720229 84.980482 
L 107.646912 85.217287 
L 107.878583 85.574623 
L 107.936501 85.676323 
L 108.139213 86.438932 
L 108.312966 88.281961 
L 108.45776 92.217485 
L 108.776307 103.013355 
L 108.921102 103.122511 
L 109.152773 103.230654 
L 109.355485 103.30191 
L 109.847785 103.363791 
L 110.137374 103.387557 
L 110.513839 103.391331 
L 110.658633 103.401962 
L 111.093016 103.380957 
L 111.23781 103.394912 
L 111.614275 103.422974 
L 111.730111 103.406347 
L 112.309288 103.446547 
L 112.454082 103.440926 
L 112.714712 103.445843 
L 113.293889 103.432242 
L 113.467642 103.428808 
L 113.641395 103.460956 
L 113.786189 103.422242 
L 114.133695 103.428873 
L 115.205173 103.382602 
L 115.29205 103.410262 
L 115.321008 103.366013 
L 115.436844 103.374155 
L 116.160815 103.180269 
L 116.276651 102.884294 
L 116.363527 101.513435 
L 116.913745 86.726439 
L 117.174375 85.608877 
L 117.608758 85.162446 
L 117.753552 85.114033 
L 117.985223 85.037683 
L 120.939026 84.914497 
L 121.170697 84.920067 
L 121.286532 84.898007 
L 121.460286 84.923995 
L 121.60508 84.894895 
L 121.778833 84.898083 
L 122.010504 84.959619 
L 122.184257 84.895699 
L 122.705516 84.929972 
L 123.37157 84.931641 
L 123.603241 84.96399 
L 123.834912 84.968787 
L 124.587842 85.004662 
L 124.703677 85.032989 
L 124.732636 84.980486 
L 124.819513 85.038361 
L 125.224937 85.196475 
L 125.514525 85.590704 
L 125.804114 86.776387 
L 125.977867 89.0481 
L 126.122661 94.996539 
L 126.41225 109.889949 
L 126.759756 110.308602 
L 127.628522 110.640488 
L 128.033945 110.596716 
L 128.207699 110.605246 
L 128.439369 110.590566 
L 128.815835 110.583619 
L 129.337094 110.659491 
L 129.568765 110.709742 
L 132.580486 110.688211 
L 132.956951 110.65252 
L 133.130704 110.618123 
L 133.651963 110.23284 
L 133.796757 109.97264 
L 133.883634 109.433592 
L 133.999469 105.484784 
L 134.433852 88.52966 
L 134.694496 86.142981 
L 134.955112 85.457617 
L 135.534289 85.039214 
L 135.679083 85.000467 
L 135.939713 84.961036 
L 136.316178 84.928664 
L 136.345137 84.864911 
L 136.432013 84.94166 
L 136.605766 84.88759 
L 136.692643 84.91791 
L 136.721602 84.891048 
L 137.069108 84.895667 
L 137.242861 84.928709 
L 137.416614 84.904176 
L 137.619326 84.918423 
L 137.822038 84.911152 
L 138.372256 84.896793 
L 139.617487 84.891388 
L 139.704364 84.917903 
L 139.733323 84.896056 
L 140.486253 84.918001 
L 140.660006 84.939088 
L 140.8048 84.91023 
L 141.789401 84.897465 
L 141.905237 84.918146 
L 142.107949 84.900426 
L 145.235505 84.847574 
L 145.322381 84.390477 
L 145.409258 81.941924 
L 145.467176 73.519381 
L 145.669888 32.012477 
L 145.901559 30.97449 
L 146.133229 30.303376 
L 146.249065 30.24864 
L 146.422818 30.084124 
L 147.957637 29.838466 
L 149.782045 29.744309 
L 149.926839 29.77645 
L 150.042675 29.739502 
L 150.071634 29.778751 
L 150.41914 29.781738 
L 150.969358 29.865902 
L 151.838124 30.085807 
L 151.953959 30.16712 
L 152.069794 30.15675 
L 152.301465 30.285726 
L 152.388342 30.316253 
L 152.967519 31.726196 
L 153.228149 33.349588 
L 153.372943 36.08919 
L 153.546696 48.016634 
L 153.981079 83.237274 
L 154.183791 84.796036 
L 154.386503 84.967638 
L 154.560256 84.984866 
L 154.849844 84.928329 
L 155.313186 84.938245 
L 157.890524 84.870623 
L 158.064277 84.888183 
L 158.324907 84.893213 
L 158.49866 84.880872 
L 158.904084 84.903832 
L 159.222631 84.909169 
L 159.396385 84.890873 
L 159.541179 84.90622 
L 159.657014 84.904162 
L 159.801809 84.886956 
L 159.975562 84.899159 
L 165.593579 84.808271 
L 165.854209 84.256944 
L 165.999003 82.896644 
L 166.114839 79.25957 
L 166.201715 70.462731 
L 166.491304 19.627333 
L 166.520263 19.635781 
L 166.57818 19.586196 
L 166.809851 19.234809 
L 167.504864 18.677047 
L 167.59174 18.614379 
L 169.068642 18.33342 
L 169.184477 18.353234 
L 169.647819 18.332974 
L 169.792613 18.310448 
L 172.369951 18.26725 
L 172.630581 18.283835 
L 172.804334 18.248467 
L 172.949128 18.293588 
L 173.267676 18.258837 
L 173.41247 18.297262 
L 173.788935 18.280539 
L 173.875812 18.255678 
L 173.904771 18.295373 
L 174.049565 18.301417 
L 177.032327 18.556175 
L 177.379833 19.104837 
L 177.553586 19.483626 
L 177.901092 20.878632 
L 178.161722 23.163213 
L 178.451311 29.444602 
L 178.596105 48.391509 
L 178.856735 79.658385 
L 179.059447 84.212272 
L 179.2332 84.803637 
L 179.551747 84.925504 
L 179.667583 84.91133 
L 179.899253 84.948602 
L 180.015089 84.903459 
L 180.883854 84.895224 
L 181.868455 84.918117 
L 182.01325 84.875679 
L 182.158044 84.905477 
L 182.302838 84.880143 
L 182.476591 84.907961 
L 183.577028 84.871044 
L 183.750781 84.930604 
L 183.866616 84.839905 
L 183.895575 84.889627 
L 184.214123 84.915959 
L 184.243081 84.84425 
L 184.329958 84.925347 
L 184.358917 84.862732 
L 184.445793 84.905178 
L 187.081049 84.908605 
L 187.225872 84.894083 
L 187.602309 84.889535 
L 189.947976 84.907138 
L 190.005893 84.881626 
L 190.063811 84.921507 
L 190.208605 84.907035 
L 190.556112 84.909571 
L 190.787783 84.911789 
L 191.077371 84.925704 
L 191.280083 84.889367 
L 191.540713 84.922908 
L 191.656548 84.896202 
L 192.901779 84.906213 
L 193.249285 84.898334 
L 193.596791 84.875614 
L 193.770545 84.894632 
L 194.118051 84.899586 
L 194.291804 84.906466 
L 194.610351 84.906258 
L 194.928899 84.915185 
L 195.073693 84.901708 
L 195.508076 84.915705 
L 195.710788 84.896987 
L 195.971417 84.929313 
L 196.145171 84.90201 
L 196.318924 84.928918 
L 196.463718 84.897701 
L 196.782265 84.907417 
L 196.984977 84.894431 
L 197.15873 84.927857 
L 197.303525 84.900547 
L 197.766866 84.930894 
L 197.998537 84.910775 
L 198.548755 84.897364 
L 198.69355 84.948194 
L 198.838344 84.91716 
L 200.083575 84.920839 
L 200.083575 84.920839 
" clip-path="url(#p2de55cfed1)" style="fill: none; stroke: #ff7f0e; stroke-width: 1.5; stroke-linecap: square"/>
   </g>
   <g id="patch_3">
    <path d="M 48.08 174.04 
L 48.08 10.8 
" style="fill: none; stroke: #000000; stroke-width: 0.8; stroke-linejoin: miter; stroke-linecap: square"/>
   </g>
   <g id="patch_4">
    <path d="M 207.32184 174.04 
L 207.32184 10.8 
" style="fill: none; stroke: #000000; stroke-width: 0.8; stroke-linejoin: miter; stroke-linecap: square"/>
   </g>
   <g id="patch_5">
    <path d="M 48.08 174.04 
L 207.32184 174.04 
" style="fill: none; stroke: #000000; stroke-width: 0.8; stroke-linejoin: miter; stroke-linecap: square"/>
   </g>
   <g id="patch_6">
    <path d="M 48.08 10.8 
L 207.32184 10.8 
" style="fill: none; stroke: #000000; stroke-width: 0.8; stroke-linejoin: miter; stroke-linecap: square"/>
   </g>
   <g id="legend_1">
    <g id="patch_7">
     <path d="M 55.08 49.176562 
L 98.38 49.176562 
Q 100.38 49.176562 100.38 47.176562 
L 100.38 17.8 
Q 100.38 15.8 98.38 15.8 
L 55.08 15.8 
Q 53.08 15.8 53.08 17.8 
L 53.08 47.176562 
Q 53.08 49.176562 55.08 49.176562 
z
" style="fill: #ffffff; opacity: 0.8; stroke: #cccccc; stroke-linejoin: miter"/>
    </g>
    <g id="line2d_23">
     <path d="M 57.08 23.898438 
L 67.08 23.898438 
L 77.08 23.898438 
" style="fill: none; stroke: #1f77b4; stroke-width: 1.5; stroke-linecap: square"/>
    </g>
    <g id="text_13">
     <!-- $V_x$ -->
     <g transform="translate(85.08 27.398438) scale(0.1 -0.1)">
      <defs>
       <path id="DejaVuSans-Oblique-78" d="M 3841 3500 
L 2234 1784 
L 3219 0 
L 2559 0 
L 1819 1388 
L 531 0 
L -166 0 
L 1556 1844 
L 641 3500 
L 1300 3500 
L 1972 2234 
L 3144 3500 
L 3841 3500 
z
" transform="scale(0.015625)"/>
      </defs>
      <use xlink:href="#DejaVuSans-Oblique-56" transform="translate(0 0.09375)"/>
      <use xlink:href="#DejaVuSans-Oblique-78" transform="translate(68.408203 -16.3125) scale(0.7)"/>
     </g>
    </g>
    <g id="line2d_24">
     <path d="M 57.08 38.576562 
L 67.08 38.576562 
L 77.08 38.576562 
" style="fill: none; stroke: #ff7f0e; stroke-width: 1.5; stroke-linecap: square"/>
    </g>
    <g id="text_14">
     <!-- $V_y$ -->
     <g transform="translate(85.08 42.076562) scale(0.1 -0.1)">
      <defs>
       <path id="DejaVuSans-Oblique-79" d="M 1588 -325 
Q 1188 -997 936 -1164 
Q 684 -1331 294 -1331 
L -159 -1331 
L -63 -850 
L 269 -850 
Q 509 -850 678 -719 
Q 847 -588 1056 -206 
L 1234 128 
L 459 3500 
L 1069 3500 
L 1650 819 
L 3256 3500 
L 3859 3500 
L 1588 -325 
z
" transform="scale(0.015625)"/>
      </defs>
      <use xlink:href="#DejaVuSans-Oblique-56" transform="translate(0 0.09375)"/>
      <use xlink:href="#DejaVuSans-Oblique-79" transform="translate(68.408203 -16.3125) scale(0.7)"/>
     </g>
    </g>
   </g>
  </g>
  <g id="axes_2">
   <g id="patch_8">
    <path d="M 261.95816 172.04092 
L 421.2 172.04092 
L 421.2 12.79908 
L 261.95816 12.79908 
z
" style="fill: #ffffff"/>
   </g>
   <g id="matplotlib.axis_3">
    <g id="xtick_6">
     <g id="line2d_25">
      <path d="M 285.795718 172.04092 
L 285.795718 12.79908 
" clip-path="url(#pc4745673dc)" style="fill: none; stroke: #b0b0b0; stroke-width: 0.8; stroke-linecap: square"/>
     </g>
     <g id="line2d_26">
      <g>
       <use xlink:href="#m271f05e551" x="285.795718" y="172.04092" style="stroke: #000000; stroke-width: 0.8"/>
      </g>
     </g>
     <g id="text_15">
      <!-- −2 -->
      <g transform="translate(278.424624 186.639358) scale(0.1 -0.1)">
       <use xlink:href="#DejaVuSans-2212"/>
       <use xlink:href="#DejaVuSans-32" x="83.789062"/>
      </g>
     </g>
    </g>
    <g id="xtick_7">
     <g id="line2d_27">
      <path d="M 341.57908 172.04092 
L 341.57908 12.79908 
" clip-path="url(#pc4745673dc)" style="fill: none; stroke: #b0b0b0; stroke-width: 0.8; stroke-linecap: square"/>
     </g>
     <g id="line2d_28">
      <g>
       <use xlink:href="#m271f05e551" x="341.57908" y="172.04092" style="stroke: #000000; stroke-width: 0.8"/>
      </g>
     </g>
     <g id="text_16">
      <!-- 0 -->
      <g transform="translate(338.39783 186.639358) scale(0.1 -0.1)">
       <use xlink:href="#DejaVuSans-30"/>
      </g>
     </g>
    </g>
    <g id="xtick_8">
     <g id="line2d_29">
      <path d="M 397.362442 172.04092 
L 397.362442 12.79908 
" clip-path="url(#pc4745673dc)" style="fill: none; stroke: #b0b0b0; stroke-width: 0.8; stroke-linecap: square"/>
     </g>
     <g id="line2d_30">
      <g>
       <use xlink:href="#m271f05e551" x="397.362442" y="172.04092" style="stroke: #000000; stroke-width: 0.8"/>
      </g>
     </g>
     <g id="text_17">
      <!-- 2 -->
      <g transform="translate(394.181192 186.639358) scale(0.1 -0.1)">
       <use xlink:href="#DejaVuSans-32"/>
      </g>
     </g>
    </g>
    <g id="text_18">
     <!-- $V_x$ (V) -->
     <g transform="translate(327.02908 200.317483) scale(0.1 -0.1)">
      <use xlink:href="#DejaVuSans-Oblique-56" transform="translate(0 0.125)"/>
      <use xlink:href="#DejaVuSans-Oblique-78" transform="translate(68.408203 -16.28125) scale(0.7)"/>
      <use xlink:href="#DejaVuSans-20" transform="translate(112.568359 0.125)"/>
      <use xlink:href="#DejaVuSans-28" transform="translate(144.355469 0.125)"/>
      <use xlink:href="#DejaVuSans-56" transform="translate(183.369141 0.125)"/>
      <use xlink:href="#DejaVuSans-29" transform="translate(251.777344 0.125)"/>
     </g>
    </g>
   </g>
   <g id="matplotlib.axis_4">
    <g id="ytick_6">
     <g id="line2d_31">
      <path d="M 261.95816 148.203362 
L 421.2 148.203362 
" clip-path="url(#pc4745673dc)" style="fill: none; stroke: #b0b0b0; stroke-width: 0.8; stroke-linecap: square"/>
     </g>
     <g id="line2d_32">
      <g>
       <use xlink:href="#m7fbe30e28d" x="261.95816" y="148.203362" style="stroke: #000000; stroke-width: 0.8"/>
      </g>
     </g>
     <g id="text_19">
      <!-- −2 -->
      <g transform="translate(240.215972 152.002581) scale(0.1 -0.1)">
       <use xlink:href="#DejaVuSans-2212"/>
       <use xlink:href="#DejaVuSans-32" x="83.789062"/>
      </g>
     </g>
    </g>
    <g id="ytick_7">
     <g id="line2d_33">
      <path d="M 261.95816 120.311681 
L 421.2 120.311681 
" clip-path="url(#pc4745673dc)" style="fill: none; stroke: #b0b0b0; stroke-width: 0.8; stroke-linecap: square"/>
     </g>
     <g id="line2d_34">
      <g>
       <use xlink:href="#m7fbe30e28d" x="261.95816" y="120.311681" style="stroke: #000000; stroke-width: 0.8"/>
      </g>
     </g>
     <g id="text_20">
      <!-- −1 -->
      <g transform="translate(240.215972 124.1109) scale(0.1 -0.1)">
       <use xlink:href="#DejaVuSans-2212"/>
       <use xlink:href="#DejaVuSans-31" x="83.789062"/>
      </g>
     </g>
    </g>
    <g id="ytick_8">
     <g id="line2d_35">
      <path d="M 261.95816 92.42 
L 421.2 92.42 
" clip-path="url(#pc4745673dc)" style="fill: none; stroke: #b0b0b0; stroke-width: 0.8; stroke-linecap: square"/>
     </g>
     <g id="line2d_36">
      <g>
       <use xlink:href="#m7fbe30e28d" x="261.95816" y="92.42" style="stroke: #000000; stroke-width: 0.8"/>
      </g>
     </g>
     <g id="text_21">
      <!-- 0 -->
      <g transform="translate(248.59566 96.219219) scale(0.1 -0.1)">
       <use xlink:href="#DejaVuSans-30"/>
      </g>
     </g>
    </g>
    <g id="ytick_9">
     <g id="line2d_37">
      <path d="M 261.95816 64.528319 
L 421.2 64.528319 
" clip-path="url(#pc4745673dc)" style="fill: none; stroke: #b0b0b0; stroke-width: 0.8; stroke-linecap: square"/>
     </g>
     <g id="line2d_38">
      <g>
       <use xlink:href="#m7fbe30e28d" x="261.95816" y="64.528319" style="stroke: #000000; stroke-width: 0.8"/>
      </g>
     </g>
     <g id="text_22">
      <!-- 1 -->
      <g transform="translate(248.59566 68.327538) scale(0.1 -0.1)">
       <use xlink:href="#DejaVuSans-31"/>
      </g>
     </g>
    </g>
    <g id="ytick_10">
     <g id="line2d_39">
      <path d="M 261.95816 36.636638 
L 421.2 36.636638 
" clip-path="url(#pc4745673dc)" style="fill: none; stroke: #b0b0b0; stroke-width: 0.8; stroke-linecap: square"/>
     </g>
     <g id="line2d_40">
      <g>
       <use xlink:href="#m7fbe30e28d" x="261.95816" y="36.636638" style="stroke: #000000; stroke-width: 0.8"/>
      </g>
     </g>
     <g id="text_23">
      <!-- 2 -->
      <g transform="translate(248.59566 40.435857) scale(0.1 -0.1)">
       <use xlink:href="#DejaVuSans-32"/>
      </g>
     </g>
    </g>
    <g id="text_24">
     <!-- $V_y$ (V) -->
     <g transform="translate(233.115972 106.97) rotate(-90) scale(0.1 -0.1)">
      <use xlink:href="#DejaVuSans-Oblique-56" transform="translate(0 0.125)"/>
      <use xlink:href="#DejaVuSans-Oblique-79" transform="translate(68.408203 -16.28125) scale(0.7)"/>
      <use xlink:href="#DejaVuSans-20" transform="translate(112.568359 0.125)"/>
      <use xlink:href="#DejaVuSans-28" transform="translate(144.355469 0.125)"/>
      <use xlink:href="#DejaVuSans-56" transform="translate(183.369141 0.125)"/>
      <use xlink:href="#DejaVuSans-29" transform="translate(251.777344 0.125)"/>
     </g>
    </g>
   </g>
   <g id="line2d_41">
    <path d="M 341.635959 92.382937 
L 341.614787 92.356944 
L 341.603603 92.693368 
L 341.574521 92.676214 
L 341.618075 92.823352 
L 341.580652 92.897036 
L 341.607636 92.930235 
L 341.566397 93.380598 
L 341.572605 93.71637 
L 341.756739 102.208928 
L 342.380479 110.852842 
L 343.106816 118.524058 
L 344.413042 129.964099 
L 348.21631 158.770767 
L 343.590756 123.003925 
L 342.246098 109.568347 
L 341.634289 100.000786 
L 341.526944 94.78958 
L 341.626952 92.3623 
L 341.625973 94.000246 
L 341.848016 96.387385 
L 342.013902 98.047534 
L 343.000808 104.150181 
L 344.226377 110.0806 
L 345.281617 114.542928 
L 346.720744 120.06894 
L 348.792083 127.32259 
L 353.045793 140.969682 
L 354.678358 145.951443 
L 355.236732 147.465125 
L 351.357474 135.769362 
L 347.341761 122.26117 
L 345.192679 114.131585 
L 343.215579 105.402322 
L 342.018671 98.193639 
L 341.602933 92.689167 
L 341.618783 92.51398 
L 341.595226 92.391716 
L 341.624591 92.40436 
L 341.620149 92.366132 
L 341.826152 93.226908 
L 343.595039 96.138363 
L 345.447472 98.336994 
L 348.087612 100.943224 
L 350.043006 102.738817 
L 355.295679 106.813402 
L 356.27242 107.464198 
L 354.827093 106.444188 
L 351.941152 104.261625 
L 348.516449 101.338061 
L 346.492958 99.430953 
L 344.988802 97.82948 
L 343.20987 95.595688 
L 342.040947 93.708208 
L 341.575602 92.366467 
L 341.743819 93.02304 
L 341.748321 93.164574 
L 342.166754 94.293689 
L 342.587995 95.256779 
L 344.150923 97.989826 
L 345.981361 100.594293 
L 347.455617 102.471571 
L 350.268033 105.698978 
L 352.58425 108.145673 
L 357.997133 113.255454 
L 358.000845 113.228022 
L 358.068915 113.331196 
L 358.083051 113.310088 
L 358.226994 113.398884 
L 357.913436 113.22995 
L 357.829911 113.121091 
L 357.681745 112.9961 
L 357.322171 112.664649 
L 356.456544 111.879016 
L 352.326765 107.902084 
L 347.570612 102.620702 
L 345.184872 99.534964 
L 343.082266 96.179428 
L 342.315195 94.695011 
L 341.598934 92.431576 
L 341.610005 92.456535 
L 341.734535 92.445806 
L 342.04607 92.405491 
L 342.820261 91.979472 
L 343.79695 91.110708 
L 344.840571 89.990625 
L 346.601253 87.751881 
L 349.733771 83.149377 
L 355.574838 73.052307 
L 368.010177 48.745839 
L 368.146174 48.377139 
L 368.585998 47.584764 
L 367.517518 49.551602 
L 366.310235 52.007046 
L 361.063687 62.434658 
L 358.428628 67.588087 
L 355.396384 73.29029 
L 352.294062 78.828599 
L 349.406359 83.561778 
L 347.176368 86.970021 
L 344.861624 89.944134 
L 342.955416 91.860599 
L 341.993681 92.428042 
L 341.573979 92.378208 
L 341.940889 92.318828 
L 342.084479 92.200356 
L 342.225656 92.131145 
L 342.641781 91.721581 
L 343.192437 91.079672 
L 344.264093 89.666168 
L 345.395959 87.81187 
L 346.340591 86.279819 
L 349.227757 80.666599 
L 351.631554 75.480849 
L 355.282804 67.1357 
L 367.186061 38.238374 
L 353.673627 70.878758 
L 349.190438 80.716718 
L 346.841744 85.270171 
L 345.175009 88.13581 
L 343.614864 90.491009 
L 342.346735 92.011674 
L 341.551153 92.42379 
L 341.612856 92.410261 
" clip-path="url(#pc4745673dc)" style="fill: none; stroke: #1f77b4; stroke-width: 1.5; stroke-linecap: square"/>
   </g>
   <g id="patch_9">
    <path d="M 261.95816 172.04092 
L 261.95816 12.79908 
" style="fill: none; stroke: #000000; stroke-width: 0.8; stroke-linejoin: miter; stroke-linecap: square"/>
   </g>
   <g id="patch_10">
    <path d="M 421.2 172.04092 
L 421.2 12.79908 
" style="fill: none; stroke: #000000; stroke-width: 0.8; stroke-linejoin: miter; stroke-linecap: square"/>
   </g>
   <g id="patch_11">
    <path d="M 261.95816 172.04092 
L 421.2 172.04092 
" style="fill: none; stroke: #000000; stroke-width: 0.8; stroke-linejoin: miter; stroke-linecap: square"/>
   </g>
   <g id="patch_12">
    <path d="M 261.95816 12.79908 
L 421.2 12.79908 
" style="fill: none; stroke: #000000; stroke-width: 0.8; stroke-linejoin: miter; stroke-linecap: square"/>
   </g>
  </g>
 </g>
 <defs>
  <clipPath id="p2de55cfed1">
   <rect x="48.08" y="10.8" width="159.24184" height="163.24"/>
  </clipPath>
  <clipPath id="pc4745673dc">
   <rect x="261.95816" y="12.79908" width="159.24184" height="159.24184"/>
  </clipPath>
 </defs>
</svg>
