<?xml version="1.0" encoding="utf-8" standalone="no"?>
<!DOCTYPE svg PUBLIC "-//W3C//DTD SVG 1.1//EN"
  "http://www.w3.org/Graphics/SVG/1.1/DTD/svg11.dtd">
<svg xmlns:xlink="http://www.w3.org/1999/xlink" width="401.720286pt" height="225.5pt" viewBox="0 0 401.720286 225.5" xmlns="http://www.w3.org/2000/svg" version="1.1">
 <metadata>
  <rdf:RDF xmlns:dc="http://purl.org/dc/elements/1.1/" xmlns:cc="http://creativecommons.org/ns#" xmlns:rdf="http://www.w3.org/1999/02/22-rdf-syntax-ns#">
   <cc:Work>
    <dc:type rdf:resource="http://purl.org/dc/dcmitype/StillImage"/>
    <dc:date>2025-09-10T03:21:23.445984</dc:date>
    <dc:format>image/svg+xml</dc:format>
    <dc:creator>
     <cc:Agent>
      <dc:title>Matplotlib v3.10.0, https://matplotlib.org/</dc:title>
     </cc:Agent>
    </dc:creator>
   </cc:Work>
  </rdf:RDF>
 </metadata>
 <defs>
  <style type="text/css">*{stroke-linejoin: round; stroke-linecap: butt}</style>
 </defs>
 <g id="figure_1">
  <g id="patch_1">
   <path d="M 0 225.5 
L 401.720286 225.5 
L 401.720286 0 
L 0 0 
z
" style="fill: #ffffff"/>
  </g>
  <g id="axes_1">
   <g id="patch_2">
    <path d="M 22.68 134.78 
C 27.453656 134.78 32.032438 132.883406 35.407922 129.507922 
C 38.783406 126.132438 40.68 121.553656 40.68 116.78 
C 40.68 112.006344 38.783406 107.427562 35.407922 104.052078 
C 32.032438 100.676594 27.453656 98.78 22.68 98.78 
C 17.906344 98.78 13.327562 100.676594 9.952078 104.052078 
C 6.576594 107.427562 4.68 112.006344 4.68 116.78 
C 4.68 121.553656 6.576594 126.132438 9.952078 129.507922 
C 13.327562 132.883406 17.906344 134.78 22.68 134.78 
L 22.68 134.78 
z
" clip-path="url(#p039ba9a93a)" style="fill: none; stroke: #000000; stroke-width: 2; stroke-linejoin: miter"/>
   </g>
   <g id="line2d_1">
    <path d="M 22.68 197.78 
L 22.68 212.18 
L 13.68 212.18 
L 31.68 212.18 
M 16.38 216.5 
L 28.98 216.5 
M 20.88 220.82 
L 24.48 220.82 
" clip-path="url(#p039ba9a93a)" style="fill: none; stroke: #000000; stroke-width: 2; stroke-linecap: round"/>
   </g>
   <g id="line2d_2">
    <path d="M 22.68 197.78 
L 22.68 184.28 
L 22.68 170.78 
" clip-path="url(#p039ba9a93a)" style="fill: none; stroke: #000000; stroke-width: 2; stroke-linecap: round"/>
   </g>
   <g id="line2d_3">
    <path d="M 22.68 170.78 
L 22.68 134.78 
L 22.68 134.78 
M 22.68 98.78 
L 22.68 98.78 
L 22.68 62.78 
" clip-path="url(#p039ba9a93a)" style="fill: none; stroke: #000000; stroke-width: 2; stroke-linecap: round"/>
   </g>
   <g id="line2d_4">
    <path d="M 31.68 116.78 
L 30.93 114.916503 
L 30.18 113.18 
L 29.43 111.688831 
L 28.68 110.544617 
L 27.93 109.825334 
L 27.18 109.58 
L 26.43 109.825334 
L 25.68 110.544617 
L 24.93 111.688831 
L 24.18 113.18 
L 23.43 114.916503 
L 22.68 116.78 
L 21.93 118.643497 
L 21.18 120.38 
L 20.43 121.871169 
L 19.68 123.015383 
L 18.93 123.734666 
L 18.18 123.98 
L 17.43 123.734666 
L 16.68 123.015383 
L 15.93 121.871169 
L 15.18 120.38 
L 14.43 118.643497 
L 13.68 116.78 
" clip-path="url(#p039ba9a93a)" style="fill: none; stroke: #000000; stroke-width: 2; stroke-linecap: round"/>
   </g>
   <g id="line2d_5">
    <path d="M 22.68 62.78 
L 22.68 49.28 
L 22.68 35.78 
" clip-path="url(#p039ba9a93a)" style="fill: none; stroke: #000000; stroke-width: 2; stroke-linecap: round"/>
   </g>
   <g id="line2d_6">
    <path d="M 22.68 35.78 
L 64.98 35.78 
M 88.38 35.78 
L 130.68 35.78 
" clip-path="url(#p039ba9a93a)" style="fill: none; stroke: #000000; stroke-width: 2; stroke-linecap: round"/>
   </g>
   <g id="line2d_7">
    <path d="M 64.98 17.78 
L 88.38 35.78 
L 64.98 53.78 
L 64.98 17.78 
" clip-path="url(#p039ba9a93a)" style="fill: none; stroke: #000000; stroke-width: 2; stroke-linecap: round"/>
   </g>
   <g id="line2d_8">
    <path d="M 130.68 35.78 
L 157.68 35.78 
L 184.68 35.78 
" clip-path="url(#p039ba9a93a)" style="fill: none; stroke: #000000; stroke-width: 2; stroke-linecap: round"/>
   </g>
   <g id="line2d_9">
    <path d="M 184.68 35.78 
L 184.68 49.28 
L 184.68 62.78 
" clip-path="url(#p039ba9a93a)" style="fill: none; stroke: #000000; stroke-width: 2; stroke-linecap: round"/>
   </g>
   <g id="line2d_10">
    <path d="M 157.68 88.7 
L 166.68 88.7 
L 169.68 79.7 
L 175.68 97.7 
L 181.68 79.7 
L 187.68 97.7 
L 193.68 79.7 
L 199.68 97.7 
L 202.68 88.7 
L 211.68 88.7 
" clip-path="url(#p039ba9a93a)" style="fill: none; stroke: #000000; stroke-width: 2; stroke-linecap: round"/>
   </g>
   <g id="line2d_11">
    <path d="M 184.68 62.78 
L 184.68 70.7 
" clip-path="url(#p039ba9a93a)" style="fill: none; stroke: #000000; stroke-width: 2; stroke-linecap: round"/>
   </g>
   <g id="patch_3">
    <path d="M 187.38 70.7 
L 184.68 79.7 
L 181.98 70.7 
z
" clip-path="url(#p039ba9a93a)"/>
   </g>
   <g id="line2d_12">
    <path d="M 157.68 88.7 
L 157.68 102.2 
L 157.68 115.7 
" clip-path="url(#p039ba9a93a)" style="fill: none; stroke: #000000; stroke-width: 2; stroke-linecap: round"/>
   </g>
   <g id="line2d_13">
    <path d="M 157.68 115.7 
L 157.68 124.7 
L 160.644187 124.83407 
L 163.635107 125.24176 
L 166.401917 125.914001 
L 168.712568 126.819538 
L 169.634308 127.344567 
L 170.373271 127.907547 
L 170.913881 128.499767 
L 171.244744 129.111902 
L 171.358884 129.734207 
L 171.253898 130.35672 
L 170.931996 130.969478 
L 170.399965 131.562723 
L 169.669018 132.127106 
L 168.754564 132.653888 
L 166.455691 133.563825 
L 163.69615 134.241342 
L 160.70738 134.65474 
L 157.740043 134.794472 
L 155.043006 134.673942 
L 152.842465 134.328382 
L 151.322976 133.811898 
L 150.861011 133.510537 
L 150.611977 133.192928 
L 150.581122 132.868923 
L 150.769097 132.548509 
L 151.17194 132.241597 
L 152.583915 131.706292 
L 154.698626 131.333029 
L 157.338716 131.178236 
L 160.282764 131.280019 
L 163.283858 131.654963 
L 166.0903 132.296748 
L 168.466719 133.176671 
L 169.429494 133.691402 
L 170.213808 134.246057 
L 170.803131 134.832102 
L 171.185041 135.440342 
L 171.351487 136.061113 
L 171.298962 136.684487 
L 171.028572 137.300482 
L 170.546017 137.899271 
L 169.861468 138.47139 
L 168.989355 139.007935 
L 166.759529 139.942621 
L 164.043553 140.65006 
L 161.069211 141.096046 
L 158.085956 141.268297 
L 155.34399 141.17749 
L 153.073277 140.856365 
L 151.464258 140.356977 
L 150.952569 140.060936 
L 150.65188 139.746332 
L 150.568529 139.422952 
L 150.704275 139.100768 
L 151.056254 138.789731 
L 151.617048 138.499551 
L 153.313648 138.018228 
L 155.651782 137.722289 
L 158.435355 137.661678 
L 161.430913 137.866602 
L 164.387224 138.344998 
L 167.056345 139.081866 
L 169.214422 140.040531 
L 170.043138 140.586371 
L 170.68046 141.165713 
L 171.112955 141.769502 
L 171.331505 142.388169 
L 171.331505 143.011831 
L 171.112955 143.630498 
L 170.68046 144.234287 
L 170.043138 144.813629 
L 169.214422 145.359469 
L 168.21178 145.86346 
L 165.772473 146.717065 
L 162.929798 147.327979 
L 159.922165 147.670087 
L 157.001822 147.739821 
L 154.413691 147.556457 
L 152.374837 147.160496 
L 151.056254 146.610269 
L 150.704275 146.299232 
L 150.568529 145.977048 
L 150.65188 145.653668 
L 150.952569 145.339064 
L 151.464258 145.043023 
L 153.073277 144.543635 
L 155.34399 144.22251 
L 158.085956 144.131703 
L 161.069211 144.303954 
L 164.043553 144.74994 
L 166.759529 145.457379 
L 168.989355 146.392065 
L 169.861468 146.92861 
L 170.546017 147.500729 
L 171.028572 148.099518 
L 171.298962 148.715513 
L 171.351487 149.338887 
L 171.185041 149.959658 
L 170.803131 150.567898 
L 170.213808 151.153943 
L 169.429494 151.708598 
L 168.466719 152.223329 
L 166.0903 153.103252 
L 163.283858 153.745037 
L 160.282764 154.119981 
L 157.338716 154.221764 
L 154.698626 154.066971 
L 152.583915 153.693708 
L 151.17194 153.158403 
L 150.769097 152.851491 
L 150.581122 152.531077 
L 150.611977 152.207072 
L 150.861011 151.889463 
L 151.322976 151.588102 
L 152.842465 151.071618 
L 155.043006 150.726058 
L 157.740043 150.605528 
L 160.70738 150.74526 
L 163.69615 151.158658 
L 166.455691 151.836175 
L 168.754564 152.746112 
L 169.669018 153.272894 
L 170.399965 153.837277 
L 170.931996 154.430522 
L 171.253898 155.04328 
L 171.358884 155.665793 
L 171.244744 156.288098 
L 170.913881 156.900233 
L 170.373271 157.492453 
L 169.634308 158.055433 
L 168.712568 158.580462 
L 166.401917 159.485999 
L 163.635107 160.15824 
L 160.644187 160.56593 
L 157.68 160.7 
L 157.68 169.7 
L 157.68 169.7 
" clip-path="url(#p039ba9a93a)" style="fill: none; stroke: #000000; stroke-width: 2; stroke-linecap: round"/>
   </g>
   <g id="line2d_14">
    <path d="M 157.68 169.7 
L 157.68 183.2 
L 157.68 196.7 
" clip-path="url(#p039ba9a93a)" style="fill: none; stroke: #000000; stroke-width: 2; stroke-linecap: round"/>
   </g>
   <g id="line2d_15">
    <path d="M 157.68 196.7 
L 171.18 196.7 
L 184.68 196.7 
" clip-path="url(#p039ba9a93a)" style="fill: none; stroke: #000000; stroke-width: 2; stroke-linecap: round"/>
   </g>
   <g id="line2d_16">
    <path d="M 211.68 88.7 
L 211.68 102.2 
L 211.68 115.7 
" clip-path="url(#p039ba9a93a)" style="fill: none; stroke: #000000; stroke-width: 2; stroke-linecap: round"/>
   </g>
   <g id="line2d_17">
    <path d="M 211.68 115.7 
L 211.68 124.7 
L 214.644187 124.83407 
L 217.635107 125.24176 
L 220.401917 125.914001 
L 222.712568 126.819538 
L 223.634308 127.344567 
L 224.373271 127.907547 
L 224.913881 128.499767 
L 225.244744 129.111902 
L 225.358884 129.734207 
L 225.253898 130.35672 
L 224.931996 130.969478 
L 224.399965 131.562723 
L 223.669018 132.127106 
L 222.754564 132.653888 
L 220.455691 133.563825 
L 217.69615 134.241342 
L 214.70738 134.65474 
L 211.740043 134.794472 
L 209.043006 134.673942 
L 206.842465 134.328382 
L 205.322976 133.811898 
L 204.861011 133.510537 
L 204.611977 133.192928 
L 204.581122 132.868923 
L 204.769097 132.548509 
L 205.17194 132.241597 
L 206.583915 131.706292 
L 208.698626 131.333029 
L 211.338716 131.178236 
L 214.282764 131.280019 
L 217.283858 131.654963 
L 220.0903 132.296748 
L 222.466719 133.176671 
L 223.429494 133.691402 
L 224.213808 134.246057 
L 224.803131 134.832102 
L 225.185041 135.440342 
L 225.351487 136.061113 
L 225.298962 136.684487 
L 225.028572 137.300482 
L 224.546017 137.899271 
L 223.861468 138.47139 
L 222.989355 139.007935 
L 220.759529 139.942621 
L 218.043553 140.65006 
L 215.069211 141.096046 
L 212.085956 141.268297 
L 209.34399 141.17749 
L 207.073277 140.856365 
L 205.464258 140.356977 
L 204.952569 140.060936 
L 204.65188 139.746332 
L 204.568529 139.422952 
L 204.704275 139.100768 
L 205.056254 138.789731 
L 205.617048 138.499551 
L 207.313648 138.018228 
L 209.651782 137.722289 
L 212.435355 137.661678 
L 215.430913 137.866602 
L 218.387224 138.344998 
L 221.056345 139.081866 
L 223.214422 140.040531 
L 224.043138 140.586371 
L 224.68046 141.165713 
L 225.112955 141.769502 
L 225.331505 142.388169 
L 225.331505 143.011831 
L 225.112955 143.630498 
L 224.68046 144.234287 
L 224.043138 144.813629 
L 223.214422 145.359469 
L 222.21178 145.86346 
L 219.772473 146.717065 
L 216.929798 147.327979 
L 213.922165 147.670087 
L 211.001822 147.739821 
L 208.413691 147.556457 
L 206.374837 147.160496 
L 205.056254 146.610269 
L 204.704275 146.299232 
L 204.568529 145.977048 
L 204.65188 145.653668 
L 204.952569 145.339064 
L 205.464258 145.043023 
L 207.073277 144.543635 
L 209.34399 144.22251 
L 212.085956 144.131703 
L 215.069211 144.303954 
L 218.043553 144.74994 
L 220.759529 145.457379 
L 222.989355 146.392065 
L 223.861468 146.92861 
L 224.546017 147.500729 
L 225.028572 148.099518 
L 225.298962 148.715513 
L 225.351487 149.338887 
L 225.185041 149.959658 
L 224.803131 150.567898 
L 224.213808 151.153943 
L 223.429494 151.708598 
L 222.466719 152.223329 
L 220.0903 153.103252 
L 217.283858 153.745037 
L 214.282764 154.119981 
L 211.338716 154.221764 
L 208.698626 154.066971 
L 206.583915 153.693708 
L 205.17194 153.158403 
L 204.769097 152.851491 
L 204.581122 152.531077 
L 204.611977 152.207072 
L 204.861011 151.889463 
L 205.322976 151.588102 
L 206.842465 151.071618 
L 209.043006 150.726058 
L 211.740043 150.605528 
L 214.70738 150.74526 
L 217.69615 151.158658 
L 220.455691 151.836175 
L 222.754564 152.746112 
L 223.669018 153.272894 
L 224.399965 153.837277 
L 224.931996 154.430522 
L 225.253898 155.04328 
L 225.358884 155.665793 
L 225.244744 156.288098 
L 224.913881 156.900233 
L 224.373271 157.492453 
L 223.634308 158.055433 
L 222.712568 158.580462 
L 220.401917 159.485999 
L 217.635107 160.15824 
L 214.644187 160.56593 
L 211.68 160.7 
L 211.68 169.7 
L 211.68 169.7 
" clip-path="url(#p039ba9a93a)" style="fill: none; stroke: #000000; stroke-width: 2; stroke-linecap: round"/>
   </g>
   <g id="line2d_18">
    <path d="M 211.68 169.7 
L 211.68 183.2 
L 211.68 196.7 
" clip-path="url(#p039ba9a93a)" style="fill: none; stroke: #000000; stroke-width: 2; stroke-linecap: round"/>
   </g>
   <g id="line2d_19">
    <path d="M 211.68 196.7 
L 198.18 196.7 
L 184.68 196.7 
" clip-path="url(#p039ba9a93a)" style="fill: none; stroke: #000000; stroke-width: 2; stroke-linecap: round"/>
   </g>
   <g id="line2d_20">
    <path d="M 184.68 196.7 
L 184.68 211.1 
L 175.68 211.1 
L 193.68 211.1 
M 178.38 215.42 
L 190.98 215.42 
M 182.88 219.74 
L 186.48 219.74 
" clip-path="url(#p039ba9a93a)" style="fill: none; stroke: #000000; stroke-width: 2; stroke-linecap: round"/>
   </g>
   <g id="line2d_21">
    <path d="M 238.68 89.78 
L 252.18 89.78 
L 265.68 89.78 
" clip-path="url(#p039ba9a93a)" style="fill: none; stroke: #000000; stroke-width: 2; stroke-linecap: round"/>
   </g>
   <g id="line2d_22">
    <path d="M 265.68 67.28 
L 265.68 22.28 
L 343.622286 67.28 
L 265.68 112.28 
L 265.68 67.28 
M 343.622286 67.28 
" clip-path="url(#p039ba9a93a)" style="fill: none; stroke: #000000; stroke-width: 2; stroke-linecap: round"/>
   </g>
   <g id="line2d_23">
    <path d="M 271.822786 44.78 
L 279.022786 44.78 
" clip-path="url(#p039ba9a93a)" style="fill: none; stroke: #000000; stroke-width: 2; stroke-linecap: round"/>
   </g>
   <g id="line2d_24">
    <path d="M 271.822786 89.78 
L 279.022786 89.78 
" clip-path="url(#p039ba9a93a)" style="fill: none; stroke: #000000; stroke-width: 2; stroke-linecap: round"/>
   </g>
   <g id="line2d_25">
    <path d="M 275.422786 93.38 
L 275.422786 86.18 
" clip-path="url(#p039ba9a93a)" style="fill: none; stroke: #000000; stroke-width: 2; stroke-linecap: round"/>
   </g>
   <g id="line2d_26">
    <path d="M 265.68 44.78 
L 252.18 44.78 
L 238.68 44.78 
" clip-path="url(#p039ba9a93a)" style="fill: none; stroke: #000000; stroke-width: 2; stroke-linecap: round"/>
   </g>
   <g id="line2d_27">
    <path d="M 343.622286 67.28 
L 357.122286 67.28 
L 370.622286 67.28 
" clip-path="url(#p039ba9a93a)" style="fill: none; stroke: #000000; stroke-width: 2; stroke-linecap: round"/>
   </g>
   <g id="line2d_28">
    <path d="M 343.08 107.78 
L 343.08 122.18 
L 334.08 122.18 
L 352.08 122.18 
M 336.78 126.5 
L 349.38 126.5 
M 341.28 130.82 
L 344.88 130.82 
" clip-path="url(#p039ba9a93a)" style="fill: none; stroke: #000000; stroke-width: 2; stroke-linecap: round"/>
   </g>
   <g id="line2d_29">
    <path d="M 343.08 107.78 
L 356.58 107.78 
L 370.08 107.78 
" clip-path="url(#p039ba9a93a)" style="fill: none; stroke: #000000; stroke-width: 2; stroke-linecap: round"/>
   </g>
   <g id="text_1">
    <!-- $100\Omega$ -->
    <g transform="translate(165.92 111.937812) scale(0.14 -0.14)">
     <defs>
      <path id="DejaVuSans-31" d="M 794 531 
L 1825 531 
L 1825 4091 
L 703 3866 
L 703 4441 
L 1819 4666 
L 2450 4666 
L 2450 531 
L 3481 531 
L 3481 0 
L 794 0 
L 794 531 
z
" transform="scale(0.015625)"/>
      <path id="DejaVuSans-30" d="M 2034 4250 
Q 1547 4250 1301 3770 
Q 1056 3291 1056 2328 
Q 1056 1369 1301 889 
Q 1547 409 2034 409 
Q 2525 409 2770 889 
Q 3016 1369 3016 2328 
Q 3016 3291 2770 3770 
Q 2525 4250 2034 4250 
z
M 2034 4750 
Q 2819 4750 3233 4129 
Q 3647 3509 3647 2328 
Q 3647 1150 3233 529 
Q 2819 -91 2034 -91 
Q 1250 -91 836 529 
Q 422 1150 422 2328 
Q 422 3509 836 4129 
Q 1250 4750 2034 4750 
z
" transform="scale(0.015625)"/>
      <path id="DejaVuSans-3a9" d="M 4647 556 
L 4647 0 
L 2772 0 
L 2772 556 
Q 3325 859 3634 1378 
Q 3944 1897 3944 2528 
Q 3944 3278 3531 3731 
Q 3119 4184 2444 4184 
Q 1769 4184 1355 3729 
Q 941 3275 941 2528 
Q 941 1897 1250 1378 
Q 1563 859 2119 556 
L 2119 0 
L 244 0 
L 244 556 
L 1241 556 
Q 747 991 519 1456 
Q 294 1922 294 2497 
Q 294 3491 894 4106 
Q 1491 4722 2444 4722 
Q 3391 4722 3994 4106 
Q 4594 3494 4594 2528 
Q 4594 1922 4372 1459 
Q 4150 997 3647 556 
L 4647 556 
z
" transform="scale(0.015625)"/>
     </defs>
     <use xlink:href="#DejaVuSans-31" transform="translate(0 0.78125)"/>
     <use xlink:href="#DejaVuSans-30" transform="translate(63.623047 0.78125)"/>
     <use xlink:href="#DejaVuSans-30" transform="translate(127.246094 0.78125)"/>
     <use xlink:href="#DejaVuSans-3a9" transform="translate(190.869141 0.78125)"/>
    </g>
   </g>
   <g id="text_2">
    <!-- $L_1$ -->
    <g transform="translate(132.548529 146.563125) scale(0.14 -0.14)">
     <defs>
      <path id="DejaVuSans-Oblique-4c" d="M 1075 4666 
L 1709 4666 
L 909 525 
L 3181 525 
L 3078 0 
L 172 0 
L 1075 4666 
z
" transform="scale(0.015625)"/>
     </defs>
     <use xlink:href="#DejaVuSans-Oblique-4c" transform="translate(0 0.09375)"/>
     <use xlink:href="#DejaVuSans-31" transform="translate(55.712891 -16.3125) scale(0.7)"/>
    </g>
   </g>
   <g id="patch_4">
    <path d="M 184.68 199.4 
C 185.396048 199.4 186.082866 199.115511 186.589188 198.609188 
C 187.095511 198.102866 187.38 197.416048 187.38 196.7 
C 187.38 195.983952 187.095511 195.297134 186.589188 194.790812 
C 186.082866 194.284489 185.396048 194 184.68 194 
C 183.963952 194 183.277134 194.284489 182.770812 194.790812 
C 182.264489 195.297134 181.98 195.983952 181.98 196.7 
C 181.98 197.416048 182.264489 198.102866 182.770812 198.609188 
C 183.277134 199.115511 183.963952 199.4 184.68 199.4 
z
" clip-path="url(#p039ba9a93a)" style="stroke: #000000; stroke-width: 2; stroke-linejoin: miter"/>
   </g>
   <g id="text_3">
    <!-- $L_2$ -->
    <g transform="translate(228.958884 146.563125) scale(0.14 -0.14)">
     <defs>
      <path id="DejaVuSans-32" d="M 1228 531 
L 3431 531 
L 3431 0 
L 469 0 
L 469 531 
Q 828 903 1448 1529 
Q 2069 2156 2228 2338 
Q 2531 2678 2651 2914 
Q 2772 3150 2772 3378 
Q 2772 3750 2511 3984 
Q 2250 4219 1831 4219 
Q 1534 4219 1204 4116 
Q 875 4013 500 3803 
L 500 4441 
Q 881 4594 1212 4672 
Q 1544 4750 1819 4750 
Q 2544 4750 2975 4387 
Q 3406 4025 3406 3419 
Q 3406 3131 3298 2873 
Q 3191 2616 2906 2266 
Q 2828 2175 2409 1742 
Q 1991 1309 1228 531 
z
" transform="scale(0.015625)"/>
     </defs>
     <use xlink:href="#DejaVuSans-Oblique-4c" transform="translate(0 0.09375)"/>
     <use xlink:href="#DejaVuSans-32" transform="translate(55.712891 -16.3125) scale(0.7)"/>
    </g>
   </g>
   <g id="text_4">
    <!-- AD620 -->
    <g transform="translate(281.111456 15.768437) scale(0.14 -0.14)">
     <defs>
      <path id="DejaVuSans-41" d="M 2188 4044 
L 1331 1722 
L 3047 1722 
L 2188 4044 
z
M 1831 4666 
L 2547 4666 
L 4325 0 
L 3669 0 
L 3244 1197 
L 1141 1197 
L 716 0 
L 50 0 
L 1831 4666 
z
" transform="scale(0.015625)"/>
      <path id="DejaVuSans-44" d="M 1259 4147 
L 1259 519 
L 2022 519 
Q 2988 519 3436 956 
Q 3884 1394 3884 2338 
Q 3884 3275 3436 3711 
Q 2988 4147 2022 4147 
L 1259 4147 
z
M 628 4666 
L 1925 4666 
Q 3281 4666 3915 4102 
Q 4550 3538 4550 2338 
Q 4550 1131 3912 565 
Q 3275 0 1925 0 
L 628 0 
L 628 4666 
z
" transform="scale(0.015625)"/>
      <path id="DejaVuSans-36" d="M 2113 2584 
Q 1688 2584 1439 2293 
Q 1191 2003 1191 1497 
Q 1191 994 1439 701 
Q 1688 409 2113 409 
Q 2538 409 2786 701 
Q 3034 994 3034 1497 
Q 3034 2003 2786 2293 
Q 2538 2584 2113 2584 
z
M 3366 4563 
L 3366 3988 
Q 3128 4100 2886 4159 
Q 2644 4219 2406 4219 
Q 1781 4219 1451 3797 
Q 1122 3375 1075 2522 
Q 1259 2794 1537 2939 
Q 1816 3084 2150 3084 
Q 2853 3084 3261 2657 
Q 3669 2231 3669 1497 
Q 3669 778 3244 343 
Q 2819 -91 2113 -91 
Q 1303 -91 875 529 
Q 447 1150 447 2328 
Q 447 3434 972 4092 
Q 1497 4750 2381 4750 
Q 2619 4750 2861 4703 
Q 3103 4656 3366 4563 
z
" transform="scale(0.015625)"/>
     </defs>
     <use xlink:href="#DejaVuSans-41"/>
     <use xlink:href="#DejaVuSans-44" transform="translate(68.408203 0)"/>
     <use xlink:href="#DejaVuSans-36" transform="translate(145.410156 0)"/>
     <use xlink:href="#DejaVuSans-32" transform="translate(209.033203 0)"/>
     <use xlink:href="#DejaVuSans-30" transform="translate(272.65625 0)"/>
    </g>
   </g>
   <g id="patch_5">
    <path d="M 130.68 38.48 
C 131.396048 38.48 132.082866 38.195511 132.589188 37.689188 
C 133.095511 37.182866 133.38 36.496048 133.38 35.78 
C 133.38 35.063952 133.095511 34.377134 132.589188 33.870812 
C 132.082866 33.364489 131.396048 33.08 130.68 33.08 
C 129.963952 33.08 129.277134 33.364489 128.770812 33.870812 
C 128.264489 34.377134 127.98 35.063952 127.98 35.78 
C 127.98 36.496048 128.264489 37.182866 128.770812 37.689188 
C 129.277134 38.195511 129.963952 38.48 130.68 38.48 
z
" clip-path="url(#p039ba9a93a)" style="fill: #ffffff; stroke: #000000; stroke-width: 2; stroke-linejoin: miter"/>
   </g>
   <g id="text_5">
    <!-- $w_1$(AD3) -->
    <g transform="translate(101.49 26.568437) scale(0.14 -0.14)">
     <defs>
      <path id="DejaVuSans-Oblique-77" d="M 544 3500 
L 1113 3500 
L 1259 684 
L 2566 3500 
L 3231 3500 
L 3425 684 
L 4666 3500 
L 5241 3500 
L 3641 0 
L 2969 0 
L 2797 2900 
L 1459 0 
L 781 0 
L 544 3500 
z
" transform="scale(0.015625)"/>
      <path id="DejaVuSans-28" d="M 1984 4856 
Q 1566 4138 1362 3434 
Q 1159 2731 1159 2009 
Q 1159 1288 1364 580 
Q 1569 -128 1984 -844 
L 1484 -844 
Q 1016 -109 783 600 
Q 550 1309 550 2009 
Q 550 2706 781 3412 
Q 1013 4119 1484 4856 
L 1984 4856 
z
" transform="scale(0.015625)"/>
      <path id="DejaVuSans-33" d="M 2597 2516 
Q 3050 2419 3304 2112 
Q 3559 1806 3559 1356 
Q 3559 666 3084 287 
Q 2609 -91 1734 -91 
Q 1441 -91 1130 -33 
Q 819 25 488 141 
L 488 750 
Q 750 597 1062 519 
Q 1375 441 1716 441 
Q 2309 441 2620 675 
Q 2931 909 2931 1356 
Q 2931 1769 2642 2001 
Q 2353 2234 1838 2234 
L 1294 2234 
L 1294 2753 
L 1863 2753 
Q 2328 2753 2575 2939 
Q 2822 3125 2822 3475 
Q 2822 3834 2567 4026 
Q 2313 4219 1838 4219 
Q 1578 4219 1281 4162 
Q 984 4106 628 3988 
L 628 4550 
Q 988 4650 1302 4700 
Q 1616 4750 1894 4750 
Q 2613 4750 3031 4423 
Q 3450 4097 3450 3541 
Q 3450 3153 3228 2886 
Q 3006 2619 2597 2516 
z
" transform="scale(0.015625)"/>
      <path id="DejaVuSans-29" d="M 513 4856 
L 1013 4856 
Q 1481 4119 1714 3412 
Q 1947 2706 1947 2009 
Q 1947 1309 1714 600 
Q 1481 -109 1013 -844 
L 513 -844 
Q 928 -128 1133 580 
Q 1338 1288 1338 2009 
Q 1338 2731 1133 3434 
Q 928 4138 513 4856 
z
" transform="scale(0.015625)"/>
     </defs>
     <use xlink:href="#DejaVuSans-Oblique-77" transform="translate(0 0.125)"/>
     <use xlink:href="#DejaVuSans-31" transform="translate(81.787109 -16.28125) scale(0.7)"/>
     <use xlink:href="#DejaVuSans-28" transform="translate(129.057617 0.125)"/>
     <use xlink:href="#DejaVuSans-41" transform="translate(168.071289 0.125)"/>
     <use xlink:href="#DejaVuSans-44" transform="translate(236.479492 0.125)"/>
     <use xlink:href="#DejaVuSans-33" transform="translate(313.481445 0.125)"/>
     <use xlink:href="#DejaVuSans-29" transform="translate(377.104492 0.125)"/>
    </g>
   </g>
   <g id="patch_6">
    <path d="M 157.68 118.4 
C 158.396048 118.4 159.082866 118.115511 159.589188 117.609188 
C 160.095511 117.102866 160.38 116.416048 160.38 115.7 
C 160.38 114.983952 160.095511 114.297134 159.589188 113.790812 
C 159.082866 113.284489 158.396048 113 157.68 113 
C 156.963952 113 156.277134 113.284489 155.770812 113.790812 
C 155.264489 114.297134 154.98 114.983952 154.98 115.7 
C 154.98 116.416048 155.264489 117.102866 155.770812 117.609188 
C 156.277134 118.115511 156.963952 118.4 157.68 118.4 
z
" clip-path="url(#p039ba9a93a)" style="fill: #ffffff; stroke: #000000; stroke-width: 2; stroke-linejoin: miter"/>
   </g>
   <g id="text_6">
    <!-- A -->
    <g transform="translate(141.803125 119.563125) scale(0.14 -0.14)">
     <use xlink:href="#DejaVuSans-41"/>
    </g>
   </g>
   <g id="patch_7">
    <path d="M 157.68 172.4 
C 158.396048 172.4 159.082866 172.115511 159.589188 171.609188 
C 160.095511 171.102866 160.38 170.416048 160.38 169.7 
C 160.38 168.983952 160.095511 168.297134 159.589188 167.790812 
C 159.082866 167.284489 158.396048 167 157.68 167 
C 156.963952 167 156.277134 167.284489 155.770812 167.790812 
C 155.264489 168.297134 154.98 168.983952 154.98 169.7 
C 154.98 170.416048 155.264489 171.102866 155.770812 171.609188 
C 156.277134 172.115511 156.963952 172.4 157.68 172.4 
z
" clip-path="url(#p039ba9a93a)" style="fill: #ffffff; stroke: #000000; stroke-width: 2; stroke-linejoin: miter"/>
   </g>
   <g id="text_7">
    <!-- G -->
    <g transform="translate(140.532188 173.563125) scale(0.14 -0.14)">
     <defs>
      <path id="DejaVuSans-47" d="M 3809 666 
L 3809 1919 
L 2778 1919 
L 2778 2438 
L 4434 2438 
L 4434 434 
Q 4069 175 3628 42 
Q 3188 -91 2688 -91 
Q 1594 -91 976 548 
Q 359 1188 359 2328 
Q 359 3472 976 4111 
Q 1594 4750 2688 4750 
Q 3144 4750 3555 4637 
Q 3966 4525 4313 4306 
L 4313 3634 
Q 3963 3931 3569 4081 
Q 3175 4231 2741 4231 
Q 1884 4231 1454 3753 
Q 1025 3275 1025 2328 
Q 1025 1384 1454 906 
Q 1884 428 2741 428 
Q 3075 428 3337 486 
Q 3600 544 3809 666 
z
" transform="scale(0.015625)"/>
     </defs>
     <use xlink:href="#DejaVuSans-47"/>
    </g>
   </g>
   <g id="patch_8">
    <path d="M 211.68 118.4 
C 212.396048 118.4 213.082866 118.115511 213.589188 117.609188 
C 214.095511 117.102866 214.38 116.416048 214.38 115.7 
C 214.38 114.983952 214.095511 114.297134 213.589188 113.790812 
C 213.082866 113.284489 212.396048 113 211.68 113 
C 210.963952 113 210.277134 113.284489 209.770812 113.790812 
C 209.264489 114.297134 208.98 114.983952 208.98 115.7 
C 208.98 116.416048 209.264489 117.102866 209.770812 117.609188 
C 210.277134 118.115511 210.963952 118.4 211.68 118.4 
z
" clip-path="url(#p039ba9a93a)" style="fill: #ffffff; stroke: #000000; stroke-width: 2; stroke-linejoin: miter"/>
   </g>
   <g id="text_8">
    <!-- E -->
    <g transform="translate(217.98 119.563125) scale(0.14 -0.14)">
     <defs>
      <path id="DejaVuSans-45" d="M 628 4666 
L 3578 4666 
L 3578 4134 
L 1259 4134 
L 1259 2753 
L 3481 2753 
L 3481 2222 
L 1259 2222 
L 1259 531 
L 3634 531 
L 3634 0 
L 628 0 
L 628 4666 
z
" transform="scale(0.015625)"/>
     </defs>
     <use xlink:href="#DejaVuSans-45"/>
    </g>
   </g>
   <g id="patch_9">
    <path d="M 211.68 172.4 
C 212.396048 172.4 213.082866 172.115511 213.589188 171.609188 
C 214.095511 171.102866 214.38 170.416048 214.38 169.7 
C 214.38 168.983952 214.095511 168.297134 213.589188 167.790812 
C 213.082866 167.284489 212.396048 167 211.68 167 
C 210.963952 167 210.277134 167.284489 209.770812 167.790812 
C 209.264489 168.297134 208.98 168.983952 208.98 169.7 
C 208.98 170.416048 209.264489 171.102866 209.770812 171.609188 
C 210.277134 172.115511 210.963952 172.4 211.68 172.4 
z
" clip-path="url(#p039ba9a93a)" style="fill: #ffffff; stroke: #000000; stroke-width: 2; stroke-linejoin: miter"/>
   </g>
   <g id="text_9">
    <!-- G -->
    <g transform="translate(217.98 173.563125) scale(0.14 -0.14)">
     <use xlink:href="#DejaVuSans-47"/>
    </g>
   </g>
   <g id="patch_10">
    <path d="M 238.68 92.48 
C 239.396048 92.48 240.082866 92.195511 240.589188 91.689188 
C 241.095511 91.182866 241.38 90.496048 241.38 89.78 
C 241.38 89.063952 241.095511 88.377134 240.589188 87.870812 
C 240.082866 87.364489 239.396048 87.08 238.68 87.08 
C 237.963952 87.08 237.277134 87.364489 236.770812 87.870812 
C 236.264489 88.377134 235.98 89.063952 235.98 89.78 
C 235.98 90.496048 236.264489 91.182866 236.770812 91.689188 
C 237.277134 92.195511 237.963952 92.48 238.68 92.48 
z
" clip-path="url(#p039ba9a93a)" style="fill: #ffffff; stroke: #000000; stroke-width: 2; stroke-linejoin: miter"/>
   </g>
   <g id="text_10">
    <!-- A -->
    <g transform="translate(233.891562 80.568437) scale(0.14 -0.14)">
     <use xlink:href="#DejaVuSans-41"/>
    </g>
   </g>
   <g id="patch_11">
    <path d="M 238.68 47.48 
C 239.396048 47.48 240.082866 47.195511 240.589188 46.689188 
C 241.095511 46.182866 241.38 45.496048 241.38 44.78 
C 241.38 44.063952 241.095511 43.377134 240.589188 42.870812 
C 240.082866 42.364489 239.396048 42.08 238.68 42.08 
C 237.963952 42.08 237.277134 42.364489 236.770812 42.870812 
C 236.264489 43.377134 235.98 44.063952 235.98 44.78 
C 235.98 45.496048 236.264489 46.182866 236.770812 46.689188 
C 237.277134 47.195511 237.963952 47.48 238.68 47.48 
z
" clip-path="url(#p039ba9a93a)" style="fill: #ffffff; stroke: #000000; stroke-width: 2; stroke-linejoin: miter"/>
   </g>
   <g id="text_11">
    <!-- E -->
    <g transform="translate(234.256875 35.568437) scale(0.14 -0.14)">
     <use xlink:href="#DejaVuSans-45"/>
    </g>
   </g>
   <g id="patch_12">
    <path d="M 370.622286 69.98 
C 371.338335 69.98 372.025152 69.695511 372.531475 69.189188 
C 373.037797 68.682866 373.322286 67.996048 373.322286 67.28 
C 373.322286 66.563952 373.037797 65.877134 372.531475 65.370812 
C 372.025152 64.864489 371.338335 64.58 370.622286 64.58 
C 369.906238 64.58 369.219421 64.864489 368.713098 65.370812 
C 368.206775 65.877134 367.922286 66.563952 367.922286 67.28 
C 367.922286 67.996048 368.206775 68.682866 368.713098 69.189188 
C 369.219421 69.695511 369.906238 69.98 370.622286 69.98 
z
" clip-path="url(#p039ba9a93a)" style="fill: #ffffff; stroke: #000000; stroke-width: 2; stroke-linejoin: miter"/>
   </g>
   <g id="text_12">
    <!-- 1+(AD3) -->
    <g transform="translate(340.20838 58.068437) scale(0.14 -0.14)">
     <defs>
      <path id="DejaVuSans-2b" d="M 2944 4013 
L 2944 2272 
L 4684 2272 
L 4684 1741 
L 2944 1741 
L 2944 0 
L 2419 0 
L 2419 1741 
L 678 1741 
L 678 2272 
L 2419 2272 
L 2419 4013 
L 2944 4013 
z
" transform="scale(0.015625)"/>
     </defs>
     <use xlink:href="#DejaVuSans-31"/>
     <use xlink:href="#DejaVuSans-2b" transform="translate(63.623047 0)"/>
     <use xlink:href="#DejaVuSans-28" transform="translate(147.412109 0)"/>
     <use xlink:href="#DejaVuSans-41" transform="translate(186.425781 0)"/>
     <use xlink:href="#DejaVuSans-44" transform="translate(254.833984 0)"/>
     <use xlink:href="#DejaVuSans-33" transform="translate(331.835938 0)"/>
     <use xlink:href="#DejaVuSans-29" transform="translate(395.458984 0)"/>
    </g>
   </g>
   <g id="patch_13">
    <path d="M 370.08 110.48 
C 370.796048 110.48 371.482866 110.195511 371.989188 109.689188 
C 372.495511 109.182866 372.78 108.496048 372.78 107.78 
C 372.78 107.063952 372.495511 106.377134 371.989188 105.870812 
C 371.482866 105.364489 370.796048 105.08 370.08 105.08 
C 369.363952 105.08 368.677134 105.364489 368.170812 105.870812 
C 367.664489 106.377134 367.38 107.063952 367.38 107.78 
C 367.38 108.496048 367.664489 109.182866 368.170812 109.689188 
C 368.677134 110.195511 369.363952 110.48 370.08 110.48 
z
" clip-path="url(#p039ba9a93a)" style="fill: #ffffff; stroke: #000000; stroke-width: 2; stroke-linejoin: miter"/>
   </g>
   <g id="text_13">
    <!-- 1-(AD3) -->
    <g transform="translate(343.006406 98.568437) scale(0.14 -0.14)">
     <defs>
      <path id="DejaVuSans-2d" d="M 313 2009 
L 1997 2009 
L 1997 1497 
L 313 1497 
L 313 2009 
z
" transform="scale(0.015625)"/>
     </defs>
     <use xlink:href="#DejaVuSans-31"/>
     <use xlink:href="#DejaVuSans-2d" transform="translate(63.623047 0)"/>
     <use xlink:href="#DejaVuSans-28" transform="translate(99.707031 0)"/>
     <use xlink:href="#DejaVuSans-41" transform="translate(138.720703 0)"/>
     <use xlink:href="#DejaVuSans-44" transform="translate(207.128906 0)"/>
     <use xlink:href="#DejaVuSans-33" transform="translate(284.130859 0)"/>
     <use xlink:href="#DejaVuSans-29" transform="translate(347.753906 0)"/>
    </g>
   </g>
  </g>
 </g>
 <defs>
  <clipPath id="p039ba9a93a">
   <rect x="0" y="-0" width="401.720286" height="225.5"/>
  </clipPath>
 </defs>
</svg>
