<?xml version="1.0" encoding="utf-8" standalone="no"?>
<!DOCTYPE svg PUBLIC "-//W3C//DTD SVG 1.1//EN"
  "http://www.w3.org/Graphics/SVG/1.1/DTD/svg11.dtd">
<svg xmlns:xlink="http://www.w3.org/1999/xlink" width="357.302286pt" height="212.4pt" viewBox="0 0 357.302286 212.4" xmlns="http://www.w3.org/2000/svg" version="1.1">
 <metadata>
  <rdf:RDF xmlns:dc="http://purl.org/dc/elements/1.1/" xmlns:cc="http://creativecommons.org/ns#" xmlns:rdf="http://www.w3.org/1999/02/22-rdf-syntax-ns#">
   <cc:Work>
    <dc:type rdf:resource="http://purl.org/dc/dcmitype/StillImage"/>
    <dc:date>2025-09-10T02:59:54.110327</dc:date>
    <dc:format>image/svg+xml</dc:format>
    <dc:creator>
     <cc:Agent>
      <dc:title>Matplotlib v3.10.0, https://matplotlib.org/</dc:title>
     </cc:Agent>
    </dc:creator>
   </cc:Work>
  </rdf:RDF>
 </metadata>
 <defs>
  <style type="text/css">*{stroke-linejoin: round; stroke-linecap: butt}</style>
 </defs>
 <g id="figure_1">
  <g id="patch_1">
   <path d="M 0 212.4 
L 357.302286 212.4 
L 357.302286 0 
L 0 0 
z
" style="fill: #ffffff"/>
  </g>
  <g id="axes_1">
   <g id="patch_2">
    <path d="M 22.68 121.68 
C 27.453656 121.68 32.032438 119.783406 35.407922 116.407922 
C 38.783406 113.032438 40.68 108.453656 40.68 103.68 
C 40.68 98.906344 38.783406 94.327562 35.407922 90.952078 
C 32.032438 87.576594 27.453656 85.68 22.68 85.68 
C 17.906344 85.68 13.327562 87.576594 9.952078 90.952078 
C 6.576594 94.327562 4.68 98.906344 4.68 103.68 
C 4.68 108.453656 6.576594 113.032438 9.952078 116.407922 
C 13.327562 119.783406 17.906344 121.68 22.68 121.68 
L 22.68 121.68 
z
" clip-path="url(#pa71d54e73b)" style="fill: none; stroke: #000000; stroke-width: 2; stroke-linejoin: miter"/>
   </g>
   <g id="patch_3">
    <path d="M 334.622286 144.18 
C 339.395942 144.18 343.974724 142.283406 347.350208 138.907922 
C 350.725693 135.532438 352.622286 130.953656 352.622286 126.18 
C 352.622286 121.406344 350.725693 116.827562 347.350208 113.452078 
C 343.974724 110.076594 339.395942 108.18 334.622286 108.18 
C 329.848631 108.18 325.269849 110.076594 321.894364 113.452078 
C 318.51888 116.827562 316.622286 121.406344 316.622286 126.18 
C 316.622286 130.953656 318.51888 135.532438 321.894364 138.907922 
C 325.269849 142.283406 329.848631 144.18 334.622286 144.18 
L 334.622286 144.18 
z
" clip-path="url(#pa71d54e73b)" style="fill: none; stroke: #000000; stroke-width: 2; stroke-linejoin: miter"/>
   </g>
   <g id="line2d_1">
    <path d="M 22.68 184.68 
L 22.68 199.08 
L 13.68 199.08 
L 31.68 199.08 
M 16.38 203.4 
L 28.98 203.4 
M 20.88 207.72 
L 24.48 207.72 
" clip-path="url(#pa71d54e73b)" style="fill: none; stroke: #000000; stroke-width: 2; stroke-linecap: round"/>
   </g>
   <g id="line2d_2">
    <path d="M 22.68 184.68 
L 22.68 171.18 
L 22.68 157.68 
" clip-path="url(#pa71d54e73b)" style="fill: none; stroke: #000000; stroke-width: 2; stroke-linecap: round"/>
   </g>
   <g id="line2d_3">
    <path d="M 22.68 157.68 
L 22.68 121.68 
L 22.68 121.68 
M 22.68 85.68 
L 22.68 85.68 
L 22.68 49.68 
" clip-path="url(#pa71d54e73b)" style="fill: none; stroke: #000000; stroke-width: 2; stroke-linecap: round"/>
   </g>
   <g id="line2d_4">
    <path d="M 31.68 103.68 
L 30.93 101.816503 
L 30.18 100.08 
L 29.43 98.588831 
L 28.68 97.444617 
L 27.93 96.725334 
L 27.18 96.48 
L 26.43 96.725334 
L 25.68 97.444617 
L 24.93 98.588831 
L 24.18 100.08 
L 23.43 101.816503 
L 22.68 103.68 
L 21.93 105.543497 
L 21.18 107.28 
L 20.43 108.771169 
L 19.68 109.915383 
L 18.93 110.634666 
L 18.18 110.88 
L 17.43 110.634666 
L 16.68 109.915383 
L 15.93 108.771169 
L 15.18 107.28 
L 14.43 105.543497 
L 13.68 103.68 
" clip-path="url(#pa71d54e73b)" style="fill: none; stroke: #000000; stroke-width: 2; stroke-linecap: round"/>
   </g>
   <g id="line2d_5">
    <path d="M 22.68 49.68 
L 22.68 36.18 
L 22.68 22.68 
" clip-path="url(#pa71d54e73b)" style="fill: none; stroke: #000000; stroke-width: 2; stroke-linecap: round"/>
   </g>
   <g id="line2d_6">
    <path d="M 22.68 22.68 
L 64.98 22.68 
M 88.38 22.68 
L 130.68 22.68 
" clip-path="url(#pa71d54e73b)" style="fill: none; stroke: #000000; stroke-width: 2; stroke-linecap: round"/>
   </g>
   <g id="line2d_7">
    <path d="M 64.98 4.68 
L 88.38 22.68 
L 64.98 40.68 
L 64.98 4.68 
" clip-path="url(#pa71d54e73b)" style="fill: none; stroke: #000000; stroke-width: 2; stroke-linecap: round"/>
   </g>
   <g id="line2d_8">
    <path d="M 130.68 22.68 
L 130.68 36.18 
L 130.68 49.68 
" clip-path="url(#pa71d54e73b)" style="fill: none; stroke: #000000; stroke-width: 2; stroke-linecap: round"/>
   </g>
   <g id="line2d_9">
    <path d="M 103.68 75.6 
L 112.68 75.6 
L 115.68 66.6 
L 121.68 84.6 
L 127.68 66.6 
L 133.68 84.6 
L 139.68 66.6 
L 145.68 84.6 
L 148.68 75.6 
L 157.68 75.6 
" clip-path="url(#pa71d54e73b)" style="fill: none; stroke: #000000; stroke-width: 2; stroke-linecap: round"/>
   </g>
   <g id="line2d_10">
    <path d="M 130.68 49.68 
L 130.68 57.6 
" clip-path="url(#pa71d54e73b)" style="fill: none; stroke: #000000; stroke-width: 2; stroke-linecap: round"/>
   </g>
   <g id="patch_4">
    <path d="M 133.38 57.6 
L 130.68 66.6 
L 127.98 57.6 
z
" clip-path="url(#pa71d54e73b)"/>
   </g>
   <g id="line2d_11">
    <path d="M 103.68 75.6 
L 103.68 89.1 
L 103.68 102.6 
" clip-path="url(#pa71d54e73b)" style="fill: none; stroke: #000000; stroke-width: 2; stroke-linecap: round"/>
   </g>
   <g id="line2d_12">
    <path d="M 103.68 102.6 
L 103.68 111.6 
L 106.644187 111.73407 
L 109.635107 112.14176 
L 112.401917 112.814001 
L 114.712568 113.719538 
L 115.634308 114.244567 
L 116.373271 114.807547 
L 116.913881 115.399767 
L 117.244744 116.011902 
L 117.358884 116.634207 
L 117.253898 117.25672 
L 116.931996 117.869478 
L 116.399965 118.462723 
L 115.669018 119.027106 
L 114.754564 119.553888 
L 112.455691 120.463825 
L 109.69615 121.141342 
L 106.70738 121.55474 
L 103.740043 121.694472 
L 101.043006 121.573942 
L 98.842465 121.228382 
L 97.322976 120.711898 
L 96.861011 120.410537 
L 96.611977 120.092928 
L 96.581122 119.768923 
L 96.769097 119.448509 
L 97.17194 119.141597 
L 98.583915 118.606292 
L 100.698626 118.233029 
L 103.338716 118.078236 
L 106.282764 118.180019 
L 109.283858 118.554963 
L 112.0903 119.196748 
L 114.466719 120.076671 
L 115.429494 120.591402 
L 116.213808 121.146057 
L 116.803131 121.732102 
L 117.185041 122.340342 
L 117.351487 122.961113 
L 117.298962 123.584487 
L 117.028572 124.200482 
L 116.546017 124.799271 
L 115.861468 125.37139 
L 114.989355 125.907935 
L 112.759529 126.842621 
L 110.043553 127.55006 
L 107.069211 127.996046 
L 104.085956 128.168297 
L 101.34399 128.07749 
L 99.073277 127.756365 
L 97.464258 127.256977 
L 96.952569 126.960936 
L 96.65188 126.646332 
L 96.568529 126.322952 
L 96.704275 126.000768 
L 97.056254 125.689731 
L 97.617048 125.399551 
L 99.313648 124.918228 
L 101.651782 124.622289 
L 104.435355 124.561678 
L 107.430913 124.766602 
L 110.387224 125.244998 
L 113.056345 125.981866 
L 115.214422 126.940531 
L 116.043138 127.486371 
L 116.68046 128.065713 
L 117.112955 128.669502 
L 117.331505 129.288169 
L 117.331505 129.911831 
L 117.112955 130.530498 
L 116.68046 131.134287 
L 116.043138 131.713629 
L 115.214422 132.259469 
L 114.21178 132.76346 
L 111.772473 133.617065 
L 108.929798 134.227979 
L 105.922165 134.570087 
L 103.001822 134.639821 
L 100.413691 134.456457 
L 98.374837 134.060496 
L 97.056254 133.510269 
L 96.704275 133.199232 
L 96.568529 132.877048 
L 96.65188 132.553668 
L 96.952569 132.239064 
L 97.464258 131.943023 
L 99.073277 131.443635 
L 101.34399 131.12251 
L 104.085956 131.031703 
L 107.069211 131.203954 
L 110.043553 131.64994 
L 112.759529 132.357379 
L 114.989355 133.292065 
L 115.861468 133.82861 
L 116.546017 134.400729 
L 117.028572 134.999518 
L 117.298962 135.615513 
L 117.351487 136.238887 
L 117.185041 136.859658 
L 116.803131 137.467898 
L 116.213808 138.053943 
L 115.429494 138.608598 
L 114.466719 139.123329 
L 112.0903 140.003252 
L 109.283858 140.645037 
L 106.282764 141.019981 
L 103.338716 141.121764 
L 100.698626 140.966971 
L 98.583915 140.593708 
L 97.17194 140.058403 
L 96.769097 139.751491 
L 96.581122 139.431077 
L 96.611977 139.107072 
L 96.861011 138.789463 
L 97.322976 138.488102 
L 98.842465 137.971618 
L 101.043006 137.626058 
L 103.740043 137.505528 
L 106.70738 137.64526 
L 109.69615 138.058658 
L 112.455691 138.736175 
L 114.754564 139.646112 
L 115.669018 140.172894 
L 116.399965 140.737277 
L 116.931996 141.330522 
L 117.253898 141.94328 
L 117.358884 142.565793 
L 117.244744 143.188098 
L 116.913881 143.800233 
L 116.373271 144.392453 
L 115.634308 144.955433 
L 114.712568 145.480462 
L 112.401917 146.385999 
L 109.635107 147.05824 
L 106.644187 147.46593 
L 103.68 147.6 
L 103.68 156.6 
L 103.68 156.6 
" clip-path="url(#pa71d54e73b)" style="fill: none; stroke: #000000; stroke-width: 2; stroke-linecap: round"/>
   </g>
   <g id="line2d_13">
    <path d="M 103.68 156.6 
L 103.68 170.1 
L 103.68 183.6 
" clip-path="url(#pa71d54e73b)" style="fill: none; stroke: #000000; stroke-width: 2; stroke-linecap: round"/>
   </g>
   <g id="line2d_14">
    <path d="M 103.68 183.6 
L 117.18 183.6 
L 130.68 183.6 
" clip-path="url(#pa71d54e73b)" style="fill: none; stroke: #000000; stroke-width: 2; stroke-linecap: round"/>
   </g>
   <g id="line2d_15">
    <path d="M 157.68 75.6 
L 157.68 89.1 
L 157.68 102.6 
" clip-path="url(#pa71d54e73b)" style="fill: none; stroke: #000000; stroke-width: 2; stroke-linecap: round"/>
   </g>
   <g id="line2d_16">
    <path d="M 157.68 102.6 
L 157.68 111.6 
L 160.644187 111.73407 
L 163.635107 112.14176 
L 166.401917 112.814001 
L 168.712568 113.719538 
L 169.634308 114.244567 
L 170.373271 114.807547 
L 170.913881 115.399767 
L 171.244744 116.011902 
L 171.358884 116.634207 
L 171.253898 117.25672 
L 170.931996 117.869478 
L 170.399965 118.462723 
L 169.669018 119.027106 
L 168.754564 119.553888 
L 166.455691 120.463825 
L 163.69615 121.141342 
L 160.70738 121.55474 
L 157.740043 121.694472 
L 155.043006 121.573942 
L 152.842465 121.228382 
L 151.322976 120.711898 
L 150.861011 120.410537 
L 150.611977 120.092928 
L 150.581122 119.768923 
L 150.769097 119.448509 
L 151.17194 119.141597 
L 152.583915 118.606292 
L 154.698626 118.233029 
L 157.338716 118.078236 
L 160.282764 118.180019 
L 163.283858 118.554963 
L 166.0903 119.196748 
L 168.466719 120.076671 
L 169.429494 120.591402 
L 170.213808 121.146057 
L 170.803131 121.732102 
L 171.185041 122.340342 
L 171.351487 122.961113 
L 171.298962 123.584487 
L 171.028572 124.200482 
L 170.546017 124.799271 
L 169.861468 125.37139 
L 168.989355 125.907935 
L 166.759529 126.842621 
L 164.043553 127.55006 
L 161.069211 127.996046 
L 158.085956 128.168297 
L 155.34399 128.07749 
L 153.073277 127.756365 
L 151.464258 127.256977 
L 150.952569 126.960936 
L 150.65188 126.646332 
L 150.568529 126.322952 
L 150.704275 126.000768 
L 151.056254 125.689731 
L 151.617048 125.399551 
L 153.313648 124.918228 
L 155.651782 124.622289 
L 158.435355 124.561678 
L 161.430913 124.766602 
L 164.387224 125.244998 
L 167.056345 125.981866 
L 169.214422 126.940531 
L 170.043138 127.486371 
L 170.68046 128.065713 
L 171.112955 128.669502 
L 171.331505 129.288169 
L 171.331505 129.911831 
L 171.112955 130.530498 
L 170.68046 131.134287 
L 170.043138 131.713629 
L 169.214422 132.259469 
L 168.21178 132.76346 
L 165.772473 133.617065 
L 162.929798 134.227979 
L 159.922165 134.570087 
L 157.001822 134.639821 
L 154.413691 134.456457 
L 152.374837 134.060496 
L 151.056254 133.510269 
L 150.704275 133.199232 
L 150.568529 132.877048 
L 150.65188 132.553668 
L 150.952569 132.239064 
L 151.464258 131.943023 
L 153.073277 131.443635 
L 155.34399 131.12251 
L 158.085956 131.031703 
L 161.069211 131.203954 
L 164.043553 131.64994 
L 166.759529 132.357379 
L 168.989355 133.292065 
L 169.861468 133.82861 
L 170.546017 134.400729 
L 171.028572 134.999518 
L 171.298962 135.615513 
L 171.351487 136.238887 
L 171.185041 136.859658 
L 170.803131 137.467898 
L 170.213808 138.053943 
L 169.429494 138.608598 
L 168.466719 139.123329 
L 166.0903 140.003252 
L 163.283858 140.645037 
L 160.282764 141.019981 
L 157.338716 141.121764 
L 154.698626 140.966971 
L 152.583915 140.593708 
L 151.17194 140.058403 
L 150.769097 139.751491 
L 150.581122 139.431077 
L 150.611977 139.107072 
L 150.861011 138.789463 
L 151.322976 138.488102 
L 152.842465 137.971618 
L 155.043006 137.626058 
L 157.740043 137.505528 
L 160.70738 137.64526 
L 163.69615 138.058658 
L 166.455691 138.736175 
L 168.754564 139.646112 
L 169.669018 140.172894 
L 170.399965 140.737277 
L 170.931996 141.330522 
L 171.253898 141.94328 
L 171.358884 142.565793 
L 171.244744 143.188098 
L 170.913881 143.800233 
L 170.373271 144.392453 
L 169.634308 144.955433 
L 168.712568 145.480462 
L 166.401917 146.385999 
L 163.635107 147.05824 
L 160.644187 147.46593 
L 157.68 147.6 
L 157.68 156.6 
L 157.68 156.6 
" clip-path="url(#pa71d54e73b)" style="fill: none; stroke: #000000; stroke-width: 2; stroke-linecap: round"/>
   </g>
   <g id="line2d_17">
    <path d="M 157.68 156.6 
L 157.68 170.1 
L 157.68 183.6 
" clip-path="url(#pa71d54e73b)" style="fill: none; stroke: #000000; stroke-width: 2; stroke-linecap: round"/>
   </g>
   <g id="line2d_18">
    <path d="M 157.68 183.6 
L 144.18 183.6 
L 130.68 183.6 
" clip-path="url(#pa71d54e73b)" style="fill: none; stroke: #000000; stroke-width: 2; stroke-linecap: round"/>
   </g>
   <g id="line2d_19">
    <path d="M 130.68 183.6 
L 130.68 198 
L 121.68 198 
L 139.68 198 
M 124.38 202.32 
L 136.98 202.32 
M 128.88 206.64 
L 132.48 206.64 
" clip-path="url(#pa71d54e73b)" style="fill: none; stroke: #000000; stroke-width: 2; stroke-linecap: round"/>
   </g>
   <g id="line2d_20">
    <path d="M 202.68 94.68 
L 216.18 94.68 
L 229.68 94.68 
" clip-path="url(#pa71d54e73b)" style="fill: none; stroke: #000000; stroke-width: 2; stroke-linecap: round"/>
   </g>
   <g id="line2d_21">
    <path d="M 229.68 72.18 
L 229.68 27.18 
L 307.622286 72.18 
L 229.68 117.18 
L 229.68 72.18 
M 307.622286 72.18 
" clip-path="url(#pa71d54e73b)" style="fill: none; stroke: #000000; stroke-width: 2; stroke-linecap: round"/>
   </g>
   <g id="line2d_22">
    <path d="M 235.822786 49.68 
L 243.022786 49.68 
" clip-path="url(#pa71d54e73b)" style="fill: none; stroke: #000000; stroke-width: 2; stroke-linecap: round"/>
   </g>
   <g id="line2d_23">
    <path d="M 235.822786 94.68 
L 243.022786 94.68 
" clip-path="url(#pa71d54e73b)" style="fill: none; stroke: #000000; stroke-width: 2; stroke-linecap: round"/>
   </g>
   <g id="line2d_24">
    <path d="M 239.422786 98.28 
L 239.422786 91.08 
" clip-path="url(#pa71d54e73b)" style="fill: none; stroke: #000000; stroke-width: 2; stroke-linecap: round"/>
   </g>
   <g id="line2d_25">
    <path d="M 229.68 49.68 
L 216.18 49.68 
L 202.68 49.68 
" clip-path="url(#pa71d54e73b)" style="fill: none; stroke: #000000; stroke-width: 2; stroke-linecap: round"/>
   </g>
   <g id="line2d_26">
    <path d="M 307.622286 72.18 
L 321.122286 72.18 
L 334.622286 72.18 
" clip-path="url(#pa71d54e73b)" style="fill: none; stroke: #000000; stroke-width: 2; stroke-linecap: round"/>
   </g>
   <g id="line2d_27">
    <path d="M 334.622286 72.18 
L 334.622286 108.18 
L 334.622286 108.18 
M 334.622286 144.18 
L 334.622286 144.18 
L 334.622286 180.18 
" clip-path="url(#pa71d54e73b)" style="fill: none; stroke: #000000; stroke-width: 2; stroke-linecap: round"/>
   </g>
   <g id="line2d_28">
    <path d="M 334.622286 180.18 
L 334.622286 194.58 
L 325.622286 194.58 
L 343.622286 194.58 
M 328.322286 198.9 
L 340.922286 198.9 
M 332.822286 203.22 
L 336.422286 203.22 
" clip-path="url(#pa71d54e73b)" style="fill: none; stroke: #000000; stroke-width: 2; stroke-linecap: round"/>
   </g>
   <g id="text_1">
    <!-- $100\Omega$ -->
    <g transform="translate(111.92 98.837812) scale(0.14 -0.14)">
     <defs>
      <path id="DejaVuSans-31" d="M 794 531 
L 1825 531 
L 1825 4091 
L 703 3866 
L 703 4441 
L 1819 4666 
L 2450 4666 
L 2450 531 
L 3481 531 
L 3481 0 
L 794 0 
L 794 531 
z
" transform="scale(0.015625)"/>
      <path id="DejaVuSans-30" d="M 2034 4250 
Q 1547 4250 1301 3770 
Q 1056 3291 1056 2328 
Q 1056 1369 1301 889 
Q 1547 409 2034 409 
Q 2525 409 2770 889 
Q 3016 1369 3016 2328 
Q 3016 3291 2770 3770 
Q 2525 4250 2034 4250 
z
M 2034 4750 
Q 2819 4750 3233 4129 
Q 3647 3509 3647 2328 
Q 3647 1150 3233 529 
Q 2819 -91 2034 -91 
Q 1250 -91 836 529 
Q 422 1150 422 2328 
Q 422 3509 836 4129 
Q 1250 4750 2034 4750 
z
" transform="scale(0.015625)"/>
      <path id="DejaVuSans-3a9" d="M 4647 556 
L 4647 0 
L 2772 0 
L 2772 556 
Q 3325 859 3634 1378 
Q 3944 1897 3944 2528 
Q 3944 3278 3531 3731 
Q 3119 4184 2444 4184 
Q 1769 4184 1355 3729 
Q 941 3275 941 2528 
Q 941 1897 1250 1378 
Q 1563 859 2119 556 
L 2119 0 
L 244 0 
L 244 556 
L 1241 556 
Q 747 991 519 1456 
Q 294 1922 294 2497 
Q 294 3491 894 4106 
Q 1491 4722 2444 4722 
Q 3391 4722 3994 4106 
Q 4594 3494 4594 2528 
Q 4594 1922 4372 1459 
Q 4150 997 3647 556 
L 4647 556 
z
" transform="scale(0.015625)"/>
     </defs>
     <use xlink:href="#DejaVuSans-31" transform="translate(0 0.78125)"/>
     <use xlink:href="#DejaVuSans-30" transform="translate(63.623047 0.78125)"/>
     <use xlink:href="#DejaVuSans-30" transform="translate(127.246094 0.78125)"/>
     <use xlink:href="#DejaVuSans-3a9" transform="translate(190.869141 0.78125)"/>
    </g>
   </g>
   <g id="text_2">
    <!-- $L_2$ -->
    <g transform="translate(78.548529 133.463125) scale(0.14 -0.14)">
     <defs>
      <path id="DejaVuSans-Oblique-4c" d="M 1075 4666 
L 1709 4666 
L 909 525 
L 3181 525 
L 3078 0 
L 172 0 
L 1075 4666 
z
" transform="scale(0.015625)"/>
      <path id="DejaVuSans-32" d="M 1228 531 
L 3431 531 
L 3431 0 
L 469 0 
L 469 531 
Q 828 903 1448 1529 
Q 2069 2156 2228 2338 
Q 2531 2678 2651 2914 
Q 2772 3150 2772 3378 
Q 2772 3750 2511 3984 
Q 2250 4219 1831 4219 
Q 1534 4219 1204 4116 
Q 875 4013 500 3803 
L 500 4441 
Q 881 4594 1212 4672 
Q 1544 4750 1819 4750 
Q 2544 4750 2975 4387 
Q 3406 4025 3406 3419 
Q 3406 3131 3298 2873 
Q 3191 2616 2906 2266 
Q 2828 2175 2409 1742 
Q 1991 1309 1228 531 
z
" transform="scale(0.015625)"/>
     </defs>
     <use xlink:href="#DejaVuSans-Oblique-4c" transform="translate(0 0.09375)"/>
     <use xlink:href="#DejaVuSans-32" transform="translate(55.712891 -16.3125) scale(0.7)"/>
    </g>
   </g>
   <g id="patch_5">
    <path d="M 130.68 186.3 
C 131.396048 186.3 132.082866 186.015511 132.589188 185.509188 
C 133.095511 185.002866 133.38 184.316048 133.38 183.6 
C 133.38 182.883952 133.095511 182.197134 132.589188 181.690812 
C 132.082866 181.184489 131.396048 180.9 130.68 180.9 
C 129.963952 180.9 129.277134 181.184489 128.770812 181.690812 
C 128.264489 182.197134 127.98 182.883952 127.98 183.6 
C 127.98 184.316048 128.264489 185.002866 128.770812 185.509188 
C 129.277134 186.015511 129.963952 186.3 130.68 186.3 
z
" clip-path="url(#pa71d54e73b)" style="stroke: #000000; stroke-width: 2; stroke-linejoin: miter"/>
   </g>
   <g id="text_3">
    <!-- $L_3$ -->
    <g transform="translate(174.958884 133.463125) scale(0.14 -0.14)">
     <defs>
      <path id="DejaVuSans-33" d="M 2597 2516 
Q 3050 2419 3304 2112 
Q 3559 1806 3559 1356 
Q 3559 666 3084 287 
Q 2609 -91 1734 -91 
Q 1441 -91 1130 -33 
Q 819 25 488 141 
L 488 750 
Q 750 597 1062 519 
Q 1375 441 1716 441 
Q 2309 441 2620 675 
Q 2931 909 2931 1356 
Q 2931 1769 2642 2001 
Q 2353 2234 1838 2234 
L 1294 2234 
L 1294 2753 
L 1863 2753 
Q 2328 2753 2575 2939 
Q 2822 3125 2822 3475 
Q 2822 3834 2567 4026 
Q 2313 4219 1838 4219 
Q 1578 4219 1281 4162 
Q 984 4106 628 3988 
L 628 4550 
Q 988 4650 1302 4700 
Q 1616 4750 1894 4750 
Q 2613 4750 3031 4423 
Q 3450 4097 3450 3541 
Q 3450 3153 3228 2886 
Q 3006 2619 2597 2516 
z
" transform="scale(0.015625)"/>
     </defs>
     <use xlink:href="#DejaVuSans-Oblique-4c" transform="translate(0 0.09375)"/>
     <use xlink:href="#DejaVuSans-33" transform="translate(55.712891 -16.3125) scale(0.7)"/>
    </g>
   </g>
   <g id="text_4">
    <!-- Instrumentation amp. -->
    <g transform="translate(192.439737 20.668437) scale(0.14 -0.14)">
     <defs>
      <path id="DejaVuSans-49" d="M 628 4666 
L 1259 4666 
L 1259 0 
L 628 0 
L 628 4666 
z
" transform="scale(0.015625)"/>
      <path id="DejaVuSans-6e" d="M 3513 2113 
L 3513 0 
L 2938 0 
L 2938 2094 
Q 2938 2591 2744 2837 
Q 2550 3084 2163 3084 
Q 1697 3084 1428 2787 
Q 1159 2491 1159 1978 
L 1159 0 
L 581 0 
L 581 3500 
L 1159 3500 
L 1159 2956 
Q 1366 3272 1645 3428 
Q 1925 3584 2291 3584 
Q 2894 3584 3203 3211 
Q 3513 2838 3513 2113 
z
" transform="scale(0.015625)"/>
      <path id="DejaVuSans-73" d="M 2834 3397 
L 2834 2853 
Q 2591 2978 2328 3040 
Q 2066 3103 1784 3103 
Q 1356 3103 1142 2972 
Q 928 2841 928 2578 
Q 928 2378 1081 2264 
Q 1234 2150 1697 2047 
L 1894 2003 
Q 2506 1872 2764 1633 
Q 3022 1394 3022 966 
Q 3022 478 2636 193 
Q 2250 -91 1575 -91 
Q 1294 -91 989 -36 
Q 684 19 347 128 
L 347 722 
Q 666 556 975 473 
Q 1284 391 1588 391 
Q 1994 391 2212 530 
Q 2431 669 2431 922 
Q 2431 1156 2273 1281 
Q 2116 1406 1581 1522 
L 1381 1569 
Q 847 1681 609 1914 
Q 372 2147 372 2553 
Q 372 3047 722 3315 
Q 1072 3584 1716 3584 
Q 2034 3584 2315 3537 
Q 2597 3491 2834 3397 
z
" transform="scale(0.015625)"/>
      <path id="DejaVuSans-74" d="M 1172 4494 
L 1172 3500 
L 2356 3500 
L 2356 3053 
L 1172 3053 
L 1172 1153 
Q 1172 725 1289 603 
Q 1406 481 1766 481 
L 2356 481 
L 2356 0 
L 1766 0 
Q 1100 0 847 248 
Q 594 497 594 1153 
L 594 3053 
L 172 3053 
L 172 3500 
L 594 3500 
L 594 4494 
L 1172 4494 
z
" transform="scale(0.015625)"/>
      <path id="DejaVuSans-72" d="M 2631 2963 
Q 2534 3019 2420 3045 
Q 2306 3072 2169 3072 
Q 1681 3072 1420 2755 
Q 1159 2438 1159 1844 
L 1159 0 
L 581 0 
L 581 3500 
L 1159 3500 
L 1159 2956 
Q 1341 3275 1631 3429 
Q 1922 3584 2338 3584 
Q 2397 3584 2469 3576 
Q 2541 3569 2628 3553 
L 2631 2963 
z
" transform="scale(0.015625)"/>
      <path id="DejaVuSans-75" d="M 544 1381 
L 544 3500 
L 1119 3500 
L 1119 1403 
Q 1119 906 1312 657 
Q 1506 409 1894 409 
Q 2359 409 2629 706 
Q 2900 1003 2900 1516 
L 2900 3500 
L 3475 3500 
L 3475 0 
L 2900 0 
L 2900 538 
Q 2691 219 2414 64 
Q 2138 -91 1772 -91 
Q 1169 -91 856 284 
Q 544 659 544 1381 
z
M 1991 3584 
L 1991 3584 
z
" transform="scale(0.015625)"/>
      <path id="DejaVuSans-6d" d="M 3328 2828 
Q 3544 3216 3844 3400 
Q 4144 3584 4550 3584 
Q 5097 3584 5394 3201 
Q 5691 2819 5691 2113 
L 5691 0 
L 5113 0 
L 5113 2094 
Q 5113 2597 4934 2840 
Q 4756 3084 4391 3084 
Q 3944 3084 3684 2787 
Q 3425 2491 3425 1978 
L 3425 0 
L 2847 0 
L 2847 2094 
Q 2847 2600 2669 2842 
Q 2491 3084 2119 3084 
Q 1678 3084 1418 2786 
Q 1159 2488 1159 1978 
L 1159 0 
L 581 0 
L 581 3500 
L 1159 3500 
L 1159 2956 
Q 1356 3278 1631 3431 
Q 1906 3584 2284 3584 
Q 2666 3584 2933 3390 
Q 3200 3197 3328 2828 
z
" transform="scale(0.015625)"/>
      <path id="DejaVuSans-65" d="M 3597 1894 
L 3597 1613 
L 953 1613 
Q 991 1019 1311 708 
Q 1631 397 2203 397 
Q 2534 397 2845 478 
Q 3156 559 3463 722 
L 3463 178 
Q 3153 47 2828 -22 
Q 2503 -91 2169 -91 
Q 1331 -91 842 396 
Q 353 884 353 1716 
Q 353 2575 817 3079 
Q 1281 3584 2069 3584 
Q 2775 3584 3186 3129 
Q 3597 2675 3597 1894 
z
M 3022 2063 
Q 3016 2534 2758 2815 
Q 2500 3097 2075 3097 
Q 1594 3097 1305 2825 
Q 1016 2553 972 2059 
L 3022 2063 
z
" transform="scale(0.015625)"/>
      <path id="DejaVuSans-61" d="M 2194 1759 
Q 1497 1759 1228 1600 
Q 959 1441 959 1056 
Q 959 750 1161 570 
Q 1363 391 1709 391 
Q 2188 391 2477 730 
Q 2766 1069 2766 1631 
L 2766 1759 
L 2194 1759 
z
M 3341 1997 
L 3341 0 
L 2766 0 
L 2766 531 
Q 2569 213 2275 61 
Q 1981 -91 1556 -91 
Q 1019 -91 701 211 
Q 384 513 384 1019 
Q 384 1609 779 1909 
Q 1175 2209 1959 2209 
L 2766 2209 
L 2766 2266 
Q 2766 2663 2505 2880 
Q 2244 3097 1772 3097 
Q 1472 3097 1187 3025 
Q 903 2953 641 2809 
L 641 3341 
Q 956 3463 1253 3523 
Q 1550 3584 1831 3584 
Q 2591 3584 2966 3190 
Q 3341 2797 3341 1997 
z
" transform="scale(0.015625)"/>
      <path id="DejaVuSans-69" d="M 603 3500 
L 1178 3500 
L 1178 0 
L 603 0 
L 603 3500 
z
M 603 4863 
L 1178 4863 
L 1178 4134 
L 603 4134 
L 603 4863 
z
" transform="scale(0.015625)"/>
      <path id="DejaVuSans-6f" d="M 1959 3097 
Q 1497 3097 1228 2736 
Q 959 2375 959 1747 
Q 959 1119 1226 758 
Q 1494 397 1959 397 
Q 2419 397 2687 759 
Q 2956 1122 2956 1747 
Q 2956 2369 2687 2733 
Q 2419 3097 1959 3097 
z
M 1959 3584 
Q 2709 3584 3137 3096 
Q 3566 2609 3566 1747 
Q 3566 888 3137 398 
Q 2709 -91 1959 -91 
Q 1206 -91 779 398 
Q 353 888 353 1747 
Q 353 2609 779 3096 
Q 1206 3584 1959 3584 
z
" transform="scale(0.015625)"/>
      <path id="DejaVuSans-20" transform="scale(0.015625)"/>
      <path id="DejaVuSans-70" d="M 1159 525 
L 1159 -1331 
L 581 -1331 
L 581 3500 
L 1159 3500 
L 1159 2969 
Q 1341 3281 1617 3432 
Q 1894 3584 2278 3584 
Q 2916 3584 3314 3078 
Q 3713 2572 3713 1747 
Q 3713 922 3314 415 
Q 2916 -91 2278 -91 
Q 1894 -91 1617 61 
Q 1341 213 1159 525 
z
M 3116 1747 
Q 3116 2381 2855 2742 
Q 2594 3103 2138 3103 
Q 1681 3103 1420 2742 
Q 1159 2381 1159 1747 
Q 1159 1113 1420 752 
Q 1681 391 2138 391 
Q 2594 391 2855 752 
Q 3116 1113 3116 1747 
z
" transform="scale(0.015625)"/>
      <path id="DejaVuSans-2e" d="M 684 794 
L 1344 794 
L 1344 0 
L 684 0 
L 684 794 
z
" transform="scale(0.015625)"/>
     </defs>
     <use xlink:href="#DejaVuSans-49"/>
     <use xlink:href="#DejaVuSans-6e" transform="translate(29.492188 0)"/>
     <use xlink:href="#DejaVuSans-73" transform="translate(92.871094 0)"/>
     <use xlink:href="#DejaVuSans-74" transform="translate(144.970703 0)"/>
     <use xlink:href="#DejaVuSans-72" transform="translate(184.179688 0)"/>
     <use xlink:href="#DejaVuSans-75" transform="translate(225.292969 0)"/>
     <use xlink:href="#DejaVuSans-6d" transform="translate(288.671875 0)"/>
     <use xlink:href="#DejaVuSans-65" transform="translate(386.083984 0)"/>
     <use xlink:href="#DejaVuSans-6e" transform="translate(447.607422 0)"/>
     <use xlink:href="#DejaVuSans-74" transform="translate(510.986328 0)"/>
     <use xlink:href="#DejaVuSans-61" transform="translate(550.195312 0)"/>
     <use xlink:href="#DejaVuSans-74" transform="translate(611.474609 0)"/>
     <use xlink:href="#DejaVuSans-69" transform="translate(650.683594 0)"/>
     <use xlink:href="#DejaVuSans-6f" transform="translate(678.466797 0)"/>
     <use xlink:href="#DejaVuSans-6e" transform="translate(739.648438 0)"/>
     <use xlink:href="#DejaVuSans-20" transform="translate(803.027344 0)"/>
     <use xlink:href="#DejaVuSans-61" transform="translate(834.814453 0)"/>
     <use xlink:href="#DejaVuSans-6d" transform="translate(896.09375 0)"/>
     <use xlink:href="#DejaVuSans-70" transform="translate(993.505859 0)"/>
     <use xlink:href="#DejaVuSans-2e" transform="translate(1056.982422 0)"/>
    </g>
   </g>
   <g id="text_5">
    <!-- V -->
    <g transform="translate(329.833849 130.043125) scale(0.14 -0.14)">
     <defs>
      <path id="DejaVuSans-56" d="M 1831 0 
L 50 4666 
L 709 4666 
L 2188 738 
L 3669 4666 
L 4325 4666 
L 2547 0 
L 1831 0 
z
" transform="scale(0.015625)"/>
     </defs>
     <use xlink:href="#DejaVuSans-56"/>
    </g>
   </g>
   <g id="text_6">
    <!-- Lock-in amp. -->
    <g transform="translate(223.280099 130.043125) scale(0.14 -0.14)">
     <defs>
      <path id="DejaVuSans-4c" d="M 628 4666 
L 1259 4666 
L 1259 531 
L 3531 531 
L 3531 0 
L 628 0 
L 628 4666 
z
" transform="scale(0.015625)"/>
      <path id="DejaVuSans-63" d="M 3122 3366 
L 3122 2828 
Q 2878 2963 2633 3030 
Q 2388 3097 2138 3097 
Q 1578 3097 1268 2742 
Q 959 2388 959 1747 
Q 959 1106 1268 751 
Q 1578 397 2138 397 
Q 2388 397 2633 464 
Q 2878 531 3122 666 
L 3122 134 
Q 2881 22 2623 -34 
Q 2366 -91 2075 -91 
Q 1284 -91 818 406 
Q 353 903 353 1747 
Q 353 2603 823 3093 
Q 1294 3584 2113 3584 
Q 2378 3584 2631 3529 
Q 2884 3475 3122 3366 
z
" transform="scale(0.015625)"/>
      <path id="DejaVuSans-6b" d="M 581 4863 
L 1159 4863 
L 1159 1991 
L 2875 3500 
L 3609 3500 
L 1753 1863 
L 3688 0 
L 2938 0 
L 1159 1709 
L 1159 0 
L 581 0 
L 581 4863 
z
" transform="scale(0.015625)"/>
      <path id="DejaVuSans-2d" d="M 313 2009 
L 1997 2009 
L 1997 1497 
L 313 1497 
L 313 2009 
z
" transform="scale(0.015625)"/>
     </defs>
     <use xlink:href="#DejaVuSans-4c"/>
     <use xlink:href="#DejaVuSans-6f" transform="translate(53.962891 0)"/>
     <use xlink:href="#DejaVuSans-63" transform="translate(115.144531 0)"/>
     <use xlink:href="#DejaVuSans-6b" transform="translate(170.125 0)"/>
     <use xlink:href="#DejaVuSans-2d" transform="translate(228.035156 0)"/>
     <use xlink:href="#DejaVuSans-69" transform="translate(264.119141 0)"/>
     <use xlink:href="#DejaVuSans-6e" transform="translate(291.902344 0)"/>
     <use xlink:href="#DejaVuSans-20" transform="translate(355.28125 0)"/>
     <use xlink:href="#DejaVuSans-61" transform="translate(387.068359 0)"/>
     <use xlink:href="#DejaVuSans-6d" transform="translate(448.347656 0)"/>
     <use xlink:href="#DejaVuSans-70" transform="translate(545.759766 0)"/>
     <use xlink:href="#DejaVuSans-2e" transform="translate(609.236328 0)"/>
    </g>
   </g>
   <g id="patch_6">
    <path d="M 103.68 105.3 
C 104.396048 105.3 105.082866 105.015511 105.589188 104.509188 
C 106.095511 104.002866 106.38 103.316048 106.38 102.6 
C 106.38 101.883952 106.095511 101.197134 105.589188 100.690812 
C 105.082866 100.184489 104.396048 99.9 103.68 99.9 
C 102.963952 99.9 102.277134 100.184489 101.770812 100.690812 
C 101.264489 101.197134 100.98 101.883952 100.98 102.6 
C 100.98 103.316048 101.264489 104.002866 101.770812 104.509188 
C 102.277134 105.015511 102.963952 105.3 103.68 105.3 
z
" clip-path="url(#pa71d54e73b)" style="fill: #ffffff; stroke: #000000; stroke-width: 2; stroke-linejoin: miter"/>
   </g>
   <g id="text_7">
    <!-- A -->
    <g transform="translate(87.803125 106.463125) scale(0.14 -0.14)">
     <defs>
      <path id="DejaVuSans-41" d="M 2188 4044 
L 1331 1722 
L 3047 1722 
L 2188 4044 
z
M 1831 4666 
L 2547 4666 
L 4325 0 
L 3669 0 
L 3244 1197 
L 1141 1197 
L 716 0 
L 50 0 
L 1831 4666 
z
" transform="scale(0.015625)"/>
     </defs>
     <use xlink:href="#DejaVuSans-41"/>
    </g>
   </g>
   <g id="patch_7">
    <path d="M 103.68 159.3 
C 104.396048 159.3 105.082866 159.015511 105.589188 158.509188 
C 106.095511 158.002866 106.38 157.316048 106.38 156.6 
C 106.38 155.883952 106.095511 155.197134 105.589188 154.690812 
C 105.082866 154.184489 104.396048 153.9 103.68 153.9 
C 102.963952 153.9 102.277134 154.184489 101.770812 154.690812 
C 101.264489 155.197134 100.98 155.883952 100.98 156.6 
C 100.98 157.316048 101.264489 158.002866 101.770812 158.509188 
C 102.277134 159.015511 102.963952 159.3 103.68 159.3 
z
" clip-path="url(#pa71d54e73b)" style="fill: #ffffff; stroke: #000000; stroke-width: 2; stroke-linejoin: miter"/>
   </g>
   <g id="patch_8">
    <path d="M 157.68 105.3 
C 158.396048 105.3 159.082866 105.015511 159.589188 104.509188 
C 160.095511 104.002866 160.38 103.316048 160.38 102.6 
C 160.38 101.883952 160.095511 101.197134 159.589188 100.690812 
C 159.082866 100.184489 158.396048 99.9 157.68 99.9 
C 156.963952 99.9 156.277134 100.184489 155.770812 100.690812 
C 155.264489 101.197134 154.98 101.883952 154.98 102.6 
C 154.98 103.316048 155.264489 104.002866 155.770812 104.509188 
C 156.277134 105.015511 156.963952 105.3 157.68 105.3 
z
" clip-path="url(#pa71d54e73b)" style="fill: #ffffff; stroke: #000000; stroke-width: 2; stroke-linejoin: miter"/>
   </g>
   <g id="text_8">
    <!-- E -->
    <g transform="translate(163.98 106.463125) scale(0.14 -0.14)">
     <defs>
      <path id="DejaVuSans-45" d="M 628 4666 
L 3578 4666 
L 3578 4134 
L 1259 4134 
L 1259 2753 
L 3481 2753 
L 3481 2222 
L 1259 2222 
L 1259 531 
L 3634 531 
L 3634 0 
L 628 0 
L 628 4666 
z
" transform="scale(0.015625)"/>
     </defs>
     <use xlink:href="#DejaVuSans-45"/>
    </g>
   </g>
   <g id="patch_9">
    <path d="M 157.68 159.3 
C 158.396048 159.3 159.082866 159.015511 159.589188 158.509188 
C 160.095511 158.002866 160.38 157.316048 160.38 156.6 
C 160.38 155.883952 160.095511 155.197134 159.589188 154.690812 
C 159.082866 154.184489 158.396048 153.9 157.68 153.9 
C 156.963952 153.9 156.277134 154.184489 155.770812 154.690812 
C 155.264489 155.197134 154.98 155.883952 154.98 156.6 
C 154.98 157.316048 155.264489 158.002866 155.770812 158.509188 
C 156.277134 159.015511 156.963952 159.3 157.68 159.3 
z
" clip-path="url(#pa71d54e73b)" style="fill: #ffffff; stroke: #000000; stroke-width: 2; stroke-linejoin: miter"/>
   </g>
   <g id="patch_10">
    <path d="M 202.68 97.38 
C 203.396048 97.38 204.082866 97.095511 204.589188 96.589188 
C 205.095511 96.082866 205.38 95.396048 205.38 94.68 
C 205.38 93.963952 205.095511 93.277134 204.589188 92.770812 
C 204.082866 92.264489 203.396048 91.98 202.68 91.98 
C 201.963952 91.98 201.277134 92.264489 200.770812 92.770812 
C 200.264489 93.277134 199.98 93.963952 199.98 94.68 
C 199.98 95.396048 200.264489 96.082866 200.770812 96.589188 
C 201.277134 97.095511 201.963952 97.38 202.68 97.38 
z
" clip-path="url(#pa71d54e73b)" style="fill: #ffffff; stroke: #000000; stroke-width: 2; stroke-linejoin: miter"/>
   </g>
   <g id="text_9">
    <!-- A -->
    <g transform="translate(197.891563 85.468437) scale(0.14 -0.14)">
     <use xlink:href="#DejaVuSans-41"/>
    </g>
   </g>
   <g id="patch_11">
    <path d="M 202.68 52.38 
C 203.396048 52.38 204.082866 52.095511 204.589188 51.589188 
C 205.095511 51.082866 205.38 50.396048 205.38 49.68 
C 205.38 48.963952 205.095511 48.277134 204.589188 47.770812 
C 204.082866 47.264489 203.396048 46.98 202.68 46.98 
C 201.963952 46.98 201.277134 47.264489 200.770812 47.770812 
C 200.264489 48.277134 199.98 48.963952 199.98 49.68 
C 199.98 50.396048 200.264489 51.082866 200.770812 51.589188 
C 201.277134 52.095511 201.963952 52.38 202.68 52.38 
z
" clip-path="url(#pa71d54e73b)" style="fill: #ffffff; stroke: #000000; stroke-width: 2; stroke-linejoin: miter"/>
   </g>
   <g id="text_10">
    <!-- E -->
    <g transform="translate(198.256875 40.468437) scale(0.14 -0.14)">
     <use xlink:href="#DejaVuSans-45"/>
    </g>
   </g>
  </g>
 </g>
 <defs>
  <clipPath id="pa71d54e73b">
   <rect x="0" y="-0" width="357.302286" height="212.4"/>
  </clipPath>
 </defs>
</svg>
